<?xml version="1.0" encoding="UTF-8"?>
<svg id="Layer_2" data-name="Layer 2" xmlns="http://www.w3.org/2000/svg" viewBox="0 0 2904.7 2904.7">
  <defs>
    <style>
      .cls-1 {
        fill: #feca5f;
      }

      .cls-2 {
        fill: #63cbe5;
      }

      .cls-3 {
        fill: #f45a52;
      }

      .cls-4 {
        fill: #fcfcfc;
      }
    </style>
  </defs>
  <path class="cls-3" d="M872.73,968.49c-10.5-31.7,6.7-65.9,38.5-76.4,31.7-10.5,65.9,6.7,76.4,38.5l173.6,769-288.5-731.1h0Z"/>
  <path class="cls-2" d="M2018.11,957.89c9.3-32.1-9.3-65.6-41.4-74.9-32.1-9.3-65.6,9.3-74.9,41.4l-143.8,775.2,260.1-741.7h0Z"/>
  <path class="cls-1" d="M1351.96,626.59c-2.8-55.5,40-102.7,95.5-105.4,55.5-2.8,102.7,40,105.4,95.5l-100.51,1082.9-100.39-1073h0Z"/>
  <circle class="cls-4" cx="2350.29" cy="721.65" r="74.9" transform="translate(500.73 2341.45) rotate(-58.28)"/>
  <circle class="cls-4" cx="554.4" cy="721.65" r="74.9" transform="translate(-347.91 603.38) rotate(-45)"/>
  <circle class="cls-4" cx="1156.99" cy="967.88" r="35.3"/>
  <circle class="cls-4" cx="1747.71" cy="967.88" r="35.3"/>
  <g>
    <path class="cls-4" d="M133.29,893.42c-25.1-41.7-11.6-95.9,30.2-121,41.7-25.1,95.9-11.6,121,30.2l751.9,1417.3L133.29,893.42h0Z"/>
    <path class="cls-4" d="M228.6,2016.74c-28.6-17.2-37.8-54.4-20.6-83s54.4-37.8,83-20.6l632.6,470.5L228.6,2016.74h0Z"/>
  </g>
  <circle class="cls-4" cx="1452.35" cy="1840.33" r="74.9"/>
  <circle class="cls-4" cx="958.9" cy="1738.16" r="35.3"/>
  <circle class="cls-4" cx="1945.8" cy="1738.16" r="35.3"/>
  <circle class="cls-4" cx="1452.35" cy="2168.14" r="35.3"/>
  <g>
    <path class="cls-4" d="M2771.41,893.42l-903.1,1326.5,751.9-1417.3c25.1-41.8,79.3-55.3,121-30.2,41.8,25.1,55.3,79.3,30.2,121h0Z"/>
    <path class="cls-4" d="M2676.1,2016.74h0l-695,366.9,632.6-470.5c28.6-17.2,65.8-8,83,20.6,17.2,28.6,8,65.8-20.6,83h0Z"/>
  </g>
</svg>