<?xml version="1.0" encoding="UTF-8"?>
<svg id="Layer_2" data-name="Layer 2" xmlns="http://www.w3.org/2000/svg" viewBox="0 0 2904.7 2904.7">
  <defs>
    <style>
      .cls-1 {
        fill: #fff;
      }

      .cls-2 {
        fill: #fff109;
      }

      .cls-3 {
        fill: #50bfe5;
      }

      .cls-4 {
        fill: #de2728;
      }
    </style>
  </defs>
  <path class="cls-2" d="M1555.21,1573.82l29.41-86.72c1.57-4.64,.76-9.75-2.17-13.68l-54.76-73.39c-7.37-9.88-.22-23.93,12.11-23.77l91.56,1.17c4.9,.06,9.51-2.29,12.34-6.29l52.87-74.76c7.12-10.07,22.69-7.6,26.35,4.17l27.18,87.44c1.45,4.68,5.11,8.34,9.79,9.79l87.44,27.18c11.78,3.66,14.24,19.23,4.17,26.35l-74.76,52.87c-4,2.83-6.35,7.44-6.29,12.34l1.17,91.56c.16,12.33-13.89,19.49-23.77,12.11l-73.39-54.76c-3.92-2.93-9.04-3.74-13.68-2.17l-86.72,29.41c-11.68,3.96-22.83-7.19-18.87-18.87Z"/>
  <path class="cls-1" d="M588.51,1006.11c1.43,7.89,2.5,18.1,3.22,30.64,.7,12.55,.35,25.63-1.08,39.24-2.15,22.22-7.71,43.91-16.66,65.04-8.97,21.15-18.81,42.11-29.56,62.89v4.3l1.08,3.22,1.08,2.15v1.07c1.43,.72,5.73,4.3,12.9,10.75,7.16,6.45,15.22,14.35,24.19,23.65,8.96,9.32,18.09,19.35,27.41,30.1,9.31,10.75,17.2,20.8,23.65,30.1,11.46,14.34,19.7,29.93,24.72,46.76,5.01,16.85,7.88,34.23,8.6,52.14,.71,17.92,0,35.66-2.15,53.21-2.15,17.57-4.3,34.59-6.45,51.06-5.74,23.65-12.9,46.22-21.5,67.73-8.6,21.5-21.5,41.57-38.7,60.2-15.05,22.95-36.92,41.39-65.58,55.36-28.67,13.97-59.85,24.02-93.52,30.1-33.7,6.08-67.91,8.42-102.66,6.99-34.77-1.44-65.76-6.08-92.99-13.97-16.5-3.58-29.93-9.67-40.31-18.27-10.4-8.6-20.26-19.35-29.56-32.25,1.43-21.5,3.58-40.13,6.45-55.9,2.86-15.75,6.08-32.25,9.67-49.45,2.15-12.18,4.11-23.65,5.91-34.4,1.78-10.75,3.58-21.67,5.38-32.79,1.78-11.1,3.57-22.74,5.37-34.94,1.78-12.18,3.39-25.8,4.84-40.85,0-2.86,.17-6.08,.54-9.68,.35-3.57,.54-6.8,.54-9.67l-5.37-5.38-2.15-2.15h-5.37c-14.35-2.15-28.14-5.19-41.39-9.14-13.27-3.93-24.91-13.44-34.94-28.49-1.44-7.88-2.69-15.4-3.76-22.58-1.08-7.15-1.26-13.61-.54-19.35,2.15-20.78,9.31-39.59,21.5-56.44,12.18-16.83,24.36-30.27,36.55-40.31,10.75-8.6,20.78-14.51,30.1-17.74,9.31-3.22,15.05-4.84,17.2-4.84l2.15-1.08,4.3-3.22,1.08-2.15,1.08-3.22c-1.44-3.58-1.44-8.23,0-13.97l1.07-11.83c0-.7-.18-1.43-.54-2.15-.37-.71-.54-1.78-.54-3.22,.7-1.43,.89-2.69,.54-3.76-.37-1.07-.54-2.32-.54-3.76l1.07-8.6c.71-17.2,.71-34.03,0-50.52-.72-16.48-3.22-32.96-7.53-49.45,0-9.31,3.93-16.29,11.83-20.96,7.88-4.65,14.33-9.84,19.35-15.59,3.58-2.86,8.06-6.45,13.44-10.75,5.37-4.3,9.84-7.53,13.44-9.68l24.72-18.27,2.15-2.15c21.5-15.75,45.15-28.49,70.95-38.16,25.8-9.68,52.31-13.07,79.55-10.21,15.75,.72,36.9,7.89,63.42,21.5,22.93,13.62,41.56,32.97,55.9,58.05l6.45,15.05Zm-373.03,320.35l3.23-1.08,2.15-2.15,1.08-3.22v-41.93l-3.22-1.08-10.75,4.3-3.23,3.22c-5.74,5.02-11.12,10.4-16.12,16.13l-2.15,2.15v18.28l1.08,2.15,1.08,2.15,2.15,2.15,24.72-1.08Zm43-326.8c-.72,.72-1.26,1.26-1.61,1.61-.37,.37,.17-.17,1.61-1.61Zm334.33,437.53c1.43-32.25-6.63-61.98-24.19-89.23-17.57-27.23-40.31-49.45-68.26-66.65l-4.3-1.07-3.23,1.07-2.15,2.15c-16.5,15.77-32.97,28.86-49.45,39.24-16.5,10.4-32.97,19.35-49.45,26.87-16.5,7.53-32.97,13.98-49.45,19.35-16.5,5.38-33.33,10.21-50.52,14.51l-4.3,3.22-1.08,2.15v2.15c-1.44,5.02-2.33,9.86-2.68,14.51-.37,4.67-.91,9.51-1.62,14.51l-6.45,69.88c-1.44,8.6-2.69,17.2-3.76,25.8-1.08,8.6-2.33,17.2-3.76,25.8l-6.45,61.28c-.72,5.02-1.08,9.67-1.08,13.97s-.72,8.97-2.15,13.97l-1.08,4.3c3.58,6.45,22.93,11.47,58.05,15.05,16.48,1.44,32.96,1.79,49.45,1.07,16.48-.7,33.68-3.22,51.6-7.53,7.88,0,17.55-1.96,29.02-5.91,11.46-3.93,23.47-9.14,36.01-15.59,12.53-6.45,24.54-13.79,36.01-22.04,11.45-8.23,21.5-17.02,30.1-26.34,5-6.45,10.21-14.68,15.59-24.72,5.37-10.03,10.21-20.96,14.51-32.79,4.3-11.82,7.7-23.28,10.21-34.4,2.5-11.1,3.76-20.96,3.76-29.56l1.07-15.05Zm-295.63-131.15l2.15,1.07,3.22,1.08c17.91-4.3,35.29-10.56,52.14-18.81,16.83-8.23,33.14-19.17,48.91-32.79l1.08-1.08,1.08-3.22v-5.37l-2.15-2.15-2.15-1.08h-1.08c-15.77-1.43-32.43-1.78-49.98-1.07-17.57,.72-33.16,2.87-46.76,6.45l-3.22,2.15-1.08,2.15-1.08,4.3c-.72,2.15-1.26,3.95-1.61,5.37-.37,1.44-.72,3.41-1.08,5.91-.37,2.52-.9,6.28-1.61,11.29-.72,5.02-1.44,11.82-2.15,20.42l1.08,2.15,1.07,1.08,3.22,2.15Zm215-270.9c-3.59-17.2-11.29-29.38-23.11-36.55-11.83-7.16-24.91-11.46-39.24-12.9-9.32-1.43-17.92-1.43-25.8,0-7.89,1.44-15.77,3.59-23.65,6.45l-1.07,1.08c-3.6,2.87-7.18,5.38-10.75,7.53-3.6,2.15-7.18,4.3-10.75,6.45-17.2,10.75-31.54,20.07-43,27.95-11.47,7.89-22.22,17.2-32.25,27.95l-1.08,2.15v3.22c.71,6.45,1.24,14.34,1.61,23.65,.35,9.32,.54,18.65,.54,27.95s-.19,17.74-.54,25.26c-.37,7.53-.54,12.73-.54,15.59l1.08,2.15,3.22,5.38,2.15,1.07h2.15c7.15-1.43,15.94-2.32,26.34-2.68,10.38-.35,21.13-.17,32.25,.54,11.1,.72,22.04,1.26,32.79,1.61,10.75,.37,20.05,.54,27.95,.54l46.23,4.3,2.15-1.07,2.15-1.08c8.6-15.05,16.12-30.64,22.57-46.76,6.45-16.13,10.38-33.14,11.83-51.06,.71-7.16,1.08-13.25,1.08-18.27,0-5.73-1.44-12.53-4.3-20.42Z"/>
  <g>
    <path class="cls-1" d="M1401.37,1334.63c.49,.9,.87,1.84,1.14,2.83,15.96,56.98,23.64,110.87,23.03,161.68-.63,51.27-16.57,96.92-47.83,136.92-23.77,33.76-52.05,60.63-84.87,80.65-32.51,19.81-68.55,36.26-108.1,49.33-.76,.25-1.5,.59-2.19,.99-9.09,5.17-18.91,7.15-29.43,5.95-10.94-1.26-20.32-5.01-28.13-11.26-7.83-6.26-12.82-13.76-15.01-22.5-1.96-7.83,.95-16.14,8.72-24.95,1.76-2,4.09-3.5,6.65-4.21,7.41-2.04,14.47-3.73,21.2-5.07,7.81-1.57,15.47-2.81,22.98-3.75,7.5-.93,15.31-2.04,23.44-3.28,7.87-1.22,16.03-3.02,24.5-5.39,.54-.15,1.08-.33,1.61-.54,19.08-7.49,37.1-18.02,54.07-31.58,17.19-13.76,32.36-29.87,45.49-48.3,13.13-18.44,23.44-38.13,30.95-59.08,7.39-20.62,11.73-41.69,13.07-63.24,.04-.67,.04-1.35-.01-2.01-1.24-17.13-2.46-33.53-3.68-49.16-1.26-15.94-4.22-34.84-8.91-56.74-4.69-21.88-11.11-37.98-19.22-48.29-8.13-10.32-17.2-15.78-27.2-16.41-7.5,0-14.23,1.41-20.16,4.22-5.95,2.81-11.58,6.56-16.88,11.26-5.32,4.69-10.31,10.01-15,15.94-4.09,5.18-8.29,10.23-12.61,15.16-1.27,1.45-2.23,3.14-2.78,4.98-5.17,17.27-8.8,35.1-10.87,53.48-2.2,19.39-4.54,36.9-7.03,52.52-1.26,7.5-1.1,16.74,.47,27.67,1.55,10.95,1.4,23.45-.47,37.51-1.88,14.07-4.22,24.07-7.03,30.01-2.51,5.3-7.13,11.46-13.85,18.49-1.65,1.72-3.76,3-6.07,3.57-15.13,3.75-26.62,1.56-34.46-6.59-8.44-8.75-12.98-19.53-13.6-32.35-.63-12.81-.32-34.84,.94-66.11,1.24-31.26,2.49-55.01,3.75-71.28,1.25-16.25-.94-32.97-6.56-50.17-5.31-16.23-16.48-28.15-33.5-35.74-2-.89-4.23-1.25-6.41-1.04-19.19,1.86-30.11,9.58-32.77,23.19-2.81,14.39-5.95,27.67-9.38,39.86-3.44,12.19-5.01,24.71-4.69,37.51,.31,12.82,1.25,34.08,2.81,63.77,1.55,29.7,1.55,50.49,0,62.36-1.57,11.89-4.85,22.2-9.85,30.95-3.14,5.63-6.56,10.78-10.31,15.47-3.75,4.69-8.91,6.87-15.47,6.56-6.56-.32-13.92-2.04-22.04-5.16-8.13-3.12-12.51-7.81-13.13-14.07-3.14-10.62-4.54-21.25-4.22-31.88,.31-10.62,1.25-21.25,2.81-31.88,1.55-10.62,1.87-30.16,.93-58.61-.93-28.44-1.1-47.51-.47-57.21,.61-9.68,.61-19.69,0-30.01-.63-10.32-1.73-20.63-3.28-30.95-1.57-10.31-7.36-19.06-17.35-26.26-10.01-7.18-14.7-14.84-14.07-22.97,.61-8.12,3.59-15.47,8.91-22.04,5.11-6.32,13.85-11.33,26.21-15.05,.95-.29,1.97-.49,2.96-.57,10.39-.78,17.07,2.71,20.06,10.46h0c3.39,8.83,14.5,11.32,21.56,5.03,1.37-1.22,2.78-2.42,4.23-3.63,6.63-5.48,13.53-10.16,20.71-14.05,9.01-4.88,18.96-7.74,29.16-8.71,7.51-.71,15.69-1.1,24.53-1.15,1.32,0,2.68,.16,3.95,.53,17.9,5.13,32.88,14.33,44.96,27.6,7.25,7.98,13.66,17.44,19.24,28.36,4.98,9.76,19.04,9.5,23.87-.33,2.14-4.35,3.71-7.6,4.72-9.75,2.49-5.3,9.22-12.19,20.16-20.63,10.93-8.44,22.98-15,36.11-19.69,12.94-4.62,28-6.05,45.2-4.3,.5,.05,1.01,.06,1.51,.04,10.35-.46,20.25,1.89,29.73,7.07,9.68,5.32,18.43,12.35,26.26,21.1,7.81,8.76,14.84,18.29,21.1,28.6,5.9,9.76,10.98,18.54,15.22,26.33Z"/>
    <path class="cls-1" d="M2242.82,1390.83c-.91,22.17-5.51,45.37-13.79,69.58-.38,1.11-.88,2.19-1.57,3.14-1.6,2.23-3.2,6.28-4.8,12.14-1.88,6.89-3.91,15.33-6.1,25.32-2.2,10.01-4.38,20.8-6.56,32.36-2.2,11.58-3.91,22.97-5.16,34.23-1.26,16.88,3.59,41.73,14.53,74.56,10.65,31.98,19.39,55.51,26.2,70.58,.36,.8,.63,1.59,.83,2.44,3.66,15.86,7.31,32.31,10.96,49.37,3.75,17.5,7.03,34.84,9.84,52.05,2.81,17.19,4.06,34.23,3.75,51.11-.32,16.7-2.92,32.78-7.81,48.26-.11,.34-.2,.69-.27,1.04-1.86,9.15-4.16,17.1-6.93,23.85-2.81,6.87-6.42,13.28-10.78,19.23-4.38,5.93-9.38,11.4-15.01,16.41-5.19,4.61-11.18,9.75-17.96,15.43-1.13,.95-2.44,1.74-3.81,2.28-20.57,8.13-41.14,11.29-61.7,9.48-21.26-1.88-42.05-7.03-62.36-15.47-20.33-8.44-39.55-19.22-57.68-32.35-17.89-12.95-34.24-26.51-49.08-40.67-.42-.4-.86-.76-1.34-1.09-11.58-8.04-21.49-17.88-29.77-29.52-8.44-11.89-14.86-24.85-19.22-38.92-4.38-14.07-7.03-28.6-7.97-43.61-.89-14.27-.24-28.27,1.99-41.98,.23-1.39,.66-2.75,1.29-4.02,6.77-13.61,15.67-25.78,26.73-36.53,11.56-11.26,24.22-20.33,37.98-27.2,13.75-6.89,28.28-11.26,43.61-13.13,15.31-1.88,30.16-.63,44.54,3.75v.94c5,5,10.46,9.38,16.41,13.13,5.93,3.75,11.56,7.34,16.88,10.78,5.31,3.43,10.46,7.03,15.47,10.79,4.15,3.12,7.45,6.66,9.88,10.65,.96,1.57,2.29,2.9,3.85,3.87,5.19,3.25,9.68,8.25,13.47,15.02,4.36,7.81,6.71,15.94,7.03,24.39,.31,8.44-1.73,15.62-6.1,21.57-4.38,5.94-12.51,7.97-24.39,6.1-6.26-1.26-12.82-4.07-19.69-8.44-6.11-3.89-10.49-8.51-13.14-13.86-.67-1.35-1.47-2.66-2.51-3.76-8.83-9.28-17.54-17.16-26.08-23.65-8.1-6.15-17.31-11.78-27.65-16.92-2.43-1.21-5.23-1.69-7.91-1.23-13.69,2.32-24.66,7.75-32.9,16.28-9.07,9.38-15.17,20.31-18.29,32.82-3.14,12.5-3.44,25.47-.93,38.92,2.49,13.43,7.18,25.46,14.06,36.1,14.38,25,33.44,44.08,57.21,57.21,23.4,12.93,48.02,22.53,73.85,28.79,.78,.19,1.55,.32,2.35,.38,6.56,.51,13.83,.48,21.8-.1,8.44-.63,16.56-2.34,24.39-5.16,7.81-2.81,15-7.03,21.57-12.66,6.56-5.63,11.09-13.13,13.6-22.51,7.5-31.88,8.59-63.15,3.28-93.78-5.32-30.64-13.29-57.53-23.92-80.65-9.92-21.57-21.19-67.06-33.81-136.45-1.57-8.62-10.88-13.5-18.83-9.82-2.52,1.17-4.83,2.41-6.92,3.73-5.82,3.67-14.17,7.95-25.08,12.81-.46,.21-.95,.4-1.43,.56-14.19,4.85-29.57,7.26-46.17,7.26s-32.21-2.96-47.83-8.91c-15.63-5.94-29.23-14.54-40.79-25.79-11.57-11.25-18.92-25.63-22.04-43.14-3.75-17.49-4.69-36.41-2.81-56.73,1.83-19.81,6.03-39.78,12.62-59.9,.33-1.01,.54-2.09,.61-3.15,1.33-19.88,4.89-35.9,10.68-48.08,5.93-12.5,12.66-24.69,20.16-36.58,7.4-11.72,17.24-21.33,29.54-28.79,.31-.19,.61-.4,.9-.62,26.18-20.42,58.54-32.18,97.1-35.3,33.76-1.88,57.21,0,70.34,5.63,12.57,5.39,27.72,17.65,45.45,36.79,1.56,1.68,2.68,3.79,3.22,6.01,8.15,33.49,11.79,61.26,10.88,83.33Zm-167.63-51.57c-1.08,.3-2.16,.74-3.14,1.3-35.37,19.91-56.44,46.04-63.22,78.41-6.89,32.82-9.38,58.3-7.5,76.43,1.88,18.14,10.79,30.8,26.73,37.98,15.63,7.05,37.71,6.44,66.26-1.84,1.13-.33,2.26-.81,3.28-1.41,12.45-7.3,23.03-15.75,31.74-25.36,9.06-9.99,16.72-21.1,22.98-33.29,6.24-12.19,11.56-25.16,15.94-38.92,3.62-13.24,4.03-43.61,1.27-91.09-.21-3.63-1.85-7.09-4.64-9.42-3.29-2.75-7.14-5.49-11.55-8.24-2.94-1.83-6.47-2.5-9.86-1.77-19.71,4.22-42.48,9.96-68.28,17.22Z"/>
    <path class="cls-1" d="M2419.59,1377.23c.61,55.02,1.08,100.5,1.41,136.45,.27,31.73-.3,56.28-1.73,73.63-.35,4.23-2.7,8.06-6.34,10.23-7.43,4.43-13.65,6.63-18.66,6.63h-17.82c-4.45,0-10.27-1.95-17.45-5.86-3.81-2.07-6.29-5.97-6.76-10.28-2.57-23.7-3.57-42.71-2.99-57.01,0-20-.32-44.22-.93-72.68-.63-28.44-.63-56.27,0-83.47,.61-27.2,1.08-52.19,1.4-75.02,.26-19.33,.19-34.07-.22-44.2-.15-3.68,1.16-7.27,3.76-9.88,2.02-2.03,4.43-4,7.24-5.93,5-3.43,11.72-5.47,20.16-6.1,8.44-.62,14.68,.32,18.76,2.81,3.2,1.97,7.47,5.3,12.8,9.99,2.89,2.53,4.54,6.24,4.55,10.08,.07,20.9,.54,40.63,1.4,59.17,.94,20.33,1.08,40.79,.47,61.43h.94Z"/>
    <path class="cls-1" d="M2760.94,1317.21c-1.88,10.01-6.88,16.88-15.01,20.63-8.13,3.75-16.26,5.63-24.38,5.63-1.88,.63-4.38,.94-7.5,.94-8.76,0-14.7-2.18-17.82-6.56-3.14-4.37-5.32-9.38-6.56-15.01l.94,2.81c-1.26-3.12-2.51-6.24-3.75-9.38-1.26-3.12-4.38-5-9.38-5.63-3.14-.61-6.1-1.08-8.91-1.41-2.81-.31-5.48-.47-7.97-.47-12.51,0-24.54,2.81-36.1,8.44-11.58,5.63-22.04,13.13-31.42,22.51s-17.2,20.32-23.44,32.82c-6.26,12.51-9.7,25.64-10.32,39.39-1.26,5.01-2.04,9.7-2.34,14.07-.32,4.38-.47,8.44-.47,12.19,0,18.14,2.81,35.02,8.44,50.64,5.63,15.63,12.81,25.95,21.57,30.95,6.87,5.01,16.41,9.54,28.6,13.6,12.19,4.07,24.53,6.1,37.05,6.1,3.75,0,7.03-.15,9.84-.47,2.81-.31,5.47-.78,7.97-1.41,8.12-1.25,16.09-4.22,23.91-8.91,7.81-4.69,14.85-10.31,21.1-16.88,6.24-6.56,11.25-13.6,15.01-21.1,2.68-5.36,4.4-10.72,5.17-16.08,.62-4.34,3.11-8.28,7.12-10.05,1.96-.86,3.65-1.38,5.06-1.54,2.81-.31,5.47-.47,7.97-.47,9.99,0,17.5,3.91,22.51,11.72,5,7.83,7.5,17.98,7.5,30.48,0,6.89-.79,14.23-2.35,22.04-1.33,6.62-3.21,13.79-5.65,21.52-.87,2.77-2.64,5.2-5,6.88-17.82,12.66-37.57,23.67-59.22,33.02-23.13,10.01-46.89,15.01-71.27,15.01-10.64,0-21.26-.94-31.88-2.81-10.64-1.88-21.26-5.31-31.88-10.32l.94,.94c-12.51-3.12-23.61-8.75-33.29-16.88-9.7-8.12-18.14-17.35-25.32-27.67-7.19-10.32-13.29-21.25-18.29-32.82-4.84-11.16-8.79-22.19-11.86-33.07-.22-.78-.37-1.59-.46-2.39-.56-5.15-.99-9.9-1.27-14.25-.32-4.69-.47-10.46-.47-17.35,0-20.63,2.65-40.94,7.97-60.96,5.31-20,12.34-38.45,21.1-55.33,8.75-16.88,19.22-31.56,31.42-44.08,12.19-12.5,24.85-21.25,37.98-26.26,13.13-5.63,25.94-9.69,38.45-12.19,12.5-2.49,24.38-3.75,35.63-3.75,26.26,0,48.61,6.1,67.05,18.29,18.44,12.19,29.54,29.54,33.29,52.05v2.81Z"/>
  </g>
  <path class="cls-3" d="M2301.05,1125.24l5.82-65.62c.31-3.51-1.12-6.95-3.84-9.19l-50.75-42c-6.83-5.66-4.22-16.69,4.43-18.68l64.2-14.74c3.43-.79,6.26-3.22,7.56-6.49l24.26-61.25c3.27-8.25,14.57-9.17,19.13-1.56l33.86,56.51c1.81,3.02,4.99,4.96,8.51,5.18l65.74,4.14c8.85,.56,13.22,11.03,7.4,17.71l-43.28,49.66c-2.31,2.66-3.17,6.28-2.3,9.69l16.37,63.81c2.21,8.59-6.4,15.98-14.56,12.51l-60.6-25.81c-3.24-1.38-6.95-1.08-9.93,.81l-55.62,35.29c-7.49,4.75-17.18-1.15-16.39-9.98Z"/>
  <path class="cls-4" d="M771.83,1735.09l-9.51-51.18c-.51-2.74-2.33-5.05-4.87-6.18l-47.55-21.18c-6.4-2.85-6.76-11.81-.6-15.16l45.73-24.86c2.45-1.33,4.08-3.78,4.37-6.55l5.45-51.77c.73-6.97,9.14-10.07,14.23-5.25l37.77,35.81c2.02,1.92,4.85,2.71,7.58,2.14l50.92-10.81c6.86-1.46,12.41,5.58,9.39,11.91l-22.39,46.99c-1.2,2.51-1.08,5.45,.31,7.87l26.02,45.08c3.5,6.07-1.47,13.52-8.42,12.61l-51.61-6.77c-2.76-.36-5.52,.66-7.38,2.73l-34.84,38.68c-4.69,5.21-13.32,2.78-14.6-4.11Z"/>
  <path class="cls-1" d="M243.57,1553.95c-1.88-20.47-4.98-41.39-9.34-62.78-.11,.61-.2,1.23-.32,1.83-3.79,18.52-14.67,30.18-29.18,35.15,1.06,8.98,1.97,17.97,2.65,26.98,12.71-3.28,24.62-7.22,36.2-1.19Z"/>
</svg>