<?xml version="1.0" encoding="utf-8"?>
<!-- Generator: Adobe Illustrator 27.0.1, SVG Export Plug-In . SVG Version: 6.00 Build 0)  -->
<svg version="1.1" id="Layer_1" xmlns="http://www.w3.org/2000/svg" xmlns:xlink="http://www.w3.org/1999/xlink" x="0px" y="0px"
	 viewBox="0 0 800 800" style="enable-background:new 0 0 800 800;" xml:space="preserve">
<style type="text/css">
	.st0{fill:#FFFFFF;}
</style>
<g>
	<g>
		<path class="st0" d="M580.6,640.5c-1.7,0-3.5,0-5.2-0.1H224.6c-40.6,1.4-79.4-13.1-109.1-40.7C85.7,572,68.3,534.2,66.7,493.5
			c0-0.3,0-0.6,0-0.9V307.6c0-0.3,0-0.6,0-0.9c1.6-40.8,18.9-78.5,48.8-106.2c29.7-27.6,68.5-42.1,109.1-40.7h350.7
			c40.6-1.4,79.4,13.1,109.1,40.7c29.9,27.7,47.3,65.4,48.8,106.2c0,0.3,0,0.6,0,0.9v185c0,0.3,0,0.6,0,0.9
			c-1.6,40.8-18.9,78.5-48.8,106.2C656,626.1,619.3,640.5,580.6,640.5z M224.2,593.9h351.5c0.3,0,0.6,0,0.9,0c1.3,0,2.6,0.1,3.9,0.1
			c56.7,0,103.9-44.9,106.3-101.8V308.1c-2.5-58.3-51.8-103.9-110.3-101.8c-0.3,0-0.6,0-0.9,0H224.2c-0.3,0-0.6,0-0.9,0
			c-58.3-2-107.6,43.6-110.2,101.8v184c2.5,58.3,51.8,104,110.3,101.8C223.7,593.9,224,593.9,224.2,593.9z"/>
	</g>
	<g>
		<path class="st0" d="M366.5,516.4c-9.1,0-18.3-2.1-26.5-6.6c-15.8-8.3-25.2-23.4-25.2-40V330.2c0-16.7,9.4-31.6,25.3-39.9
			c18.3-9.7,41-8.5,57.8,2.9l0,0l97.5,66.3c13,7.9,20.9,22.2,20.9,37.5c0,15-7.8,29.2-20.4,37.1l-97.2,72.3
			c-0.3,0.2-0.6,0.4-0.8,0.6C388.6,513.2,377.6,516.4,366.5,516.4z M361.2,468.4c1.8,1.2,6.6,2.3,10.2,0.2l96.3-71.6l-96-65.3
			c-3.6-2.4-8.5-1.2-10.5,0V468.4z"/>
	</g>
</g>
</svg>
