<svg id="Layer_1" data-name="Layer 1" xmlns="http://www.w3.org/2000/svg" viewBox="0 0 300 192.7"><defs><style>.cls-1,.cls-6{fill:#a4a5a8;}.cls-1,.cls-2{opacity:0.05;}.cls-2,.cls-3,.cls-8{fill:#fff;}.cls-3{stroke:#a3a5a8;stroke-width:3px;opacity:0.15;}.cls-3,.cls-7{stroke-linecap:round;stroke-linejoin:round;}.cls-4{fill:gold;}.cls-5{fill:#413f5d;stroke:#9dc8eb;stroke-miterlimit:10;opacity:0.07;}.cls-5,.cls-7{stroke-width:2px;}.cls-7{fill:none;stroke:#a4a5a8;}</style></defs><path class="cls-1" d="M114.45,63l3.27,4c1.44,1.78,4.65,2.24,6.9,1l3.25-1.8a6,6,0,0,1,6.17.33l1.29,1a5.92,5.92,0,0,0,7.14-.38l1-1a5.81,5.81,0,0,1,7.57,0l.12.11c2,2,6,1.84,7.8-.24l4.67-5.51c2.09-2.45,7.07-2.09,8.45.61l1.65,3.25c1.31,2.57,6,3.07,8.21.87l.18-.18a5.89,5.89,0,0,1,6.41-.8l5,2.46c3.15,1.54,7.36-.12,7.36-2.91V61.24c0-14.18-24.14-10.1-24.14-17.79v-2h.16c4.35,0,7.88-1.45,7.88-4.65v-.24c0-3.19-3.54-5.81-7.88-5.81H123c-4.35,0-7.89,2.62-7.89,5.81v.24c0,3.2,3.54,4.65,7.89,4.65h.15v2c0,7.7-24.14,3.61-24.14,17.8v3.11l9.68-2.84A5.66,5.66,0,0,1,114.45,63Z"/><path class="cls-2" d="M179.56,69.1V62.73h0v-2c0-10.22-14.16-7.28-14.16-12.82V46.47h.08c2.56,0,4.63-1,4.63-3.35V43A4.37,4.37,0,0,0,166,38.79v0H133.83l0,0A4.38,4.38,0,0,0,129.73,43v.17c0,2.3,2.08,3.35,4.63,3.35h.09v1.44c0,5.54-14.16,2.6-14.16,12.82v2h0V69.1A29.14,29.14,0,0,0,119.91,81c.06.37.14.74.22,1.11h0l.15.69c.17.69.36,1.38.57,2.06l.72,2.28.46,1.44,6.15,19.49a5.06,5.06,0,0,0,4.73,3.34h34a5,5,0,0,0,4.72-3.34l6.15-19.49.46-1.44.72-2.28c.21-.68.41-1.37.57-2.06.06-.23.11-.46.16-.69h0q.12-.56.21-1.11a29.35,29.35,0,0,0-.37-11.91Z"/><path class="cls-1" d="M125.51,61.54s18.74-8.83,50-.15c.13,0,0,.23,0,.23a80.49,80.49,0,0,1,.69,10.43,30.71,30.71,0,0,1-.37,4.7c-.06.35-.12.69-.19,1h0c0,.22-.08.43-.13.65-.14.64-.3,1.27-.48,1.9l-.61,2.12-.38,1.33-5.19,18.07a4.31,4.31,0,0,1-4,3.09H136.16a4.3,4.3,0,0,1-4-3.09L127,83.78l-.38-1.33L126,80.33c-.18-.63-.35-1.26-.48-1.9-.05-.22-.1-.43-.14-.65h0c-.06-.34-.13-.68-.18-1a29.5,29.5,0,0,1-.37-4.7,80.49,80.49,0,0,1,.69-10.43v-.23"/><path class="cls-3" d="M113.39,71.41s-5.69,36.61-.61,40.35"/><path class="cls-3" d="M186.77,69.57s4.38,33,.47,36.36"/><path class="cls-4" d="M136.59,67.59V64.27L140,67.64V71Z"/><path class="cls-4" d="M136.59,78.58V75.22L140,71.86v3.36Z"/><path class="cls-4" d="M141.24,71.85h3.35l3.35,3.34H144.6Z"/><path class="cls-4" d="M136.16,67.64,139.51,71h-3.33l-3.35-3.34Z"/><path class="cls-4" d="M136.13,75.2h-3.29l3.36-3.36h3.29Z"/><path class="cls-4" d="M140.81,71V67.61l3.36-3.36v3.37Z"/><path class="cls-4" d="M144.59,71h-3.32l3.36-3.35h3.31Z"/><path class="cls-4" d="M140.81,75.18V71.9l3.36,3.36v3.28Z"/><path class="cls-4" d="M140.81,71.44a.42.42,0,1,1-.4-.45A.45.45,0,0,1,140.81,71.44Z"/><path class="cls-5" d="M159,86.82h-2.44V84.38a1.22,1.22,0,1,0-2.44,0v2.44h-2.44a1.22,1.22,0,0,0,0,2.44h2.44V91.7a1.22,1.22,0,1,0,2.44,0V89.26H159a1.22,1.22,0,0,0,0-2.44Z"/><path class="cls-4" d="M152.67,85.36V83L155,85.39v2.33Z"/><path class="cls-4" d="M152.67,93.07V90.71L155,88.35v2.36Z"/><path class="cls-4" d="M155.94,88.34h2.35l2.35,2.35h-2.35Z"/><path class="cls-4" d="M152.37,85.39l2.35,2.35h-2.34L150,85.39Z"/><path class="cls-4" d="M152.34,90.69H150l2.35-2.35h2.31Z"/><path class="cls-4" d="M155.63,87.73V85.37L158,83v2.37Z"/><path class="cls-4" d="M158.28,87.74H156l2.35-2.35h2.33Z"/><path class="cls-4" d="M155.63,90.68v-2.3L158,90.74V93Z"/><path class="cls-4" d="M155.63,88.06a.3.3,0,0,1-.59,0,.3.3,0,1,1,.59,0Z"/><path class="cls-4" d="M163,69.47V67.78l1.72,1.72v1.69Z"/><path class="cls-4" d="M163,75.07V73.35l1.72-1.7v1.71Z"/><path class="cls-4" d="M165.14,71.2V69.48l1.71-1.71v1.72Z"/><path class="cls-4" d="M165.14,73.34V71.66l1.72,1.72v1.67Z"/><path class="cls-4" d="M165.14,71.43a.22.22,0,0,1-.22.21.24.24,0,0,1-.21-.23.22.22,0,1,1,.43,0Z"/><path class="cls-4" d="M166.87,69.49h1.69l-1.71,1.71h-1.69Z"/><path class="cls-4" d="M161.28,69.49H163l1.71,1.71H163Z"/><path class="cls-4" d="M165.15,71.64h1.71l1.71,1.71h-1.71Z"/><path class="cls-4" d="M163,71.64h1.67L163,73.35h-1.68Z"/><path class="cls-4" d="M164.91,71.63a.21.21,0,0,1,0-.42.21.21,0,1,1,0,.42Z"/><circle class="cls-6" cx="141.24" cy="96" r="1.84"/><circle class="cls-6" cx="153.85" cy="63.45" r="3.12"/><circle class="cls-6" cx="162.99" cy="102.46" r="0.77"/><path class="cls-7" d="M179.56,69.1V62.73h0v-2c0-10.22-14.16-7.28-14.16-12.82V46.47h.08c2.56,0,4.63-1,4.63-3.35V43A4.37,4.37,0,0,0,166,38.79v0H133.83l0,0A4.38,4.38,0,0,0,129.73,43v.17c0,2.3,2.08,3.35,4.63,3.35h.09v1.44c0,5.54-14.16,2.6-14.16,12.82v2h0V69.1A29.14,29.14,0,0,0,119.91,81c.06.37.14.74.22,1.11h0l.15.69c.17.69.36,1.38.57,2.06l.72,2.28.46,1.44,6.15,19.49a5.06,5.06,0,0,0,4.73,3.34h34a5,5,0,0,0,4.72-3.34l6.15-19.49.46-1.44.72-2.28c.21-.68.41-1.37.57-2.06.06-.23.11-.46.16-.69h0q.12-.56.21-1.11a29.35,29.35,0,0,0-.37-11.91Z"/><path class="cls-4" d="M72.47,137.2h.09l.27-.06a1.91,1.91,0,0,0,.21-.06,13.19,13.19,0,0,1,2.44-.24c.33,0,.63,0,.94,0a5.94,5.94,0,0,1,3.07,1.06,4.37,4.37,0,0,1,1.76,2.95,6.87,6.87,0,0,1,0,.79,5.67,5.67,0,0,1-.43,2.22A12.33,12.33,0,0,1,78.09,148a23,23,0,0,1-4.89,3.7,28.09,28.09,0,0,1-5.78,2.49,5,5,0,0,1-.51.19c-.21.06-.4.12-.55.15a1.47,1.47,0,0,1-.36.09,1.5,1.5,0,0,0-.09.61c0,.21,0,.48.06.82a22.1,22.1,0,0,0,.42,2.31,10,10,0,0,0,.55,1.79l-.15,0a.42.42,0,0,1-.34-.12,2.66,2.66,0,0,1-.39-.43A5.43,5.43,0,0,1,65.3,158a15.4,15.4,0,0,1-.61-2.61,4,4,0,0,0-.12-.55.36.36,0,0,0-.21-.21,2.7,2.7,0,0,0-.52-.12,2.52,2.52,0,0,1-2.1-1.55.38.38,0,0,1,0-.18v-.06a.32.32,0,0,1,0-.16,2,2,0,0,0,.92.58,4.22,4.22,0,0,0,.54.06,2.3,2.3,0,0,0,.64-.09.59.59,0,0,0,.52-.64v-.18a30,30,0,0,1-.19-3.25,23.23,23.23,0,0,1,.13-2.52,31.76,31.76,0,0,1,.42-3.46l0-.25,0-.18c0-.12-.15-.24-.36-.39a1.12,1.12,0,0,1-.58-.89.82.82,0,0,1,.21-.54,6.93,6.93,0,0,1,1-.88s0,0,.07,0a1.42,1.42,0,0,0,.51-.76A41.2,41.2,0,0,1,72,125.38a.23.23,0,0,0,.06-.12,7.78,7.78,0,0,0-2.12.55c-1,.39-2,.82-3.07,1.34a13.05,13.05,0,0,0-2.28,1.39l.3.19c.22.09.4.18.58.27a.51.51,0,0,1,.21.3v.06a.14.14,0,0,1-.15.16,5.86,5.86,0,0,1-.73,0,6.27,6.27,0,0,1-1.36-.13A.8.8,0,0,1,63,129a1.22,1.22,0,0,1-.15-.52v-.18a1.38,1.38,0,0,1,.48-.67,10.6,10.6,0,0,1,2.07-1.33,36.52,36.52,0,0,1,8-3,.18.18,0,0,1,.12,0,2.77,2.77,0,0,0,.91-.4,1,1,0,0,1,.46-.3.88.88,0,0,1,.82.09.18.18,0,0,0,.12,0H76a.74.74,0,0,0,.25,0,.33.33,0,0,1,.15,0,23.26,23.26,0,0,1,3.85-.33,5.24,5.24,0,0,1,1.62.27,2.11,2.11,0,0,1,1.45,1.91,3.11,3.11,0,0,1-.42,1.61,16.19,16.19,0,0,1-2.43,3.13q-3.65,3.82-7.63,7.29a.32.32,0,0,1-.15.13.7.7,0,0,0-.21.21.73.73,0,0,0-.19.3A.67.67,0,0,0,72.47,137.2Zm-1.79,14a27.43,27.43,0,0,0,5.19-3.89,16,16,0,0,0,2.37-2.86,7.54,7.54,0,0,0,1.34-3.58,2.19,2.19,0,0,0-.61-1.58,3.44,3.44,0,0,0-1.46-.85,5.33,5.33,0,0,0-1.58-.28h-.3a12.32,12.32,0,0,0-7.81,2.56,3.32,3.32,0,0,0-1.22,1.82,43.58,43.58,0,0,0-.66,4.31,30.07,30.07,0,0,0-.31,3.89,13.93,13.93,0,0,0,.12,2A14.75,14.75,0,0,0,70.68,151.15Zm3.58-18.35c1.67-1.43,3.31-3,4.89-4.59a18.45,18.45,0,0,0,2.37-3,1.61,1.61,0,0,0,.27-.79c0-.51-.48-.79-1.48-.79a22.28,22.28,0,0,0-4.38.43,1.66,1.66,0,0,0-.39.15l-.46.27a1.22,1.22,0,0,0-.33.28,45.33,45.33,0,0,0-6.2,11.66,2.59,2.59,0,0,0-.15.67.22.22,0,0,0,0,.15c0,.06.06.06.12.06a1.24,1.24,0,0,0,.52-.27Q71.71,135,74.26,132.8Z"/><path class="cls-4" d="M93.4,129.7a.31.31,0,0,1,.33.3.38.38,0,0,1,0,.18,7.61,7.61,0,0,1-.33,1.28,18.12,18.12,0,0,0-.73,4.22V136a1.72,1.72,0,0,0,.12.82l.06.06a1.36,1.36,0,0,0,.43-.43c.33-.45.76-1.12,1.33-1.94a12.78,12.78,0,0,1,.88-1,9.51,9.51,0,0,1,1.19-.95,2.84,2.84,0,0,1,1.33-.42,1.66,1.66,0,0,1,1.25.64.48.48,0,0,1,.15.3v0c0,.09-.09.18-.27.21a.33.33,0,0,1-.15,0,1.48,1.48,0,0,1-.7-.21.44.44,0,0,0-.21,0,1.68,1.68,0,0,0-1.16.76,7.59,7.59,0,0,0-1.21,1.64,21.72,21.72,0,0,0-2.16,4.95c-.27,1-.4,1.58-.43,1.8s-.12.82-.21,1.76a2.35,2.35,0,0,1-.15.42A1,1,0,0,1,92,145h-.09a1,1,0,0,1-.85-.61,3.6,3.6,0,0,1-.15-.94c0-.61,0-1.19,0-1.73s0-1.07,0-1.55l0-.15a35,35,0,0,1,1.42-8.75c-.36.39-.94,1-1.76,1.79l-.39.33a11.28,11.28,0,0,1-1.92,1.43,9.4,9.4,0,0,1-1.24.64l-.25.06c.1.09.16.15.16.21v.06c0,.09-.16.19-.43.28a.49.49,0,0,0-.24.45v.06a7.45,7.45,0,0,0,.61,2.22,6.13,6.13,0,0,1,.48,2.31v.21a4.47,4.47,0,0,1-1,2.65,1.8,1.8,0,0,1-1.31.7,1.54,1.54,0,0,1-1.24-.92,3.13,3.13,0,0,1-.25-.7,8.4,8.4,0,0,1-.18-1.73v-.45A9.08,9.08,0,0,1,85,136.23c.15-.27.34-.64.58-1.15a.6.6,0,0,1,.42-.31c.46-.09.85-.21,1.16-.3A12.66,12.66,0,0,0,89.45,133c.45-.4,1-.88,1.67-1.49L92.7,130a1.11,1.11,0,0,1,.64-.27ZM85,140.85l0,.15v.21a3.92,3.92,0,0,0,.3,1.76,2.62,2.62,0,0,0,1-2.06v-.18a4.62,4.62,0,0,0-.7-2.37h0A6.06,6.06,0,0,0,85,140.85Z"/><path class="cls-4" d="M100.6,137.69a10,10,0,0,0-.79,2.55,9.08,9.08,0,0,0-.19,1.49,3.1,3.1,0,0,0,.31,1.49,3.92,3.92,0,0,0,1.61-1.31,27.1,27.1,0,0,0,1.85-2.43c.58-.88,1.06-1.58,1.4-2.1l.27-.39a.11.11,0,0,1,0-.09l.37-.55a.55.55,0,0,1,.27-.21.51.51,0,0,1,.15-.06s.06,0,.09.06a.1.1,0,0,1,0,.06.6.6,0,0,1-.09.24c-1.33,2.46-2.79,4.83-4.34,7.17a4.46,4.46,0,0,1-1,1.1,2,2,0,0,1-1.1.39,1.66,1.66,0,0,1-1.33-.82,3.53,3.53,0,0,1-.55-1.91v-.09a12.09,12.09,0,0,1,2.76-7.66,3.85,3.85,0,0,1,1.8-1.25,2,2,0,0,1,.57-.09.84.84,0,0,1,.82.52,1.76,1.76,0,0,1,.06.39,1.58,1.58,0,0,1-.12.64,1.36,1.36,0,0,1-.55.79.59.59,0,0,1-.3.06.44.44,0,0,1-.21,0,2.32,2.32,0,0,1-.4-.3l-.06-.06A8.88,8.88,0,0,0,100.6,137.69Z"/><path class="cls-4" d="M110.17,142.58a46.65,46.65,0,0,0,3.31-6.35.41.41,0,0,1,.3-.18h.06c.09,0,.12.09.12.21a2.49,2.49,0,0,1-.06.37,30.29,30.29,0,0,1-3.28,7.07,6,6,0,0,1-.85,1.1,1.38,1.38,0,0,1-.82.36,1.16,1.16,0,0,1-.94-.64,3.69,3.69,0,0,1-.43-1.3,17,17,0,0,1-.15-2.13,14.89,14.89,0,0,1,.09-1.61v-.15c0-.12,0-.18-.06-.18h0a1.33,1.33,0,0,0-.3.36c-.13.18-.22.37-.31.52s-.09.18-.12.21,0,.06-.06.09a15.74,15.74,0,0,1-1.55,2.16,1.92,1.92,0,0,1-.45.42.73.73,0,0,1-.46.19,1.55,1.55,0,0,1-.33-.06.86.86,0,0,1-.55-.52,1.86,1.86,0,0,1-.15-.73,9.43,9.43,0,0,1,1-3.95,8.57,8.57,0,0,1,1.79-2.64,2.41,2.41,0,0,1,1.34-.73.92.92,0,0,1,.7.36.59.59,0,0,0,.48.31h.12c.1,0,.28-.13.55-.4s.58-.58.85-.58a.51.51,0,0,1,.22,0,.57.57,0,0,1,.27.55,3.42,3.42,0,0,1-.15.82,13.53,13.53,0,0,1-.4,1.31c-.27.88-.51,1.73-.7,2.55a11,11,0,0,0-.3,2.7v.31a4.63,4.63,0,0,0,.24,1.4A4.44,4.44,0,0,0,110.17,142.58Zm-2.62-6.78a.45.45,0,0,0-.3.13,5,5,0,0,0-1.16,1.3,16.39,16.39,0,0,0-1.12,2,8.42,8.42,0,0,0-.61,1.67,2.92,2.92,0,0,0,0,.48c0,.31.06.43.15.43h.06a2.9,2.9,0,0,0,.82-.94c.37-.52.73-1.16,1.13-1.85s.73-1.31,1-1.83.4-.82.43-.88C107.86,136,107.73,135.8,107.55,135.8Z"/><path class="cls-4" d="M114.69,139.33a1.3,1.3,0,0,1,.12-.21l1-1.7c.43-.64.86-1.31,1.25-1.95a5.73,5.73,0,0,1,.64-.85.84.84,0,0,1,.55-.24c.24,0,.42.18.54.57a4.74,4.74,0,0,1,.06.92v.6c0,.25,0,.55,0,.91a11.78,11.78,0,0,0,.22,1.61,2.78,2.78,0,0,0,.39,1.1,8.23,8.23,0,0,0,1.34-1.37c.33-.48.67-1,1-1.58.18-.3.36-.61.58-.94a.27.27,0,0,1,.21-.09.25.25,0,0,1,.18.06.16.16,0,0,1,.06.12.09.09,0,0,1,0,.06,19.68,19.68,0,0,1-1.3,2.28,15.15,15.15,0,0,1-1.37,1.91,1.57,1.57,0,0,1-1.06.52.86.86,0,0,1-.28,0,1.56,1.56,0,0,1-.91-1.12,6.09,6.09,0,0,1-.18-1.43v-1.89q0-.45-.09-.45a1.15,1.15,0,0,0-.28.36s0,0,0,.06c-.91,1.49-1.76,3-2.58,4.62-.27.52-.58,1-.88,1.55a1.34,1.34,0,0,1-.33.34.94.94,0,0,1-.37.12l-.18,0a.78.78,0,0,1-.46-.34,1.28,1.28,0,0,1-.18-.51c0-.22,0-.43,0-.64a10.18,10.18,0,0,1,.27-2.34,18.15,18.15,0,0,1,1.43-4.65,5.93,5.93,0,0,1,.85-1.28.86.86,0,0,1,.61-.3.5.5,0,0,1,.33.12.73.73,0,0,1,.25.49,1,1,0,0,1-.12.39,16.22,16.22,0,0,0-1.31,4c-.12.55-.24,1.1-.4,1.61v.09s0,0,0,.06A1,1,0,0,0,114.69,139.33Z"/><path class="cls-4" d="M133.52,137.35c-.63,1.31-1.27,2.59-1.91,3.83a26,26,0,0,1-2.34,3.68,4.12,4.12,0,0,1-.61.64,1.39,1.39,0,0,1-.88.39.88.88,0,0,1-.27-.06c-.37-.09-.61-.42-.76-.94a6.58,6.58,0,0,1-.18-1.52,29.83,29.83,0,0,1,.24-3.65.66.66,0,0,1,0-.24,1.47,1.47,0,0,0,0-.33.32.32,0,0,0-.06-.22h0c-.09,0-.18.1-.27.31,0,0,0,.09-.06.15-.16.3-.34.61-.49.94-.42.91-.88,1.79-1.37,2.67a5.31,5.31,0,0,1-1,1.37,1.57,1.57,0,0,1-1,.43c-.4,0-.76-.28-1.07-.82a4.23,4.23,0,0,1-.36-1.49,8.43,8.43,0,0,1,0-.88,12.87,12.87,0,0,1,1.31-5.74,2.92,2.92,0,0,1,.63-1,1,1,0,0,1,.61-.27.86.86,0,0,1,.34.09.55.55,0,0,1,.27.49.85.85,0,0,1-.12.45,17.29,17.29,0,0,0-1.52,6.38,1.2,1.2,0,0,0,0,.34,2.47,2.47,0,0,0,.18.88.76.76,0,0,0,.37-.18,1.3,1.3,0,0,0,.21-.31l.09-.12a22.53,22.53,0,0,0,1.7-3c.27-.51.52-1,.76-1.55s.61-1.27.91-1.91a4.65,4.65,0,0,1,.58-.94.7.7,0,0,1,.51-.31.19.19,0,0,1,.13,0,.76.76,0,0,1,.48.52,3.31,3.31,0,0,1,.06.55,2,2,0,0,1,0,.42.11.11,0,0,0,0,.09c0,.16-.06.43-.09.76-.09.7-.21,1.58-.3,2.62a24.54,24.54,0,0,0-.18,2.82v.21c0,.76.09,1.22.3,1.4a8.24,8.24,0,0,0,1.58-1.94c.52-.82,1-1.7,1.55-2.65a31.3,31.3,0,0,1,2.06-3.37c.19-.21.31-.3.37-.3h0s.06,0,.06.09v.09a.9.9,0,0,1-.12.46C133.74,136.93,133.62,137.14,133.52,137.35Z"/><path class="cls-4" d="M139.24,148.75a14,14,0,0,1-1.46,2.43A2.45,2.45,0,0,1,136,152.3h-.12c-.64,0-1.18-.52-1.7-1.43a9.57,9.57,0,0,1-.82-2.18,15.39,15.39,0,0,1-.36-2.31,26.7,26.7,0,0,1-.12-2.68q0-1.14.09-2.28c.12-1.67.3-3.31.57-4.92A63.3,63.3,0,0,1,137.38,123s0-.09.06-.15c.18-.42.4-.64.67-.64a.44.44,0,0,1,.21,0c.31.1.46.37.46.79v.25a14.27,14.27,0,0,1-.58,2.06v0a90.73,90.73,0,0,0-2.79,10.12c-.34,1.7-.58,3.28-.73,4.71s-.21,2.7-.21,3.83c0,.61,0,1.24.06,1.85a13,13,0,0,0,.85,3.89c.24.52.54.79.85.79a.85.85,0,0,0,.36-.12A4.84,4.84,0,0,0,138,149c.42-.67.76-1.25,1-1.76a1.23,1.23,0,0,0,.09-.22q1.18-2.13,2.28-4.37c1.06-2.19,2.22-4.31,3.43-6.35a1.42,1.42,0,0,1,.19-.24H145s.06,0,.06.06l0,.12,0,.12-.09.28C143.18,140.76,141.27,144.77,139.24,148.75Z"/><path class="cls-4" d="M159.68,127.84a5.33,5.33,0,0,0-2,.79,19.45,19.45,0,0,0-3.34,2.37,7.37,7.37,0,0,0-2.19,2.89c-.15.46-.42.7-.79.7a1.34,1.34,0,0,1-.6-.18A1.52,1.52,0,0,1,150,133V133a3.16,3.16,0,0,1,.79-2,9.69,9.69,0,0,1,2.25-2,3.39,3.39,0,0,0,.54-.37c.94-.66,1.79-1.21,2.55-1.67a20.76,20.76,0,0,1,2.83-1.33,4,4,0,0,0,2-1.52,2.07,2.07,0,0,1,1.12-.94.83.83,0,0,1,.27,0,.84.84,0,0,1,.37.09,2,2,0,0,1,.51.36l.06.06a.49.49,0,0,0,.34.12h.06a1.51,1.51,0,0,0,.39-.15l.22-.09c1.12-.39,2.49-.88,4.07-1.4s2.91-1,4.1-1.3c1.4-.4,2.79-.76,4.22-1.07a34.69,34.69,0,0,1,4.32-.54,5.31,5.31,0,0,1,.69,0c.37,0,.7,0,1.07.06a5,5,0,0,1,1.67.51c.06.06.12.13.12.16s0,0,0,.06a.49.49,0,0,1-.18.09.9.9,0,0,1-.25.06,40.05,40.05,0,0,0-9.6,1.85c-3.16,1-6.22,2.19-9.23,3.47-.21.09-.52.24-.88.42a9.54,9.54,0,0,0-1.1.61,1.76,1.76,0,0,0-.66.73c-.19.57-.46,1.61-.85,3.13s-.76,3.06-1.1,4.61a26.07,26.07,0,0,0-.55,3.29c2.19-.46,4.17-.82,5.93-1.1s3.8-.45,6.07-.67h.16c.57,0,.88.12.91.34v.06c0,.18-.28.33-.85.45a35.82,35.82,0,0,0-3.86.61c-1.12.28-2.22.55-3.31.88s-2.46.67-4,1a1.86,1.86,0,0,0-1.13.72,3.56,3.56,0,0,0-.45,1.28.33.33,0,0,1,0,.15c-.31,1.31-.64,3.07-1,5.26s-.63,4.13-.85,5.8-.3,2.89-.3,3.65a6.37,6.37,0,0,0,.06.85,2.75,2.75,0,0,1,0,.48.9.9,0,0,1-.15.64.48.48,0,0,1-.4.21.44.44,0,0,1-.21,0,.88.88,0,0,1-.45-.63,20.35,20.35,0,0,1-.31-4.11v-.91c0-2.15.15-4.37.31-6.65s.33-4.1.48-5.47a12.32,12.32,0,0,0-1.76.33l-.85.19-.3.09a3.65,3.65,0,0,1-1,.12h-.18a.66.66,0,0,1-.36-.15.42.42,0,0,1-.25-.31.66.66,0,0,1,0-.24.56.56,0,0,1,.28-.49,3.68,3.68,0,0,1,1-.45c1-.33,2-.64,3-.91a1,1,0,0,0,.88-.88c.09-.52.33-1.55.67-3.13s.69-3.1,1.09-4.62a13.37,13.37,0,0,1,.88-2.76C159.77,127.88,159.74,127.84,159.68,127.84Z"/><path class="cls-4" d="M187,134a22.28,22.28,0,0,0-5.62,10.39c0,.15-.09.34-.12.52a.86.86,0,0,1-.79.64h-.06a1,1,0,0,1-1-.61,4.69,4.69,0,0,1-.3-1.46v-.18c0-.46,0-.91,0-1.34a25.45,25.45,0,0,1,.18-3,.83.83,0,0,0,0-.27v-.15a.37.37,0,0,0-.24.15,1.07,1.07,0,0,0-.12.27l-.06.13c-.7,1.3-1.46,2.58-2.28,3.82a9.17,9.17,0,0,1-1.34,1.55,3.58,3.58,0,0,1-1.15.79,2.35,2.35,0,0,1-.85.19,1.78,1.78,0,0,1-1.52-1,4.32,4.32,0,0,1-.58-2.18v-.64a14.74,14.74,0,0,1,2.22-7.87,3.56,3.56,0,0,1,1.06-1.16,2.1,2.1,0,0,1,.4-.18,1.35,1.35,0,0,1,.24-.06,1,1,0,0,1,.39.12.88.88,0,0,1,.4.76v.12a2.8,2.8,0,0,1-.3,1.31,7,7,0,0,1-2.16,2.73,1.51,1.51,0,0,0-.67,1.1.44.44,0,0,0,0,.21c-.12.7-.21,1.28-.24,1.73a8.52,8.52,0,0,0-.09,1,7,7,0,0,0,.12,1.36c.12.88.42,1.31.91,1.31a1.94,1.94,0,0,0,1.12-.55,10.65,10.65,0,0,0,1.76-2,32.64,32.64,0,0,0,2.19-3.65c.09-.15.18-.33.27-.51.83-1.49,1.58-3,2.28-4.53a4.85,4.85,0,0,1,.64-.88.54.54,0,0,1,.43-.21.44.44,0,0,1,.21,0,.61.61,0,0,1,.42.51v.18a2,2,0,0,1-.06.58v0c-.12.64-.24,1.31-.39,2-.27,1.3-.52,2.64-.7,4a.33.33,0,0,1,0,.15.83.83,0,0,0,0,.27,1.34,1.34,0,0,0,0,.34,1,1,0,0,0,.21-.25c0-.09.09-.18.12-.27s0-.12.07-.15a19.48,19.48,0,0,1,3.7-5.35,11.14,11.14,0,0,1,1.64-1.49A1.6,1.6,0,0,1,188,132h0c.15,0,.21.06.21.21a.9.9,0,0,1-.12.46,1.87,1.87,0,0,1-.27.36A9.11,9.11,0,0,0,187,134Zm-12.88.61a3.09,3.09,0,0,0-.49,1.58,12.27,12.27,0,0,0,1-1.31,4.06,4.06,0,0,0,.55-1.58A3.8,3.8,0,0,0,174.08,134.59Z"/><path class="cls-4" d="M191.94,136.9l-.09.18a57.76,57.76,0,0,0-2.8,6.65c-.21.58-.42,1.19-.64,1.77a3.38,3.38,0,0,1-.36.63.68.68,0,0,1-.58.34h-.09c-.24,0-.42-.21-.58-.52a3.15,3.15,0,0,1-.18-1.06v-.4A28.61,28.61,0,0,1,189,133.28a8.39,8.39,0,0,1,.4-.79.56.56,0,0,1,.45-.3c.06,0,.09,0,.15,0a.64.64,0,0,1,.52.55,3.3,3.3,0,0,1-.15.94l-.06.18c-.15.52-.31,1-.46,1.52-.3,1.06-.61,2.1-.88,3.16a37.49,37.49,0,0,0-.79,4.07.11.11,0,0,0,0,.09.83.83,0,0,0,0,.27.88.88,0,0,0,.06.28,1.81,1.81,0,0,0,.24-.24c0-.1.07-.19.1-.28l.06-.18c.79-2,1.64-4,2.58-5.86a14.52,14.52,0,0,1,1.34-2.25,3.79,3.79,0,0,1,.45-.55,1.06,1.06,0,0,1,.55-.24c.24,0,.42.21.55.61a2.27,2.27,0,0,1,0,.45,2,2,0,0,1-.07.64v0c0,.42-.09.85-.12,1.25-.12,1-.24,2.06-.36,3.12v1.34a2.7,2.7,0,0,0,.3-.27,1.08,1.08,0,0,0,.15-.28l.07-.12c.15-.27.3-.57.45-.85.46-.88,1-1.76,1.49-2.61a5.6,5.6,0,0,1,.55-.82,1.22,1.22,0,0,1,.3-.27.35.35,0,0,1,.27-.13c.06,0,.12,0,.19,0a.84.84,0,0,1,.39.28,2.5,2.5,0,0,1,.12.45c0,.28.09.55.12.82a2,2,0,0,1,0,.4.33.33,0,0,1,0,.15,1.21,1.21,0,0,0,.06.34c.1.36.22.54.43.54a.78.78,0,0,0,.4-.18,7,7,0,0,0,.75-.82c.28-.33.52-.64.76-1a3.31,3.31,0,0,0,.37-.49c.09-.12.15-.21.24-.24a.33.33,0,0,1,.15,0s0,0,.06,0v0a.73.73,0,0,1-.12.33,11.13,11.13,0,0,1-1.21,1.8,5.21,5.21,0,0,1-1.25,1.24,1.2,1.2,0,0,1-.45.09,1,1,0,0,1-.82-.51,2.94,2.94,0,0,1-.28-1,.38.38,0,0,0,0-.18v-.24a1.44,1.44,0,0,0-.12-.58,1.35,1.35,0,0,0-.46.55l-.09.18c-.51.88-1,1.76-1.39,2.67-.13.22-.25.46-.37.7a11.11,11.11,0,0,1-.7,1.28,1,1,0,0,1-.82.51H193a.56.56,0,0,1-.42-.3,2.2,2.2,0,0,1-.22-.49,3.31,3.31,0,0,1-.06-.54v-.09c0-.46,0-.92,0-1.37,0-1.06.06-2.13.15-3.19v-.67A1.34,1.34,0,0,0,191.94,136.9Z"/><path class="cls-4" d="M203.33,142.25a6.35,6.35,0,0,1-1.61,1.09,2.75,2.75,0,0,1-.88.18c-.76,0-1.25-.45-1.49-1.4a4.91,4.91,0,0,1-.09-.94,4.5,4.5,0,0,1,.12-1.09,11.75,11.75,0,0,1,2.43-5.5,4,4,0,0,1,1.28-1.12,1.26,1.26,0,0,1,.39-.19l.21-.06a.62.62,0,0,1,.37.15.5.5,0,0,1,.21.34V134a1.34,1.34,0,0,1,0,.34,7.1,7.1,0,0,1-.36,1,9.35,9.35,0,0,1-2.53,3.43,1.15,1.15,0,0,0-.42.76,6.39,6.39,0,0,0-.18,1.52,3.82,3.82,0,0,0,0,.58q.14.54.54.54a1.47,1.47,0,0,0,.58-.15,8.39,8.39,0,0,0,2.13-1.55c.82-.73,1.58-1.49,2.31-2.25l1.52-1.64a1.8,1.8,0,0,1,.18-.21,1,1,0,0,1,.24-.18c.09,0,.12-.06.15-.06s0,0,0,.06v0a.93.93,0,0,1-.15.33A33.6,33.6,0,0,1,203.33,142.25Zm-.46-6.66a2.71,2.71,0,0,0,.46-1.37,7.41,7.41,0,0,0-1.58,2.77A5.27,5.27,0,0,0,202.87,135.59Z"/><path class="cls-4" d="M209.22,137.69a10.41,10.41,0,0,0-.79,2.55,10,10,0,0,0-.18,1.49,3.22,3.22,0,0,0,.3,1.49,3.8,3.8,0,0,0,1.61-1.31,27.15,27.15,0,0,0,1.86-2.43c.57-.88,1.06-1.58,1.39-2.1l.28-.39a.11.11,0,0,1,0-.09l.36-.55a.57.57,0,0,1,.28-.21.51.51,0,0,1,.15-.06s.06,0,.09.06a.1.1,0,0,1,0,.06.6.6,0,0,1-.09.24c-1.34,2.46-2.8,4.83-4.35,7.17a4.09,4.09,0,0,1-1,1.1,1.94,1.94,0,0,1-1.09.39,1.68,1.68,0,0,1-1.34-.82,3.61,3.61,0,0,1-.54-1.91v-.09a12.09,12.09,0,0,1,2.76-7.66,3.77,3.77,0,0,1,1.79-1.25,2.1,2.1,0,0,1,.58-.09.85.85,0,0,1,.82.52,1.76,1.76,0,0,1,.06.39,1.58,1.58,0,0,1-.12.64,1.41,1.41,0,0,1-.55.79.59.59,0,0,1-.3.06.44.44,0,0,1-.21,0,1.74,1.74,0,0,1-.4-.3l-.06-.06A8.88,8.88,0,0,0,209.22,137.69Z"/><path class="cls-4" d="M215.45,139a19.7,19.7,0,0,0,1.7-2.37l.12-.18.18-.3c.43-.67.88-1.31,1.37-2,0,0,0,0,0,0a2.48,2.48,0,0,1,.58-.54.73.73,0,0,1,.39-.12.57.57,0,0,1,.25.06.57.57,0,0,1,.3.51c0,.09,0,.21,0,.31a2.08,2.08,0,0,1-.09.6l-.24,1.1c-.31,1.37-.55,2.76-.73,4.16a.59.59,0,0,0,0,.21c-.09.52-.12.91-.15,1.22v.61a8.21,8.21,0,0,0,.09,1.21v.12c0,.09,0,.18.06.28a.32.32,0,0,0,.18.21.18.18,0,0,0,.12,0c.06,0,.09,0,.15-.06a.85.85,0,0,0,.25-.21l.09-.1a11.57,11.57,0,0,0,1.94-2.46,62.24,62.24,0,0,0,3.65-6.56l.67-1.34c1-2.09,2.09-4.16,3.19-6.16a.18.18,0,0,0,0-.12c0-.19-.25-.31-.7-.34a8.34,8.34,0,0,0-.91-.06c-.37,0-.76,0-1.22.06-.88.06-1.82.15-2.76.24s-1.46.16-2,.19-.82.06-1.06.06a3,3,0,0,1-.55,0,1.31,1.31,0,0,1-.51-.19c-.34-.18-.52-.36-.55-.57v-.37a2.12,2.12,0,0,1,.24-.94,1.67,1.67,0,0,1,.82-.7.71.71,0,0,1,.24-.06.55.55,0,0,1,.22.06,1.61,1.61,0,0,1,.33.28c.09.12.12.21.15.24a2.61,2.61,0,0,0,1.16.18c.67,0,1.36,0,2,0h1.07l3-.09c.94,0,1.54,0,1.82-.06a1,1,0,0,0,.82-.49,8.27,8.27,0,0,1,1.27-1.55l.43-.36a1.54,1.54,0,0,1,.64-.21.89.89,0,0,1,.3.06,1.13,1.13,0,0,1,.61.76,2.73,2.73,0,0,1,.06.73v.24a1.13,1.13,0,0,0,0,.3.64.64,0,0,0,0,.25.28.28,0,0,0,.3.18H235c1.92-.09,3.8-.12,5.66-.12H243c1.63,0,3.34,0,5-.09a1,1,0,0,1,.64.15.48.48,0,0,1,.12.3.22.22,0,0,1-.06.18c-.09.16-.34.22-.67.25-3.62.09-7.2.33-10.76.7l-1.39.12c-.16,0-.28,0-.4.06l-.91.06a.52.52,0,0,0-.58.48c-.12.55-.24,1.1-.39,1.65-.43,1.67-.82,3.34-1.19,5a82.33,82.33,0,0,0-1.76,17v.58c0,.73,0,1.46,0,2.22,0,1,0,1.91,0,2.88s0,1.95,0,2.92v.12a6.58,6.58,0,0,1-.18,1.52c-.12,0-.21-.06-.25-.15a1.13,1.13,0,0,1-.12-.28.11.11,0,0,0,0-.09,11.88,11.88,0,0,1-.39-1.79,32,32,0,0,1-.52-4.19c-.09-1.4-.18-2.8-.21-4.19,0-1-.06-1.86-.06-2.77a67.58,67.58,0,0,1,.67-9.66,69.47,69.47,0,0,1,2.21-10.24,1.14,1.14,0,0,0,.1-.42.34.34,0,0,0-.16-.31.38.38,0,0,0-.18,0,.9.9,0,0,0-.42.12,1.62,1.62,0,0,0-.61.61c-.88,1.43-1.7,2.92-2.49,4.41s-1.55,3-2.31,4.55a60.56,60.56,0,0,1-3,5.56,14.4,14.4,0,0,1-1.67,2.25,3.08,3.08,0,0,1-1,.82,1.64,1.64,0,0,1-.67.18,1.2,1.2,0,0,1-1.06-.73,3.94,3.94,0,0,1-.37-1.48c0-.31,0-.58,0-.89a16.9,16.9,0,0,1,.46-3.94c.09-.46.21-1,.33-1.4.06-.28.12-.58.18-.88a.64.64,0,0,0,0-.25.75.75,0,0,0,0-.24l-.24.36c-.21.31-.46.61-.67.95a5.92,5.92,0,0,0-.51.76c-.43.67-.89,1.33-1.37,2a5.43,5.43,0,0,1-1.31,1.31,1.8,1.8,0,0,1-.61.36,1,1,0,0,1-.39.06,1.21,1.21,0,0,1-.52-.12,1.09,1.09,0,0,1-.57-.61,1.85,1.85,0,0,1-.13-.73v-.18a2.86,2.86,0,0,1,.13-.91,9,9,0,0,1,1.58-3.31,3.64,3.64,0,0,1,.85-.91,1.71,1.71,0,0,1,1.09-.37h.09a1,1,0,0,1,1,.55,1.11,1.11,0,0,1,.12.43c0,.06,0,.09,0,.15a2.66,2.66,0,0,1-.24.51,1.46,1.46,0,0,0-.09.13.23.23,0,0,1-.15.06.31.31,0,0,1-.12-.1.23.23,0,0,1-.06-.15v0c0-.09,0-.15-.06-.24a.22.22,0,0,0-.22-.12h-.06a.34.34,0,0,0-.24.09.4.4,0,0,0-.18.21l-.09.12-.37.64c-.42.94-.82,1.89-1.15,2.86v.06a2.07,2.07,0,0,1-.09.24v.18a.8.8,0,0,0,0,.25A3.85,3.85,0,0,0,215.45,139Zm17.13-14.37a.67.67,0,0,0-.09.19h0s0,0,0,0h0c.13,0,.19-.09.19-.22v-.09A.47.47,0,0,0,232.58,124.59Z"/><path class="cls-8" d="M150.63,41.18l17-.11s1.38,1.84-1.1,2.13-11.15.91-14.05.6S150.63,41.18,150.63,41.18Z"/></svg>