<svg id="Layer_1" data-name="Layer 1" xmlns="http://www.w3.org/2000/svg" viewBox="0 0 300 192.7"><defs><style>.cls-1{fill:#1799d5;}.cls-2{fill:#0c4762;}.cls-3{fill:#a0c6e9;}.cls-4{fill:#3282c4;}</style></defs><path class="cls-1" d="M128.56,50.07a3.17,3.17,0,0,1-3.17-3.17,9.5,9.5,0,0,1,9.51-9.51,3.17,3.17,0,0,1,0,6.34,3.17,3.17,0,0,0-3.17,3.17A3.17,3.17,0,0,1,128.56,50.07Z"/><path class="cls-2" d="M146.54,53.24a3.17,3.17,0,0,1-3.17-3.17,12.67,12.67,0,0,1,12.68-12.68,3.17,3.17,0,0,1,0,6.34,6.34,6.34,0,0,0-6.34,6.34A3.17,3.17,0,0,1,146.54,53.24Z"/><path class="cls-2" d="M190.19,88.4l-4.86-1.67a162.59,162.59,0,0,1-30.82-14.35l-17-10.23V55.43a2.17,2.17,0,0,0-2.17-2.17,6.41,6.41,0,0,1-6.43-6.54,6.59,6.59,0,0,1,6.63-6.53,6.44,6.44,0,0,1,6,4.07,2.18,2.18,0,1,0,4-1.64,10.79,10.79,0,0,0-10-6.78,11,11,0,0,0-11,10.88,10.72,10.72,0,0,0,8.6,10.67v4.76L116.06,72.38A162,162,0,0,1,85.24,86.73L80.38,88.4a13.25,13.25,0,0,0,4.33,25.8H185.86a13.25,13.25,0,0,0,4.33-25.8Zm-4.33,21.45H84.71a8.92,8.92,0,0,1-2.92-17.37l4.87-1.66A166.85,166.85,0,0,0,118.29,76.1l17-10.19,17,10.2a167,167,0,0,0,31.64,14.73l4.86,1.67a8.9,8.9,0,0,1-2.92,17.34Z"/><path class="cls-1" d="M212.55,91.55h0a13.18,13.18,0,0,0-5.06-3.15l-4.86-1.67A161.89,161.89,0,0,1,171.8,72.39L154.75,62.15V55.43a2.19,2.19,0,0,0-2.18-2.18,6.4,6.4,0,0,1-6.43-6.53,6.59,6.59,0,0,1,6.63-6.53,6.46,6.46,0,0,1,6,4.07,2.17,2.17,0,0,0,4-1.64,10.79,10.79,0,0,0-10-6.77,10.94,10.94,0,0,0-11,10.87,10.72,10.72,0,0,0,8.6,10.67v4.76l-17,10.24a162.18,162.18,0,0,1-30.81,14.34L97.67,88.4a13.24,13.24,0,0,0-.56,24.89,12.8,12.8,0,0,0,4.88.91H203.15a13.24,13.24,0,0,0,9.4-22.65ZM212,102.44a8.9,8.9,0,0,1-8.86,7.41H102a8.92,8.92,0,0,1-2.93-17.37l4.88-1.66A167.14,167.14,0,0,0,135.57,76.1l17-10.19,17,10.2a167.8,167.8,0,0,0,31.63,14.73l1.06.37,3.82,1.3A8.94,8.94,0,0,1,212,102.44Z"/><path class="cls-3" d="M250.9,139.55a3.45,3.45,0,0,1-1.86,3.07c-.48.26,0,.64-.58.64H54.16a3.48,3.48,0,0,1-3.52-3.42c0-.21,0-.41,0-.62A31.49,31.49,0,0,1,65.35,119c6.8-4,15.3-5,24.24-.25A36.74,36.74,0,0,1,93,120.83c.63.43,1.24.89,1.88,1.38A46.62,46.62,0,0,1,99,125.87a19.64,19.64,0,0,1,3.15-11.05c.13-.23.28-.41.41-.62a18.58,18.58,0,0,1,4.41-4.35c6.65-4.73,16.33-5.4,24.44-1.34,0-17.39,33.64-24.34,44.07-10.45A39.71,39.71,0,0,1,190,92.48a79.18,79.18,0,0,1,12.21-1.27c1.51-.07,3-.09,4.49-.09a40.51,40.51,0,0,1,5.79.43h0c13.7,2,27.61,11.13,34.68,27.38a54.21,54.21,0,0,1,3.44,11C251.34,133,250.72,136.08,250.9,139.55Z"/><circle class="cls-4" cx="201.71" cy="118.81" r="38.05"/><path class="cls-1" d="M176.34,122a3.17,3.17,0,0,1-3.17-3.17,28.54,28.54,0,0,1,28.54-28.54,3.18,3.18,0,0,1,0,6.35,22.18,22.18,0,0,0-22.19,22.19A3.18,3.18,0,0,1,176.34,122Z"/><path class="cls-1" d="M68.56,141.13a8.32,8.32,0,0,1-2.1,4.1,12,12,0,0,1-8.34,4.11,7.37,7.37,0,0,1-6.11-3,7.23,7.23,0,0,1-1.84-4.58,3.31,3.31,0,0,1,.08-.72l4.2-26.61c.08-.57.59-1,1.5-1.41a5,5,0,0,1,1.85-.43,3.8,3.8,0,0,1,1.81.48c.72.34,1,.78,1,1.33l-.77,4.87a8.4,8.4,0,0,1,3.2-.65,10.85,10.85,0,0,1,2,.22,7,7,0,0,1,4.13,2.71,7.41,7.41,0,0,1,1.79,4.64,4,4,0,0,1,0,.65Zm-6-.3,2.13-13.64a1.81,1.81,0,0,0-.86-1.63,3,3,0,0,0-1.83-.81,4,4,0,0,0-2.17.79,2.65,2.65,0,0,0-1.32,1.69l-2.18,13.56a1.86,1.86,0,0,0,.85,1.67,3,3,0,0,0,1.88.81,4.2,4.2,0,0,0,2.13-.79A2.63,2.63,0,0,0,62.59,140.83Z"/><path class="cls-1" d="M89.77,141.13a8,8,0,0,1-2.13,4.06,11.05,11.05,0,0,1-3.6,2.87,11.18,11.18,0,0,1-4.74,1.28,8,8,0,0,1-7.92-7.53,4.3,4.3,0,0,1,.05-.72l3.25-20.53c.08-.52.54-1,1.36-1.37a4.33,4.33,0,0,1,2-.52,3.9,3.9,0,0,1,1.67.47c.79.4,1.15.86,1.06,1.37l-3.21,20.32a1.85,1.85,0,0,0,.69,1.62,2.72,2.72,0,0,0,2,.82,4.22,4.22,0,0,0,2.17-.79,2.63,2.63,0,0,0,1.36-1.69L87,120.56c.08-.52.54-1,1.36-1.37a4.53,4.53,0,0,1,2-.52,3.8,3.8,0,0,1,1.75.47c.74.4,1.07.86,1,1.37Z"/><path class="cls-1" d="M110.7,121.61a7,7,0,0,0-4.13-2.72,10.13,10.13,0,0,0-2-.22,8.26,8.26,0,0,0-3.18.65l1.16-6.68.05-.37a.53.53,0,0,0,0-.25c0-.42-.33-.8-.94-1.08a4,4,0,0,0-1.81-.48,5,5,0,0,0-1.84.43l-.47.22a1.65,1.65,0,0,0-1,1.19l-1.66,9.91-3,18.87a2.19,2.19,0,0,0-.09.73,5.54,5.54,0,0,0,.18,1.45,8.24,8.24,0,0,0,1.66,3.13,7.33,7.33,0,0,0,6.1,2.94,11.31,11.31,0,0,0,4.71-1.26,11.46,11.46,0,0,0,3.63-2.83,10,10,0,0,0,1.38-2,6.79,6.79,0,0,0,.73-2.14l2.27-14.24a5.12,5.12,0,0,0,0-.63A7.37,7.37,0,0,0,110.7,121.61ZM98.82,142.46a1.83,1.83,0,0,1-.84-1.67l2.18-13.56a2.58,2.58,0,0,1,1.32-1.69,4.07,4.07,0,0,1,2.16-.8,3,3,0,0,1,1.85.82,1.75,1.75,0,0,1,.83,1.62l-2.12,13.64a2.61,2.61,0,0,1-1.36,1.66,4.23,4.23,0,0,1-2.14.78A3,3,0,0,1,98.82,142.46Z"/><path class="cls-1" d="M130.88,141.13a8.32,8.32,0,0,1-2.1,4.1,11.25,11.25,0,0,1-3.63,2.83,11.14,11.14,0,0,1-4.71,1.28,7.38,7.38,0,0,1-6.12-3,7.29,7.29,0,0,1-1.84-4.58,2.78,2.78,0,0,1,.09-.72l4.19-26.61c.09-.57.59-1,1.51-1.41a5,5,0,0,1,1.85-.43,3.86,3.86,0,0,1,1.81.48c.71.34,1,.78.94,1.33l-.76,4.87a8.35,8.35,0,0,1,3.19-.65,10.76,10.76,0,0,1,2,.22,7.09,7.09,0,0,1,4.14,2.71,7.41,7.41,0,0,1,1.79,4.64,3.91,3.91,0,0,1-.05.65Zm-6-.3L127,127.19a1.8,1.8,0,0,0-.85-1.63,3,3,0,0,0-1.83-.81,4,4,0,0,0-2.17.79,2.58,2.58,0,0,0-1.32,1.69l-2.18,13.56a1.84,1.84,0,0,0,.85,1.67,3,3,0,0,0,1.88.81,4.26,4.26,0,0,0,2.13-.79A2.61,2.61,0,0,0,124.9,140.83Z"/><path class="cls-1" d="M146.78,146.28a3.29,3.29,0,0,1-1.66,2.72,7.91,7.91,0,0,1-2.83.34,16.85,16.85,0,0,1-3.16-.21,7.39,7.39,0,0,1-4.15-2.74,7.26,7.26,0,0,1-1.8-4.62,2.59,2.59,0,0,1,.09-.68l4.19-26.61c.09-.57.59-1,1.51-1.41a5,5,0,0,1,1.85-.43,3.86,3.86,0,0,1,1.81.48c.71.34,1,.78.94,1.33l-4.2,26.38c-.06.37.2.91.77,1.64.34.45,2.1.71,5.28.8a1.5,1.5,0,0,1,1.24,1.16A3.58,3.58,0,0,1,146.78,146.28Z"/><path class="cls-1" d="M163.81,146.9a10.58,10.58,0,0,1-6.54,2.44,8,8,0,0,1-7.92-7.53,4.3,4.3,0,0,1,.05-.72l2.22-14.16a8.19,8.19,0,0,1,2.14-4.11,12.06,12.06,0,0,1,3.63-2.86,10.81,10.81,0,0,1,4.71-1.29,7.52,7.52,0,0,1,7.82,7.83,9.72,9.72,0,0,1-3.76,7.87,13,13,0,0,1-8.43,2.82h-1.62a12.91,12.91,0,0,0-.47,3.12c0,2,.85,3,2.57,3a3.6,3.6,0,0,0,3.46-2.48,8.17,8.17,0,0,1,.47-1.5,3.29,3.29,0,0,1,3.08-1.37c1.77,0,2.65.66,2.65,2a7.5,7.5,0,0,1-1.28,3.93A11.37,11.37,0,0,1,163.81,146.9Zm0-19a2.65,2.65,0,0,0-2.62-3.12,4.05,4.05,0,0,0-2.19.79,2.61,2.61,0,0,0-1.33,1.69l-.58,3.72h3.76a2.7,2.7,0,0,0,1.82-1.11A4.14,4.14,0,0,0,163.77,127.87Z"/><path class="cls-1" d="M187.76,141.13a8.32,8.32,0,0,1-2.1,4.1,12,12,0,0,1-8.34,4.11,7.37,7.37,0,0,1-6.11-3,7.23,7.23,0,0,1-1.84-4.58,3.31,3.31,0,0,1,.08-.72l4.2-26.61q.12-.86,1.5-1.41a5,5,0,0,1,1.85-.43,3.86,3.86,0,0,1,1.81.48c.71.34,1,.78.95,1.33l-.77,4.87a8.35,8.35,0,0,1,3.19-.65,10.67,10.67,0,0,1,2,.22,7.06,7.06,0,0,1,4.14,2.71,7.41,7.41,0,0,1,1.79,4.64,5.64,5.64,0,0,1,0,.65Zm-6-.3,2.12-13.64a1.78,1.78,0,0,0-.85-1.63,3,3,0,0,0-1.83-.81,4,4,0,0,0-2.17.79,2.58,2.58,0,0,0-1.32,1.69l-2.18,13.56a1.86,1.86,0,0,0,.85,1.67,3,3,0,0,0,1.88.81,4.2,4.2,0,0,0,2.13-.79A2.63,2.63,0,0,0,181.79,140.83Z"/><path class="cls-1" d="M209,141.13a7.94,7.94,0,0,1-2.14,4.06,10.92,10.92,0,0,1-3.59,2.87,11.18,11.18,0,0,1-4.74,1.28,8,8,0,0,1-7.92-7.53,4.3,4.3,0,0,1,0-.72l2.22-14.16a8.19,8.19,0,0,1,2.14-4.11,12.06,12.06,0,0,1,3.63-2.86,10.81,10.81,0,0,1,4.71-1.29,11,11,0,0,1,2,.22,6.86,6.86,0,0,1,4.12,2.71,7.41,7.41,0,0,1,1.82,4.64,2.69,2.69,0,0,1-.08.65Zm-6-.3,2.13-13.64a1.79,1.79,0,0,0-.86-1.63,3,3,0,0,0-1.84-.81,4.11,4.11,0,0,0-2.2.79,2.61,2.61,0,0,0-1.33,1.69l-2.13,13.55a1.88,1.88,0,0,0,.84,1.7,3.05,3.05,0,0,0,1.87.79,4.22,4.22,0,0,0,2.17-.79A2.66,2.66,0,0,0,203,140.83Z"/><path class="cls-1" d="M229.16,147.2a8.33,8.33,0,0,1-2.09,4.11,11.29,11.29,0,0,1-3.64,2.82,11,11,0,0,1-4.7,1.28,7.78,7.78,0,0,1-5.59-2.18,7.25,7.25,0,0,1-2.28-5.47,7.83,7.83,0,0,1,.08-1.24c.26-1.68,1.39-2.53,3.4-2.53a4,4,0,0,1,1.57.35c.65.25,1,.61,1,1.07v1.45a2.42,2.42,0,0,0,.88,1.73,2.67,2.67,0,0,0,1.82.75,4.07,4.07,0,0,0,2.17-.81,2.67,2.67,0,0,0,1.35-1.67l.58-3.64c-1.11,0-2.79-.1-5-.3a6.92,6.92,0,0,1-4.13-2.69,7.38,7.38,0,0,1-1.81-4.66,4.25,4.25,0,0,1,0-.69l2.27-14.32c.08-.55.58-1,1.48-1.42a5,5,0,0,1,1.83-.47,3.79,3.79,0,0,1,1.74.47c.73.4,1.06.86,1,1.37l-2.19,14.12c0,.34.18.83.71,1.47s1,1,1.35,1h3.77l2.62-16.51c.08-.57.52-1,1.32-1.42a4.69,4.69,0,0,1,2-.47,3.8,3.8,0,0,1,1.75.47c.74.4,1.07.86,1,1.37Z"/><path class="cls-1" d="M240.2,149.34a7.78,7.78,0,0,1-5.57-2.2,7.24,7.24,0,0,1-2.3-5.46,7.91,7.91,0,0,1,.08-1.24q.39-2.52,3.42-2.52a3.91,3.91,0,0,1,1.54.34c.69.26,1,.59,1.07,1,0,1,.06,1.62.09,1.79a2.31,2.31,0,0,0,.81,1.5,2.77,2.77,0,0,0,1.8.73,3.54,3.54,0,0,0,2.35-.92,3.46,3.46,0,0,0,1.24-2.21,2.84,2.84,0,0,0-.37-2,2.15,2.15,0,0,0-1.6-1l-2.22-.34a11,11,0,0,1-2.35-.65,5.7,5.7,0,0,1-2.91-3,9,9,0,0,1-.94-4.1,10,10,0,0,1,3.8-7.7,10.3,10.3,0,0,1,6.89-2.7,7.78,7.78,0,0,1,5.58,2.19,7.24,7.24,0,0,1,2.29,5.47,7.76,7.76,0,0,1-.09,1.24c-.25,1.68-1.4,2.52-3.42,2.52-1.57,0-2.45-.45-2.65-1.36v-1.5a2.29,2.29,0,0,0-.81-1.76,2.72,2.72,0,0,0-1.84-.72,3.39,3.39,0,0,0-2.33.94,3.79,3.79,0,0,0-1.27,2.18,2.89,2.89,0,0,0,.39,2,1.94,1.94,0,0,0,1.58,1l2.61.3a7,7,0,0,1,4.28,2.74,8.16,8.16,0,0,1,1.58,5,9.85,9.85,0,0,1-3.29,7.31A10.49,10.49,0,0,1,240.2,149.34Z"/></svg>