<?xml version="1.0" encoding="utf-8"?>
<!-- Generator: Adobe Illustrator 27.0.1, SVG Export Plug-In . SVG Version: 6.00 Build 0)  -->
<svg version="1.1" id="Layer_1" xmlns="http://www.w3.org/2000/svg" xmlns:xlink="http://www.w3.org/1999/xlink" x="0px" y="0px"
	 viewBox="0 0 350 293.5" style="enable-background:new 0 0 350 293.5;" xml:space="preserve">
<style type="text/css">
	.st0{opacity:0.85;enable-background:new    ;}
	.st1{fill:#D069A9;}
	.st2{enable-background:new    ;}
	.st3{fill:#54B948;}
	.st4{fill:#008BCE;}
	.st5{fill:#838A97;}
	.st6{fill:#8967AC;}
	.st7{fill:#54C2BA;}
	.st8{fill:#FFD105;}
</style>
<g id="Layer_2_00000088821244678047186320000009053267712810407344_">
	<g id="Layer_1-2">
		<g class="st0">
			<path class="st1" d="M267.7,255.3v2.4c0.2-0.1,0.5-0.3,0.8-0.4c0.3-0.1,0.9-0.2,1.5-0.2c0.5,0,1,0.1,1.5,0.2
				c0.5,0.1,0.9,0.3,1.2,0.5c0.4,0.2,0.6,0.5,0.8,0.9c0.2,0.4,0.3,0.8,0.3,1.3v3c0,0.5-0.1,0.9-0.3,1.3s-0.5,0.7-0.8,0.9
				c-0.3,0.2-0.8,0.4-1.2,0.6c-0.5,0.1-1,0.2-1.6,0.2c-0.6,0-1.1-0.1-1.6-0.2s-0.9-0.3-1.2-0.6c-0.3-0.3-0.6-0.6-0.8-0.9
				c-0.2-0.4-0.3-0.8-0.3-1.2v-7.7H267.7z M267.7,260.1v3c0,0.2,0.1,0.4,0.2,0.6s0.3,0.3,0.5,0.5c0.2,0.1,0.5,0.2,0.7,0.3
				c0.3,0.1,0.6,0.1,0.9,0.1c0.3,0,0.6,0,0.9-0.1c0.3-0.1,0.5-0.2,0.8-0.3c0.2-0.1,0.4-0.3,0.5-0.5c0.1-0.2,0.2-0.4,0.2-0.6v-3
				c0-0.3-0.1-0.5-0.2-0.7s-0.3-0.3-0.5-0.4c-0.2-0.1-0.5-0.2-0.8-0.3c-0.3-0.1-0.6-0.1-0.9-0.1c-0.3,0-0.6,0-0.9,0.1
				s-0.5,0.2-0.8,0.3c-0.2,0.1-0.4,0.3-0.5,0.5C267.8,259.6,267.7,259.8,267.7,260.1z"/>
		</g>
		<g class="st2">
			<path class="st1" d="M276.7,260.1c0-0.9,0.3-1.6,1-2.1c0.7-0.5,1.6-0.8,2.8-0.8h2.1v1.5h-2.1c-0.7,0-1.2,0.1-1.6,0.4
				c-0.4,0.3-0.6,0.6-0.6,1v5.7h-1.6V260.1z"/>
		</g>
		<g class="st2">
			<path class="st1" d="M287.9,257.2c0.5,0,1,0.1,1.5,0.2c0.5,0.1,0.9,0.3,1.2,0.5c0.4,0.2,0.6,0.5,0.8,0.9c0.2,0.4,0.3,0.8,0.3,1.3
				v3c0,0.5-0.1,1-0.3,1.3s-0.5,0.7-0.8,0.9c-0.3,0.2-0.8,0.4-1.2,0.5c-0.5,0.1-1,0.2-1.6,0.2c-0.5,0-1.1-0.1-1.5-0.2
				c-0.5-0.1-0.9-0.3-1.2-0.5s-0.6-0.5-0.8-0.9c-0.2-0.3-0.3-0.8-0.3-1.2c0-0.4,0.1-0.7,0.2-1c0.1-0.3,0.3-0.5,0.6-0.7
				c0.3-0.2,0.6-0.4,0.9-0.5c0.4-0.1,0.8-0.2,1.2-0.2h3.3V260c0-0.2-0.1-0.4-0.2-0.6s-0.3-0.3-0.5-0.4s-0.5-0.2-0.7-0.3
				c-0.3-0.1-0.6-0.1-0.9-0.1c-1,0-1.7,0.3-2.2,0.9l-1.3-0.8c0.4-0.6,0.8-1,1.4-1.2C286.4,257.3,287.1,257.2,287.9,257.2z
				 M290.3,263v-0.7H287c-0.3,0-0.5,0-0.7,0.1c-0.2,0.1-0.3,0.1-0.4,0.2s-0.2,0.2-0.2,0.3c0,0.1-0.1,0.2-0.1,0.3
				c0,0.2,0.1,0.4,0.2,0.6s0.3,0.3,0.5,0.4s0.5,0.2,0.8,0.2c0.3,0,0.6,0.1,0.9,0.1c0.6,0,1-0.1,1.3-0.2c0.3-0.1,0.5-0.3,0.7-0.4
				s0.3-0.3,0.3-0.5C290.3,263.2,290.3,263.1,290.3,263z"/>
			<path class="st1" d="M300.9,260.1c0-0.3-0.1-0.5-0.2-0.7s-0.4-0.3-0.6-0.4s-0.5-0.2-0.8-0.2c-0.3,0-0.5-0.1-0.8-0.1
				c-0.3,0-0.5,0-0.8,0.1c-0.3,0-0.5,0.1-0.8,0.2c-0.2,0.1-0.4,0.3-0.6,0.4s-0.2,0.4-0.2,0.7v5.8h-1.6v-5.8c0-0.5,0.1-0.9,0.3-1.2
				c0.2-0.4,0.5-0.7,0.8-0.9c0.4-0.2,0.8-0.4,1.2-0.6c0.5-0.1,1-0.2,1.5-0.2c0.6,0,1.1,0.1,1.6,0.2s0.9,0.3,1.2,0.6
				c0.4,0.2,0.6,0.5,0.8,0.9s0.3,0.8,0.3,1.2v5.8h-1.6V260.1z"/>
			<path class="st1" d="M313,255.3v7.7c0,0.5-0.1,0.9-0.3,1.2c-0.2,0.4-0.5,0.7-0.8,0.9c-0.3,0.3-0.8,0.4-1.2,0.6
				c-0.5,0.1-1,0.2-1.6,0.2c-0.6,0-1.1-0.1-1.6-0.2c-0.5-0.1-0.9-0.3-1.2-0.6c-0.4-0.2-0.6-0.6-0.8-0.9c-0.2-0.4-0.3-0.8-0.3-1.3v-3
				c0-0.5,0.1-1,0.3-1.3s0.5-0.7,0.8-0.9c0.4-0.2,0.8-0.4,1.2-0.5c0.5-0.1,1-0.2,1.5-0.2c0.7,0,1.2,0.1,1.5,0.2
				c0.4,0.1,0.6,0.2,0.8,0.4v-2.4H313z M311.3,259.5c-0.1-0.2-0.3-0.3-0.5-0.5c-0.2-0.1-0.5-0.2-0.8-0.3s-0.6-0.1-0.9-0.1
				c-0.3,0-0.6,0-0.9,0.1c-0.3,0.1-0.5,0.1-0.8,0.3c-0.2,0.1-0.4,0.3-0.5,0.4c-0.1,0.2-0.2,0.4-0.2,0.7v3c0,0.2,0.1,0.4,0.2,0.6
				c0.1,0.2,0.3,0.3,0.5,0.5c0.2,0.1,0.5,0.2,0.8,0.3c0.3,0.1,0.6,0.1,0.9,0.1c0.3,0,0.6,0,0.9-0.1c0.3-0.1,0.5-0.2,0.7-0.3
				c0.2-0.1,0.4-0.3,0.5-0.5c0.1-0.2,0.2-0.4,0.2-0.6v-3C311.5,259.8,311.4,259.6,311.3,259.5z"/>
			<path class="st1" d="M315.7,255.3h1.6v1.1h-1.6V255.3z M317.3,265.8h-1.6v-8.5h1.6V265.8z"/>
			<path class="st1" d="M326.4,260.1c0-0.3-0.1-0.5-0.2-0.7c-0.2-0.2-0.4-0.3-0.6-0.4s-0.5-0.2-0.8-0.2c-0.3,0-0.5-0.1-0.8-0.1
				c-0.3,0-0.5,0-0.8,0.1c-0.3,0-0.5,0.1-0.8,0.2s-0.4,0.3-0.6,0.4s-0.2,0.4-0.2,0.7v5.8H320v-5.8c0-0.5,0.1-0.9,0.3-1.2
				s0.5-0.7,0.8-0.9c0.4-0.2,0.8-0.4,1.2-0.6c0.5-0.1,1-0.2,1.5-0.2c0.6,0,1.1,0.1,1.6,0.2c0.5,0.1,0.9,0.3,1.2,0.6
				c0.3,0.2,0.6,0.5,0.8,0.9s0.3,0.8,0.3,1.2v5.8h-1.6V260.1z"/>
			<path class="st1" d="M338.5,260.1v6c0,0.5-0.1,0.9-0.3,1.3s-0.5,0.6-0.8,0.9c-0.4,0.2-0.8,0.4-1.2,0.5c-0.5,0.1-1,0.2-1.6,0.2
				c-0.4,0-0.7,0-1.1-0.1c-0.3,0-0.7-0.1-1-0.2c-0.3-0.1-0.6-0.3-0.9-0.5c-0.3-0.2-0.5-0.5-0.8-0.8l1.2-0.9c0.1,0.2,0.3,0.3,0.5,0.4
				c0.2,0.1,0.4,0.2,0.6,0.3s0.5,0.1,0.7,0.2c0.2,0,0.5,0.1,0.7,0.1c0.3,0,0.6,0,0.9-0.1c0.3,0,0.5-0.1,0.8-0.2
				c0.2-0.1,0.4-0.2,0.5-0.4c0.1-0.2,0.2-0.4,0.2-0.6v-0.6c-0.3,0.1-0.7,0.3-1.1,0.4s-0.9,0.2-1.3,0.2c-0.5,0-1-0.1-1.5-0.2
				c-0.5-0.1-0.9-0.3-1.2-0.5c-0.4-0.2-0.6-0.5-0.9-0.9s-0.3-0.8-0.3-1.3v-3c0-0.5,0.1-0.9,0.3-1.3c0.2-0.4,0.5-0.7,0.8-0.9
				s0.8-0.4,1.2-0.6c0.5-0.1,1-0.2,1.5-0.2c0.5,0,1,0.1,1.5,0.2s0.9,0.3,1.2,0.5c0.4,0.2,0.6,0.5,0.9,0.9
				C338.4,259.1,338.5,259.6,338.5,260.1z M336.9,260.1c0-0.3-0.1-0.5-0.2-0.7c-0.1-0.2-0.3-0.3-0.5-0.4c-0.2-0.1-0.5-0.2-0.8-0.3
				c-0.3-0.1-0.6-0.1-0.9-0.1c-0.3,0-0.6,0-0.9,0.1s-0.5,0.2-0.8,0.3c-0.2,0.1-0.4,0.3-0.5,0.5s-0.2,0.4-0.2,0.6v3
				c0,0.2,0.1,0.4,0.2,0.6s0.3,0.3,0.5,0.5s0.5,0.2,0.8,0.3s0.6,0.1,0.9,0.1c0.3,0,0.6,0,0.9-0.1s0.5-0.2,0.8-0.3s0.4-0.3,0.5-0.5
				c0.1-0.2,0.2-0.4,0.2-0.6V260.1z"/>
		</g>
		<g class="st2">
			<path class="st3" d="M42.1,213c0.6,0,1.1,0,1.6,0.1c0.5,0.1,0.9,0.2,1.2,0.4s0.6,0.5,0.8,0.8c0.2,0.3,0.3,0.7,0.3,1.2
				c0,0.5-0.1,0.9-0.3,1.2s-0.5,0.6-0.8,0.8c-0.4,0.2-0.8,0.4-1.2,0.5c-0.5,0.1-1,0.2-1.5,0.2c-1.9,0-3.2-0.6-3.9-1.9l1.3-0.7
				c0.1,0.1,0.2,0.3,0.3,0.4c0.1,0.1,0.3,0.3,0.5,0.4c0.2,0.1,0.5,0.2,0.7,0.3c0.3,0.1,0.6,0.1,1,0.1c0.3,0,0.6,0,0.9-0.1
				c0.3,0,0.5-0.1,0.8-0.2s0.4-0.2,0.5-0.4c0.1-0.2,0.2-0.3,0.2-0.5c0-0.2-0.1-0.4-0.2-0.5c-0.1-0.1-0.3-0.3-0.5-0.3
				c-0.2-0.1-0.5-0.1-0.8-0.2c-0.3,0-0.6-0.1-0.9-0.1c-0.5,0-1,0-1.5-0.1c-0.5-0.1-0.9-0.2-1.2-0.4c-0.4-0.2-0.6-0.5-0.8-0.8
				s-0.3-0.7-0.3-1.2c0-0.5,0.1-0.9,0.3-1.2s0.5-0.6,0.8-0.8c0.4-0.2,0.8-0.4,1.2-0.4c0.5-0.1,1-0.1,1.5-0.1c0.9,0,1.6,0.1,2.1,0.4
				s1.1,0.7,1.5,1.4l-1.4,0.8c-0.2-0.4-0.5-0.7-0.9-0.8c-0.4-0.2-0.8-0.2-1.4-0.2c-0.3,0-0.6,0-0.9,0.1c-0.3,0-0.5,0.1-0.8,0.2
				c-0.2,0.1-0.4,0.2-0.5,0.4c-0.1,0.1-0.2,0.3-0.2,0.5c0,0.2,0.1,0.4,0.2,0.5s0.3,0.2,0.5,0.3c0.2,0.1,0.5,0.1,0.8,0.2
				C41.5,213,41.8,213,42.1,213z"/>
		</g>
		<g class="st2">
			<path class="st3" d="M52.9,216.6h1.6v1.5h-1.6c-0.6,0-1.1-0.1-1.5-0.2s-0.9-0.3-1.2-0.5c-0.3-0.2-0.6-0.5-0.8-0.9
				c-0.2-0.4-0.3-0.8-0.3-1.2v-4.4H48v-1.2h1.2v-1.3h1.6v1.3h2.4v1.2h-2.4v4.4c0,0.4,0.2,0.8,0.6,1
				C51.7,216.5,52.3,216.6,52.9,216.6z"/>
		</g>
		<g class="st2">
			<path class="st3" d="M56.1,215.2v-2.9c0-0.5,0.1-0.9,0.3-1.3c0.2-0.4,0.5-0.7,0.8-0.9c0.4-0.2,0.8-0.4,1.2-0.6
				c0.5-0.1,1-0.2,1.5-0.2s1.1,0.1,1.5,0.2c0.5,0.1,0.9,0.3,1.2,0.6c0.4,0.2,0.6,0.6,0.8,0.9c0.2,0.4,0.3,0.8,0.3,1.3v2.9
				c0,0.5-0.1,0.9-0.3,1.3c-0.2,0.4-0.5,0.7-0.8,0.9c-0.4,0.3-0.8,0.4-1.2,0.6c-0.5,0.1-1,0.2-1.5,0.2s-1.1-0.1-1.5-0.2
				c-0.5-0.1-0.9-0.3-1.2-0.6c-0.4-0.3-0.6-0.6-0.8-0.9C56.2,216.1,56.1,215.7,56.1,215.2z M57.6,215.2c0,0.2,0.1,0.5,0.2,0.6
				c0.1,0.2,0.3,0.3,0.5,0.5c0.2,0.1,0.5,0.2,0.8,0.3c0.3,0.1,0.6,0.1,0.9,0.1s0.6,0,0.9-0.1c0.3-0.1,0.5-0.2,0.8-0.3
				c0.2-0.1,0.4-0.3,0.5-0.5c0.1-0.2,0.2-0.4,0.2-0.6v-2.9c0-0.2-0.1-0.4-0.2-0.6s-0.3-0.3-0.5-0.5s-0.5-0.2-0.8-0.3
				c-0.3-0.1-0.6-0.1-0.9-0.1s-0.6,0-0.9,0.1c-0.3,0.1-0.5,0.2-0.8,0.3c-0.2,0.1-0.4,0.3-0.5,0.5s-0.2,0.4-0.2,0.6V215.2z"/>
		</g>
		<g class="st2">
			<path class="st3" d="M66.6,212.4c0-0.9,0.3-1.6,1-2.1c0.7-0.5,1.6-0.8,2.8-0.8h2.1v1.5h-2.1c-0.7,0-1.2,0.1-1.6,0.4
				c-0.4,0.3-0.6,0.6-0.6,1v5.7h-1.6V212.4z"/>
		</g>
		<g class="st2">
			<path class="st3" d="M80.5,209.5h1.6l-3.8,8.9c-0.1,0.3-0.3,0.6-0.5,0.8c-0.2,0.2-0.4,0.3-0.7,0.4s-0.6,0.1-0.9,0.2
				c-0.4,0-0.8,0-1.2,0v-1.5c0.4,0,0.8,0,1,0c0.2,0,0.4-0.1,0.6-0.1c0.1-0.1,0.2-0.2,0.3-0.3c0.1-0.1,0.1-0.3,0.2-0.5
				c-0.1-0.3-0.3-0.6-0.4-1c-0.2-0.4-0.3-0.8-0.5-1.2c-0.2-0.4-0.4-0.9-0.6-1.3s-0.4-0.9-0.6-1.3c-0.4-1-0.9-2-1.4-3.1h1.7l2.6,6
				L80.5,209.5z"/>
		</g>
		<g class="st2">
			<path class="st3" d="M88.1,216.6h1.6v1.5h-1.6c-0.6,0-1.1-0.1-1.5-0.2s-0.9-0.3-1.2-0.5c-0.3-0.2-0.6-0.5-0.8-0.9
				c-0.2-0.4-0.3-0.8-0.3-1.2v-4.4h-1.2v-1.2h1.2v-1.3h1.6v1.3h2.4v1.2h-2.4v4.4c0,0.4,0.2,0.8,0.6,1
				C86.9,216.5,87.5,216.6,88.1,216.6z"/>
		</g>
		<g class="st2">
			<path class="st3" d="M97.5,215.9l1.4,0.8c-0.4,0.5-0.9,0.9-1.6,1.1s-1.4,0.4-2.2,0.4c-0.5,0-1-0.1-1.5-0.2
				c-0.5-0.1-0.9-0.3-1.2-0.5s-0.6-0.5-0.9-0.9c-0.2-0.4-0.3-0.8-0.3-1.3v-2.9c0-0.5,0.1-0.9,0.3-1.3c0.2-0.4,0.5-0.7,0.8-0.9
				c0.4-0.2,0.8-0.4,1.2-0.6c0.5-0.1,1-0.2,1.5-0.2c0.5,0,1,0.1,1.5,0.2c0.5,0.1,0.9,0.3,1.2,0.5c0.4,0.2,0.6,0.5,0.8,0.9
				c0.2,0.4,0.3,0.8,0.3,1.3v2.2h-6.3v0.8c0,0.2,0.1,0.4,0.2,0.6s0.3,0.3,0.5,0.5c0.2,0.1,0.5,0.2,0.7,0.3c0.3,0.1,0.6,0.1,0.9,0.1
				c0.5,0,0.9-0.1,1.3-0.2C96.9,216.4,97.2,216.2,97.5,215.9z M92.8,212.3v0.8h4.7v-0.8c0-0.2-0.1-0.5-0.2-0.6
				c-0.1-0.2-0.3-0.3-0.5-0.5s-0.5-0.2-0.8-0.3s-0.6-0.1-0.9-0.1s-0.6,0-0.9,0.1c-0.3,0.1-0.5,0.2-0.8,0.3s-0.4,0.3-0.5,0.5
				C92.9,211.9,92.8,212.1,92.8,212.3z"/>
			<path class="st3" d="M101.7,207.6h1.6v10.5h-1.6V207.6z"/>
			<path class="st3" d="M106,207.6h1.6v10.5H106V207.6z"/>
			<path class="st3" d="M110.3,207.6h1.6v1.1h-1.6V207.6z M111.8,218.1h-1.6v-8.5h1.6V218.1z"/>
			<path class="st3" d="M120.9,212.3c0-0.3-0.1-0.5-0.2-0.7c-0.2-0.2-0.4-0.3-0.6-0.4c-0.2-0.1-0.5-0.2-0.8-0.2
				c-0.3,0-0.5-0.1-0.8-0.1c-0.3,0-0.5,0-0.8,0.1c-0.3,0-0.5,0.1-0.8,0.2c-0.2,0.1-0.4,0.3-0.6,0.4s-0.2,0.4-0.2,0.7v5.8h-1.6v-5.8
				c0-0.5,0.1-0.9,0.3-1.2c0.2-0.4,0.5-0.7,0.8-0.9c0.4-0.2,0.8-0.4,1.2-0.6c0.5-0.1,1-0.2,1.5-0.2c0.6,0,1.1,0.1,1.6,0.2
				c0.5,0.1,0.9,0.3,1.2,0.6s0.6,0.5,0.8,0.9s0.3,0.8,0.3,1.2v5.8h-1.6V212.3z"/>
			<path class="st3" d="M133,212.3v6c0,0.5-0.1,0.9-0.3,1.3s-0.5,0.6-0.8,0.9s-0.8,0.4-1.2,0.5c-0.5,0.1-1,0.2-1.6,0.2
				c-0.4,0-0.7,0-1.1-0.1c-0.4,0-0.7-0.1-1-0.2c-0.3-0.1-0.6-0.3-0.9-0.5c-0.3-0.2-0.5-0.5-0.8-0.8l1.2-0.9c0.1,0.2,0.3,0.3,0.5,0.4
				c0.2,0.1,0.4,0.2,0.6,0.3c0.2,0.1,0.5,0.1,0.7,0.2s0.5,0.1,0.7,0.1c0.3,0,0.6,0,0.9-0.1c0.3,0,0.5-0.1,0.8-0.2
				c0.2-0.1,0.4-0.2,0.5-0.4s0.2-0.4,0.2-0.6v-0.6c-0.3,0.1-0.7,0.3-1.1,0.4c-0.4,0.1-0.9,0.2-1.3,0.2c-0.5,0-1-0.1-1.5-0.2
				c-0.5-0.1-0.9-0.3-1.2-0.5c-0.4-0.2-0.6-0.5-0.9-0.9c-0.2-0.4-0.3-0.8-0.3-1.3v-3c0-0.5,0.1-0.9,0.3-1.3c0.2-0.4,0.5-0.7,0.8-0.9
				s0.8-0.4,1.2-0.6s1-0.2,1.5-0.2c0.5,0,1,0.1,1.5,0.2c0.5,0.1,0.9,0.3,1.2,0.5c0.4,0.2,0.6,0.5,0.9,0.9
				C132.9,211.4,133,211.8,133,212.3z M131.5,212.3c0-0.3-0.1-0.5-0.2-0.7c-0.1-0.2-0.3-0.3-0.5-0.4s-0.5-0.2-0.8-0.3
				c-0.3-0.1-0.6-0.1-0.9-0.1c-0.3,0-0.6,0-0.9,0.1s-0.5,0.2-0.8,0.3s-0.4,0.3-0.5,0.5c-0.1,0.2-0.2,0.4-0.2,0.6v3
				c0,0.2,0.1,0.4,0.2,0.6c0.1,0.2,0.3,0.3,0.5,0.5c0.2,0.1,0.5,0.2,0.8,0.3s0.6,0.1,0.9,0.1c0.3,0,0.6,0,0.9-0.1s0.5-0.2,0.8-0.3
				c0.2-0.1,0.4-0.3,0.5-0.5c0.1-0.2,0.2-0.4,0.2-0.6V212.3z"/>
		</g>
		<g class="st2">
			<path class="st4" d="M170.6,290.6h-1l-2.2-6.1l-2.2,6.1h-1l-3-8.6h1.6l1.9,5.8l2.1-5.8h1.3l2.1,5.8l1.9-5.8h1.6L170.6,290.6z"/>
		</g>
		<g class="st2">
			<path class="st4" d="M181.5,288.4l1.4,0.8c-0.4,0.5-0.9,0.9-1.6,1.1c-0.7,0.3-1.4,0.4-2.2,0.4c-0.5,0-1-0.1-1.5-0.2
				s-0.9-0.3-1.2-0.5c-0.4-0.2-0.6-0.5-0.9-0.9c-0.2-0.4-0.3-0.8-0.3-1.3v-2.9c0-0.5,0.1-0.9,0.3-1.3c0.2-0.4,0.5-0.7,0.8-0.9
				s0.8-0.4,1.2-0.6c0.5-0.1,1-0.2,1.5-0.2c0.5,0,1,0.1,1.5,0.2c0.5,0.1,0.9,0.3,1.2,0.5c0.4,0.2,0.6,0.5,0.8,0.9
				c0.2,0.4,0.3,0.8,0.3,1.3v2.2h-6.3v0.8c0,0.2,0.1,0.4,0.2,0.6s0.3,0.3,0.5,0.5s0.5,0.2,0.7,0.3c0.3,0.1,0.6,0.1,0.9,0.1
				c0.5,0,0.9-0.1,1.3-0.2C180.9,288.9,181.2,288.7,181.5,288.4z M176.8,284.8v0.8h4.7v-0.8c0-0.2-0.1-0.5-0.2-0.6s-0.3-0.3-0.5-0.5
				c-0.2-0.1-0.5-0.2-0.8-0.3c-0.3-0.1-0.6-0.1-0.9-0.1s-0.6,0-0.9,0.1s-0.5,0.2-0.8,0.3c-0.2,0.1-0.4,0.3-0.5,0.5
				C176.9,284.4,176.8,284.6,176.8,284.8z"/>
			<path class="st4" d="M187.2,280.1v2.4c0.2-0.1,0.5-0.3,0.8-0.4c0.3-0.1,0.9-0.2,1.5-0.2c0.5,0,1,0.1,1.5,0.2
				c0.5,0.1,0.9,0.3,1.2,0.5c0.4,0.2,0.6,0.5,0.8,0.9c0.2,0.4,0.3,0.8,0.3,1.3v3c0,0.5-0.1,0.9-0.3,1.3s-0.5,0.7-0.8,0.9
				c-0.3,0.2-0.8,0.4-1.2,0.6c-0.5,0.1-1,0.2-1.6,0.2c-0.6,0-1.1-0.1-1.6-0.2s-0.9-0.3-1.2-0.6c-0.3-0.3-0.6-0.6-0.8-0.9
				c-0.2-0.4-0.3-0.8-0.3-1.2v-7.7H187.2z M187.2,284.8v3c0,0.2,0.1,0.4,0.2,0.6s0.3,0.3,0.5,0.5c0.2,0.1,0.5,0.2,0.7,0.3
				c0.3,0.1,0.6,0.1,0.9,0.1c0.3,0,0.6,0,0.9-0.1c0.3-0.1,0.5-0.2,0.8-0.3c0.2-0.1,0.4-0.3,0.5-0.5c0.1-0.2,0.2-0.4,0.2-0.6v-3
				c0-0.3-0.1-0.5-0.2-0.7s-0.3-0.3-0.5-0.4c-0.2-0.1-0.5-0.2-0.8-0.3c-0.3-0.1-0.6-0.1-0.9-0.1c-0.3,0-0.6,0-0.9,0.1
				s-0.5,0.2-0.8,0.3c-0.2,0.1-0.4,0.3-0.5,0.5C187.3,284.4,187.2,284.6,187.2,284.8z"/>
		</g>
		<g class="st2">
			<path class="st5" d="M97.6,147.9v1.6h-1.8v8.5h-1.8v-10.8c0-0.3,0.1-0.6,0.2-0.9c0.1-0.3,0.3-0.5,0.5-0.7
				c0.2-0.2,0.5-0.4,0.8-0.5c0.3-0.1,0.7-0.2,1.1-0.2H99v1.8h-2.6c-0.2,0-0.4,0-0.5,0.1s-0.2,0.2-0.2,0.4v0.7H97.6z"/>
		</g>
		<g class="st2">
			<path class="st5" d="M100.3,154.5v-3.6c0-0.6,0.1-1.1,0.4-1.5c0.2-0.4,0.6-0.8,1-1.1s0.9-0.5,1.5-0.7c0.6-0.2,1.2-0.2,1.8-0.2
				c0.6,0,1.2,0.1,1.8,0.2c0.6,0.2,1.1,0.4,1.5,0.7s0.7,0.7,1,1.1c0.2,0.4,0.4,1,0.4,1.5v3.6c0,0.6-0.1,1.1-0.4,1.6
				c-0.2,0.5-0.6,0.8-1,1.1s-0.9,0.5-1.5,0.7c-0.6,0.2-1.2,0.2-1.8,0.2c-0.6,0-1.2-0.1-1.8-0.2c-0.6-0.2-1-0.4-1.5-0.7
				s-0.7-0.7-1-1.1C100.4,155.6,100.3,155.1,100.3,154.5z M102.1,154.5c0,0.3,0.1,0.6,0.2,0.8c0.1,0.2,0.4,0.4,0.6,0.6
				c0.3,0.2,0.6,0.3,0.9,0.4c0.3,0.1,0.7,0.1,1.1,0.1s0.7,0,1.1-0.1c0.3-0.1,0.6-0.2,0.9-0.4c0.3-0.2,0.5-0.3,0.6-0.6
				c0.2-0.2,0.2-0.5,0.2-0.8v-3.6c0-0.3-0.1-0.5-0.2-0.8c-0.2-0.2-0.4-0.4-0.6-0.6c-0.3-0.2-0.6-0.3-0.9-0.3s-0.7-0.1-1.1-0.1
				s-0.7,0-1.1,0.1s-0.6,0.2-0.9,0.3c-0.3,0.2-0.5,0.3-0.6,0.6c-0.1,0.2-0.2,0.5-0.2,0.8V154.5z"/>
			<path class="st5" d="M112.7,150.8c0-0.6,0.1-1.1,0.4-1.6c0.3-0.4,0.6-0.8,1-1.1c0.4-0.3,0.9-0.5,1.5-0.7s1.1-0.2,1.7-0.2
				c0.4,0,0.9,0,1.3,0.1c0.4,0.1,0.9,0.2,1.3,0.4c0.4,0.2,0.8,0.5,1.1,0.8c0.3,0.3,0.6,0.7,0.8,1.2l-1.6,0.8
				c-0.1-0.3-0.3-0.5-0.5-0.7c-0.2-0.2-0.4-0.3-0.7-0.5s-0.5-0.2-0.8-0.3c-0.3-0.1-0.6-0.1-0.9-0.1c-0.4,0-0.7,0-1.1,0.1
				c-0.3,0.1-0.6,0.2-0.9,0.3c-0.2,0.2-0.4,0.3-0.6,0.6c-0.1,0.2-0.2,0.5-0.2,0.8v3.7c0,0.3,0.1,0.6,0.3,0.8
				c0.2,0.2,0.4,0.4,0.7,0.6c0.3,0.1,0.6,0.2,0.9,0.3c0.3,0.1,0.6,0.1,0.9,0.1c0.6,0,1.1-0.1,1.7-0.3c0.5-0.2,1-0.6,1.3-1.1l1.6,0.7
				c-0.2,0.5-0.5,0.9-0.9,1.2s-0.7,0.6-1.1,0.8c-0.4,0.2-0.8,0.3-1.3,0.4c-0.4,0.1-0.9,0.1-1.3,0.1c-0.6,0-1.2-0.1-1.8-0.2
				c-0.6-0.2-1-0.4-1.5-0.7c-0.4-0.3-0.7-0.7-1-1.1c-0.2-0.4-0.4-1-0.4-1.5V150.8z"/>
			<path class="st5" d="M132.2,147.4h1.8v7.1c0,0.6-0.1,1.1-0.3,1.5s-0.5,0.8-0.9,1.1c-0.4,0.3-0.9,0.5-1.4,0.7
				c-0.6,0.2-1.2,0.2-1.8,0.2c-0.6,0-1.3-0.1-1.8-0.2c-0.6-0.2-1.1-0.4-1.5-0.7c-0.4-0.3-0.8-0.7-1-1.1s-0.4-1-0.4-1.5v-7.1h1.8v7.1
				c0,0.3,0.1,0.6,0.3,0.8c0.2,0.2,0.4,0.4,0.7,0.5c0.3,0.1,0.6,0.2,0.9,0.3c0.3,0.1,0.7,0.1,1,0.1c0.3,0,0.6,0,0.9-0.1
				s0.6-0.2,0.9-0.3c0.3-0.1,0.5-0.3,0.7-0.5c0.2-0.2,0.3-0.5,0.3-0.8V147.4z"/>
			<path class="st5" d="M141.6,151.7c0.7,0,1.3,0.1,1.8,0.2s1,0.3,1.5,0.5c0.4,0.2,0.7,0.6,1,1c0.2,0.4,0.3,0.9,0.3,1.5
				c0,0.6-0.1,1.1-0.4,1.5c-0.2,0.4-0.6,0.8-1,1s-0.9,0.5-1.5,0.6s-1.1,0.2-1.8,0.2c-2.2,0-3.8-0.8-4.6-2.3l1.6-0.9
				c0.1,0.2,0.2,0.4,0.4,0.5c0.2,0.2,0.4,0.3,0.6,0.5c0.2,0.1,0.5,0.2,0.9,0.3s0.7,0.1,1.2,0.1c0.4,0,0.7,0,1.1-0.1
				c0.3-0.1,0.6-0.1,0.9-0.3c0.2-0.1,0.4-0.3,0.6-0.5s0.2-0.4,0.2-0.7c0-0.3-0.1-0.5-0.2-0.7s-0.3-0.3-0.6-0.4s-0.5-0.2-0.9-0.2
				c-0.3,0-0.7-0.1-1.1-0.1c-0.6,0-1.2,0-1.8-0.2c-0.6-0.1-1-0.3-1.5-0.5c-0.4-0.2-0.7-0.6-1-1c-0.2-0.4-0.4-0.9-0.4-1.4
				c0-0.6,0.1-1.1,0.3-1.5c0.2-0.4,0.6-0.7,1-1c0.4-0.3,0.9-0.4,1.5-0.6c0.6-0.1,1.2-0.2,1.8-0.2c1,0,1.9,0.2,2.5,0.5
				c0.7,0.3,1.2,0.9,1.7,1.7l-1.6,0.9c-0.3-0.5-0.6-0.8-1-1c-0.4-0.2-1-0.3-1.6-0.3c-0.4,0-0.7,0-1,0.1c-0.3,0-0.6,0.1-0.9,0.2
				c-0.3,0.1-0.5,0.3-0.6,0.4c-0.2,0.2-0.2,0.4-0.2,0.7c0,0.2,0.1,0.5,0.2,0.6c0.2,0.2,0.4,0.3,0.6,0.4c0.3,0.1,0.6,0.2,0.9,0.2
				C140.9,151.7,141.3,151.7,141.6,151.7z"/>
			<path class="st5" d="M149.2,161.2v-10.3c0-0.6,0.1-1.1,0.3-1.5c0.2-0.4,0.5-0.8,0.9-1.1s0.9-0.5,1.4-0.7c0.6-0.2,1.2-0.2,1.9-0.2
				c0.7,0,1.3,0.1,1.8,0.2c0.6,0.2,1.1,0.4,1.5,0.7s0.7,0.7,1,1.1c0.2,0.5,0.3,1,0.3,1.6v3.6c0,0.6-0.1,1.2-0.4,1.6s-0.6,0.8-1,1.1
				c-0.4,0.3-0.9,0.5-1.5,0.6s-1.2,0.2-1.8,0.2c-0.8,0-1.4-0.1-1.8-0.2c-0.4-0.1-0.7-0.3-1-0.5v3.7H149.2z M151.3,155.3
				c0.1,0.2,0.3,0.4,0.6,0.6c0.2,0.2,0.5,0.3,0.9,0.3c0.3,0.1,0.7,0.1,1.1,0.1c0.4,0,0.7,0,1.1-0.1s0.6-0.2,0.9-0.3
				c0.3-0.1,0.5-0.3,0.6-0.6c0.2-0.2,0.2-0.5,0.2-0.8v-3.6c0-0.3-0.1-0.5-0.2-0.8c-0.1-0.2-0.3-0.4-0.6-0.6s-0.5-0.3-0.9-0.4
				s-0.7-0.1-1.1-0.1c-0.4,0-0.7,0-1.1,0.1c-0.3,0.1-0.6,0.2-0.9,0.3c-0.2,0.2-0.4,0.3-0.6,0.6c-0.1,0.2-0.2,0.5-0.2,0.8v3.7
				C151.1,154.8,151.1,155.1,151.3,155.3z"/>
			<path class="st5" d="M161.6,154.5v-3.6c0-0.6,0.1-1.1,0.4-1.5c0.2-0.4,0.6-0.8,1-1.1s0.9-0.5,1.5-0.7c0.6-0.2,1.2-0.2,1.8-0.2
				c0.6,0,1.2,0.1,1.8,0.2c0.6,0.2,1.1,0.4,1.5,0.7s0.7,0.7,1,1.1c0.2,0.4,0.4,1,0.4,1.5v3.6c0,0.6-0.1,1.1-0.4,1.6
				c-0.2,0.5-0.6,0.8-1,1.1s-0.9,0.5-1.5,0.7c-0.6,0.2-1.2,0.2-1.8,0.2c-0.6,0-1.2-0.1-1.8-0.2c-0.6-0.2-1-0.4-1.5-0.7
				s-0.7-0.7-1-1.1C161.8,155.6,161.6,155.1,161.6,154.5z M163.5,154.5c0,0.3,0.1,0.6,0.2,0.8c0.1,0.2,0.4,0.4,0.6,0.6
				c0.3,0.2,0.6,0.3,0.9,0.4c0.3,0.1,0.7,0.1,1.1,0.1s0.7,0,1.1-0.1c0.3-0.1,0.6-0.2,0.9-0.4c0.3-0.2,0.5-0.3,0.6-0.6
				c0.2-0.2,0.2-0.5,0.2-0.8v-3.6c0-0.3-0.1-0.5-0.2-0.8c-0.2-0.2-0.4-0.4-0.6-0.6c-0.3-0.2-0.6-0.3-0.9-0.3s-0.7-0.1-1.1-0.1
				s-0.7,0-1.1,0.1s-0.6,0.2-0.9,0.3c-0.3,0.2-0.5,0.3-0.6,0.6c-0.1,0.2-0.2,0.5-0.2,0.8V154.5z"/>
			<path class="st5" d="M174.1,150.8c0-0.6,0.1-1.1,0.4-1.6c0.3-0.4,0.6-0.8,1-1.1c0.4-0.3,0.9-0.5,1.5-0.7c0.6-0.1,1.1-0.2,1.7-0.2
				c0.4,0,0.9,0,1.3,0.1c0.4,0.1,0.9,0.2,1.3,0.4c0.4,0.2,0.8,0.5,1.1,0.8c0.3,0.3,0.6,0.7,0.8,1.2l-1.6,0.8
				c-0.1-0.3-0.3-0.5-0.5-0.7c-0.2-0.2-0.4-0.3-0.7-0.5s-0.5-0.2-0.8-0.3c-0.3-0.1-0.6-0.1-0.9-0.1c-0.4,0-0.7,0-1.1,0.1
				c-0.3,0.1-0.6,0.2-0.9,0.3c-0.2,0.2-0.4,0.3-0.6,0.6c-0.1,0.2-0.2,0.5-0.2,0.8v3.7c0,0.3,0.1,0.6,0.3,0.8
				c0.2,0.2,0.4,0.4,0.7,0.6c0.3,0.1,0.6,0.2,0.9,0.3c0.3,0.1,0.6,0.1,0.9,0.1c0.6,0,1.1-0.1,1.7-0.3c0.5-0.2,1-0.6,1.3-1.1l1.6,0.7
				c-0.2,0.5-0.5,0.9-0.9,1.2s-0.7,0.6-1.1,0.8c-0.4,0.2-0.8,0.3-1.3,0.4c-0.4,0.1-0.9,0.1-1.3,0.1c-0.6,0-1.2-0.1-1.8-0.2
				c-0.6-0.2-1-0.4-1.5-0.7c-0.4-0.3-0.7-0.7-1-1.1c-0.2-0.4-0.4-1-0.4-1.5V150.8z"/>
			<path class="st5" d="M193.5,147.4h1.8v7.1c0,0.6-0.1,1.1-0.3,1.5s-0.5,0.8-0.9,1.1c-0.4,0.3-0.9,0.5-1.4,0.7
				c-0.6,0.2-1.2,0.2-1.8,0.2c-0.6,0-1.3-0.1-1.8-0.2c-0.6-0.2-1.1-0.4-1.5-0.7c-0.4-0.3-0.8-0.7-1-1.1s-0.4-1-0.4-1.5v-7.1h1.8v7.1
				c0,0.3,0.1,0.6,0.3,0.8c0.2,0.2,0.4,0.4,0.7,0.5c0.3,0.1,0.6,0.2,0.9,0.3s0.7,0.1,1,0.1c0.3,0,0.6,0,0.9-0.1s0.6-0.2,0.9-0.3
				c0.3-0.1,0.5-0.3,0.7-0.5c0.2-0.2,0.3-0.5,0.3-0.8V147.4z"/>
			<path class="st5" d="M203,151.7c0.7,0,1.3,0.1,1.8,0.2s1,0.3,1.5,0.5c0.4,0.2,0.7,0.6,1,1c0.2,0.4,0.3,0.9,0.3,1.5
				c0,0.6-0.1,1.1-0.4,1.5c-0.2,0.4-0.6,0.8-1,1c-0.4,0.3-0.9,0.5-1.5,0.6s-1.1,0.2-1.8,0.2c-2.2,0-3.8-0.8-4.6-2.3l1.6-0.9
				c0.1,0.2,0.2,0.4,0.4,0.5c0.2,0.2,0.4,0.3,0.6,0.5s0.5,0.2,0.9,0.3c0.3,0.1,0.7,0.1,1.2,0.1c0.4,0,0.7,0,1.1-0.1s0.6-0.1,0.9-0.3
				c0.2-0.1,0.4-0.3,0.6-0.5s0.2-0.4,0.2-0.7c0-0.3-0.1-0.5-0.2-0.7s-0.3-0.3-0.6-0.4s-0.5-0.2-0.9-0.2c-0.3,0-0.7-0.1-1.1-0.1
				c-0.6,0-1.2,0-1.8-0.2c-0.6-0.1-1-0.3-1.5-0.5s-0.7-0.6-1-1c-0.2-0.4-0.4-0.9-0.4-1.4c0-0.6,0.1-1.1,0.3-1.5c0.2-0.4,0.6-0.7,1-1
				c0.4-0.3,0.9-0.4,1.5-0.6c0.6-0.1,1.2-0.2,1.8-0.2c1,0,1.9,0.2,2.5,0.5c0.7,0.3,1.2,0.9,1.7,1.7l-1.6,0.9c-0.3-0.5-0.6-0.8-1-1
				c-0.4-0.2-1-0.3-1.6-0.3c-0.4,0-0.7,0-1,0.1c-0.3,0-0.6,0.1-0.9,0.2s-0.5,0.3-0.6,0.4c-0.2,0.2-0.2,0.4-0.2,0.7
				c0,0.2,0.1,0.5,0.2,0.6c0.2,0.2,0.4,0.3,0.6,0.4c0.3,0.1,0.6,0.2,0.9,0.2S202.6,151.7,203,151.7z"/>
		</g>
		<g class="st2">
			<path class="st5" d="M211.8,157c0,0.6-0.5,1-1.1,1s-1-0.5-1-1c0-0.6,0.5-1.1,1-1.1S211.8,156.4,211.8,157z"/>
		</g>
		<g class="st2">
			<path class="st5" d="M223,154.7c0,0.6-0.1,1.1-0.3,1.6s-0.5,0.8-0.9,1.1c-0.4,0.3-0.9,0.5-1.4,0.6s-1.1,0.2-1.8,0.2
				c-0.7,0-1.3-0.1-1.8-0.2s-1-0.4-1.4-0.6c-0.4-0.3-0.7-0.6-0.9-1.1c-0.2-0.4-0.3-0.9-0.3-1.5v-3.6c0-0.6,0.1-1.1,0.3-1.5
				c0.2-0.4,0.5-0.8,0.9-1.1c0.4-0.3,0.9-0.5,1.4-0.6c0.5-0.1,1.2-0.2,1.8-0.2c1.5,0,2.6,0.3,3.3,0.9V145h1.1V154.7z M221.8,150.5
				c0-0.3-0.2-0.5-0.4-0.7c-0.2-0.2-0.5-0.5-1-0.6c-0.4-0.2-1.1-0.3-1.9-0.3c-0.5,0-0.9,0-1.3,0.1c-0.4,0.1-0.8,0.2-1.1,0.4
				c-0.3,0.2-0.5,0.4-0.7,0.7c-0.2,0.3-0.3,0.6-0.3,1.1v3.6c0,0.4,0.1,0.8,0.2,1.1c0.2,0.3,0.4,0.5,0.7,0.7c0.3,0.2,0.7,0.3,1.1,0.4
				s0.9,0.1,1.4,0.1c0.5,0,1,0,1.4-0.1s0.8-0.2,1.1-0.4s0.5-0.4,0.7-0.7c0.2-0.3,0.2-0.6,0.2-1.1v-3.7
				C221.9,151,221.9,150.8,221.8,150.5z"/>
			<path class="st5" d="M234,155.7l1,0.5c-0.1,0.3-0.3,0.6-0.6,0.8s-0.6,0.4-0.9,0.6s-0.8,0.3-1.2,0.4s-1,0.1-1.5,0.1
				c-0.6,0-1.2-0.1-1.8-0.2s-1-0.3-1.5-0.6c-0.4-0.3-0.7-0.6-1-1.1c-0.2-0.4-0.3-0.9-0.3-1.5v-3.6c0-0.6,0.1-1.1,0.3-1.5
				s0.5-0.8,0.9-1.1c0.4-0.3,0.9-0.5,1.4-0.6c0.5-0.1,1.1-0.2,1.8-0.2c0.6,0,1.2,0.1,1.8,0.2c0.5,0.1,1,0.3,1.4,0.6
				c0.4,0.3,0.7,0.6,0.9,1.1s0.3,0.9,0.3,1.5v2.3h-7.8v1.4c0,0.4,0.1,0.8,0.3,1.1s0.4,0.5,0.7,0.7c0.3,0.2,0.7,0.3,1.1,0.4
				c0.4,0.1,0.9,0.1,1.4,0.1c0.9,0,1.6-0.1,2.1-0.3C233.4,156.4,233.8,156.1,234,155.7z M227.4,151.1v1.1h6.7v-1.1
				c0-0.3-0.1-0.6-0.2-0.8c-0.1-0.3-0.3-0.5-0.6-0.7s-0.6-0.4-1-0.5s-1-0.2-1.6-0.2c-0.8,0-1.5,0.1-1.9,0.3s-0.8,0.4-1,0.7
				c-0.2,0.2-0.3,0.5-0.4,0.8C227.4,150.8,227.4,151,227.4,151.1z"/>
			<path class="st5" d="M247,155.3c0,0.5-0.1,1-0.3,1.3s-0.6,0.7-1,0.9c-0.4,0.2-0.9,0.4-1.4,0.5c-0.5,0.1-1.1,0.1-1.7,0.1
				c-1.2,0-2.1-0.1-2.9-0.4s-1.3-0.8-1.6-1.4l1-0.6c0.1,0.1,0.2,0.3,0.3,0.4c0.2,0.1,0.4,0.3,0.6,0.4s0.6,0.2,1,0.3
				c0.4,0.1,0.9,0.1,1.5,0.1c1.1,0,1.9-0.1,2.5-0.4c0.6-0.3,0.8-0.7,0.8-1.3c0-0.3-0.1-0.6-0.2-0.9c-0.2-0.2-0.4-0.4-0.7-0.6
				s-0.6-0.2-1.1-0.3c-0.4-0.1-0.8-0.1-1.3-0.1c-0.6,0-1.1,0-1.6-0.1c-0.5-0.1-1-0.2-1.4-0.4c-0.4-0.2-0.8-0.5-1-0.9
				c-0.3-0.4-0.4-0.8-0.4-1.4c0-0.5,0.1-1,0.3-1.4s0.5-0.7,0.9-0.9c0.4-0.2,0.9-0.4,1.4-0.5c0.5-0.1,1.1-0.2,1.8-0.2
				c1.1,0,2.1,0.2,2.8,0.5c0.7,0.3,1.3,0.9,1.6,1.6l-1,0.5c-0.2-0.5-0.6-0.9-1.2-1.2c-0.6-0.2-1.4-0.4-2.3-0.4c-1,0-1.9,0.1-2.5,0.4
				c-0.6,0.3-0.9,0.7-0.9,1.4c0,0.3,0.1,0.6,0.2,0.8c0.2,0.2,0.4,0.4,0.7,0.5c0.3,0.1,0.6,0.2,1.1,0.3c0.4,0.1,0.9,0.1,1.4,0.1
				c0.6,0,1.2,0.1,1.8,0.2c0.5,0.1,1,0.3,1.4,0.5s0.7,0.5,0.9,0.9S247,154.8,247,155.3z"/>
			<path class="st5" d="M251.1,146.2H250V145h1.1V146.2z M251.1,158H250v-10.1h1.1V158z"/>
			<path class="st5" d="M263.3,151.1v6.9c0,0.6-0.1,1.1-0.3,1.5c-0.2,0.4-0.5,0.8-0.9,1s-0.9,0.5-1.4,0.6c-0.6,0.1-1.2,0.2-1.8,0.2
				c-1.1,0-2-0.2-2.6-0.5c-0.7-0.3-1.2-0.8-1.5-1.4l1-0.5c0.2,0.5,0.6,0.8,1.2,1c0.5,0.2,1.2,0.3,2,0.3c0.5,0,1,0,1.4-0.1
				c0.4-0.1,0.8-0.2,1.1-0.4c0.3-0.2,0.5-0.4,0.7-0.7c0.2-0.3,0.2-0.6,0.2-1v-0.8c-0.8,0.6-1.9,0.9-3.4,0.9c-0.6,0-1.2-0.1-1.7-0.2
				s-1-0.3-1.4-0.6c-0.4-0.3-0.7-0.6-1-1c-0.2-0.4-0.3-1-0.3-1.6v-3.6c0-0.6,0.1-1.1,0.3-1.5c0.2-0.4,0.5-0.8,0.9-1.1
				c0.4-0.3,0.9-0.5,1.4-0.6c0.5-0.1,1.2-0.2,1.8-0.2c0.7,0,1.3,0.1,1.8,0.2s1,0.3,1.4,0.6c0.4,0.3,0.7,0.6,0.9,1.1
				S263.3,150.6,263.3,151.1z M262.2,154.8v-3.6c0-0.4-0.1-0.8-0.3-1.1s-0.4-0.5-0.7-0.7c-0.3-0.2-0.7-0.3-1.1-0.4
				c-0.4-0.1-0.8-0.1-1.3-0.1c-0.8,0-1.5,0.1-1.9,0.3c-0.5,0.2-0.8,0.4-1,0.6c-0.2,0.2-0.3,0.5-0.4,0.8c0,0.3-0.1,0.4-0.1,0.6v3.6
				c0,0.4,0.1,0.8,0.3,1.1c0.2,0.3,0.4,0.5,0.7,0.7c0.3,0.2,0.6,0.3,1.1,0.4c0.4,0.1,0.8,0.1,1.3,0.1c0.5,0,1,0,1.4-0.1
				s0.8-0.2,1.1-0.4c0.3-0.2,0.5-0.4,0.7-0.7C262.1,155.5,262.2,155.2,262.2,154.8z"/>
			<path class="st5" d="M266.5,151.1c0-0.6,0.1-1.1,0.3-1.5c0.2-0.4,0.5-0.8,0.9-1.1c0.4-0.3,0.9-0.5,1.4-0.6
				c0.6-0.1,1.2-0.2,1.8-0.2s1.3,0.1,1.8,0.2c0.5,0.1,1,0.3,1.4,0.6c0.4,0.3,0.7,0.6,0.9,1.1s0.3,0.9,0.3,1.5v6.9h-1.1v-6.9
				c0-0.4-0.1-0.8-0.3-1.1c-0.2-0.3-0.4-0.5-0.7-0.7c-0.3-0.2-0.7-0.3-1.1-0.4c-0.4-0.1-0.9-0.1-1.3-0.1c-0.5,0-1,0-1.4,0.1
				c-0.4,0.1-0.8,0.2-1.1,0.4c-0.3,0.2-0.5,0.4-0.7,0.7c-0.2,0.3-0.2,0.6-0.2,1.1v6.9h-1.1V151.1z"/>
		</g>
		<g class="st2">
			<path class="st6" d="M264,70.7v-8.3c0-0.5,0.1-0.9,0.3-1.2c0.2-0.4,0.5-0.7,0.8-0.9c0.3-0.3,0.8-0.4,1.2-0.6s1-0.2,1.6-0.2
				c0.6,0,1.1,0.1,1.6,0.2s0.9,0.3,1.2,0.6c0.4,0.2,0.6,0.6,0.8,0.9c0.2,0.4,0.3,0.8,0.3,1.3v3c0,0.5-0.1,1-0.3,1.3
				c-0.2,0.4-0.5,0.7-0.8,0.9c-0.4,0.2-0.8,0.4-1.2,0.5s-1,0.2-1.5,0.2c-0.7,0-1.2-0.1-1.5-0.2s-0.6-0.2-0.8-0.4v3H264z M265.7,65.9
				c0.1,0.2,0.3,0.3,0.5,0.5c0.2,0.1,0.5,0.2,0.8,0.3c0.3,0.1,0.6,0.1,0.9,0.1c0.3,0,0.6,0,0.9-0.1c0.3-0.1,0.5-0.1,0.8-0.3
				c0.2-0.1,0.4-0.3,0.5-0.4s0.2-0.4,0.2-0.7v-3c0-0.2-0.1-0.4-0.2-0.6c-0.1-0.2-0.3-0.3-0.5-0.5s-0.5-0.2-0.8-0.3
				c-0.3-0.1-0.6-0.1-0.9-0.1c-0.3,0-0.6,0-0.9,0.1c-0.3,0.1-0.5,0.2-0.7,0.3c-0.2,0.1-0.4,0.3-0.5,0.5c-0.1,0.2-0.2,0.4-0.2,0.6v3
				C265.5,65.5,265.6,65.7,265.7,65.9z"/>
		</g>
		<g class="st2">
			<path class="st6" d="M278.2,59.4c0.5,0,1,0.1,1.5,0.2c0.5,0.1,0.9,0.3,1.2,0.5c0.4,0.2,0.6,0.5,0.8,0.9s0.3,0.8,0.3,1.3v3
				c0,0.5-0.1,1-0.3,1.3c-0.2,0.4-0.5,0.7-0.8,0.9c-0.3,0.2-0.8,0.4-1.2,0.5c-0.5,0.1-1,0.2-1.6,0.2c-0.5,0-1.1-0.1-1.5-0.2
				s-0.9-0.3-1.2-0.5c-0.4-0.2-0.6-0.5-0.8-0.9c-0.2-0.3-0.3-0.8-0.3-1.2c0-0.4,0.1-0.7,0.2-1c0.1-0.3,0.3-0.5,0.6-0.7
				c0.3-0.2,0.6-0.4,0.9-0.5c0.4-0.1,0.8-0.2,1.2-0.2h3.3v-0.8c0-0.2-0.1-0.4-0.2-0.6c-0.1-0.2-0.3-0.3-0.5-0.4
				c-0.2-0.1-0.5-0.2-0.7-0.3c-0.3-0.1-0.6-0.1-0.9-0.1c-1,0-1.7,0.3-2.2,0.9l-1.3-0.8c0.4-0.6,0.8-1,1.4-1.2S277.4,59.4,278.2,59.4
				z M280.5,65.2v-0.7h-3.3c-0.3,0-0.5,0-0.7,0.1c-0.2,0.1-0.3,0.1-0.4,0.2s-0.2,0.2-0.2,0.3c0,0.1-0.1,0.2-0.1,0.3
				c0,0.2,0.1,0.4,0.2,0.6c0.1,0.2,0.3,0.3,0.5,0.4c0.2,0.1,0.5,0.2,0.8,0.2s0.6,0.1,0.9,0.1c0.6,0,1-0.1,1.3-0.2
				c0.3-0.1,0.5-0.3,0.7-0.4c0.2-0.2,0.3-0.3,0.3-0.5C280.5,65.5,280.5,65.3,280.5,65.2z"/>
			<path class="st6" d="M284.8,62.3c0-0.5,0.1-0.9,0.3-1.3s0.5-0.7,0.9-0.9c0.4-0.2,0.8-0.4,1.3-0.5c0.5-0.1,1-0.2,1.5-0.2
				c0.4,0,0.8,0,1.1,0.1c0.4,0.1,0.7,0.2,1.1,0.3c0.3,0.2,0.7,0.4,0.9,0.6c0.3,0.3,0.5,0.6,0.7,1l-1.4,0.6c-0.1-0.2-0.2-0.4-0.4-0.6
				c-0.2-0.2-0.4-0.3-0.6-0.4c-0.2-0.1-0.5-0.2-0.7-0.2s-0.5-0.1-0.7-0.1c-0.3,0-0.6,0-0.9,0.1c-0.3,0.1-0.5,0.2-0.8,0.3
				s-0.4,0.3-0.5,0.4s-0.2,0.4-0.2,0.6v3c0,0.3,0.1,0.5,0.2,0.7c0.2,0.2,0.3,0.3,0.6,0.4c0.2,0.1,0.5,0.2,0.8,0.2s0.5,0.1,0.8,0.1
				c0.5,0,1-0.1,1.4-0.3s0.8-0.5,1.1-0.9l1.4,0.6c-0.2,0.4-0.5,0.7-0.8,1s-0.6,0.5-0.9,0.6c-0.3,0.2-0.7,0.3-1.1,0.3
				c-0.4,0.1-0.8,0.1-1.1,0.1c-0.5,0-1.1-0.1-1.5-0.2s-0.9-0.3-1.2-0.6c-0.4-0.2-0.6-0.6-0.8-0.9c-0.2-0.4-0.3-0.8-0.3-1.3V62.3z"/>
			<path class="st6" d="M302.8,59.6l-4.9,3.9l5.2,4.6h-2.3l-4.2-3.8v3.8h-1.6V57.6h1.6v5.1l3.8-3H302.8z"/>
			<path class="st6" d="M308.4,59.4c0.5,0,1,0.1,1.5,0.2c0.5,0.1,0.9,0.3,1.2,0.5c0.4,0.2,0.6,0.5,0.8,0.9s0.3,0.8,0.3,1.3v3
				c0,0.5-0.1,1-0.3,1.3c-0.2,0.4-0.5,0.7-0.8,0.9c-0.3,0.2-0.8,0.4-1.2,0.5c-0.5,0.1-1,0.2-1.6,0.2c-0.5,0-1.1-0.1-1.5-0.2
				s-0.9-0.3-1.2-0.5s-0.6-0.5-0.8-0.9c-0.2-0.3-0.3-0.8-0.3-1.2c0-0.4,0.1-0.7,0.2-1c0.1-0.3,0.3-0.5,0.6-0.7
				c0.3-0.2,0.6-0.4,0.9-0.5c0.4-0.1,0.8-0.2,1.2-0.2h3.3v-0.8c0-0.2-0.1-0.4-0.2-0.6c-0.1-0.2-0.3-0.3-0.5-0.4
				c-0.2-0.1-0.5-0.2-0.7-0.3c-0.3-0.1-0.6-0.1-0.9-0.1c-1,0-1.7,0.3-2.2,0.9l-1.3-0.8c0.4-0.6,0.8-1,1.4-1.2S307.6,59.4,308.4,59.4
				z M310.7,65.2v-0.7h-3.3c-0.3,0-0.5,0-0.7,0.1c-0.2,0.1-0.3,0.1-0.4,0.2s-0.2,0.2-0.2,0.3c0,0.1-0.1,0.2-0.1,0.3
				c0,0.2,0.1,0.4,0.2,0.6c0.1,0.2,0.3,0.3,0.5,0.4c0.2,0.1,0.5,0.2,0.8,0.2s0.6,0.1,0.9,0.1c0.6,0,1-0.1,1.3-0.2
				c0.3-0.1,0.5-0.3,0.7-0.4c0.2-0.2,0.3-0.3,0.3-0.5C310.7,65.5,310.7,65.3,310.7,65.2z"/>
			<path class="st6" d="M322.9,62.3v6c0,0.5-0.1,0.9-0.3,1.3s-0.5,0.6-0.8,0.9s-0.8,0.4-1.2,0.5c-0.5,0.1-1,0.2-1.6,0.2
				c-0.4,0-0.7,0-1.1-0.1c-0.3,0-0.7-0.1-1-0.2c-0.3-0.1-0.6-0.3-0.9-0.5c-0.3-0.2-0.5-0.5-0.8-0.8l1.2-0.9c0.1,0.2,0.3,0.3,0.5,0.4
				c0.2,0.1,0.4,0.2,0.6,0.3s0.5,0.1,0.7,0.2s0.5,0.1,0.7,0.1c0.3,0,0.6,0,0.9-0.1c0.3,0,0.5-0.1,0.8-0.2c0.2-0.1,0.4-0.2,0.5-0.4
				c0.1-0.2,0.2-0.4,0.2-0.6v-0.6c-0.3,0.1-0.7,0.3-1.1,0.4c-0.4,0.1-0.9,0.2-1.3,0.2c-0.5,0-1-0.1-1.5-0.2
				c-0.5-0.1-0.9-0.3-1.2-0.5c-0.4-0.2-0.6-0.5-0.9-0.9s-0.3-0.8-0.3-1.3v-3c0-0.5,0.1-0.9,0.3-1.3c0.2-0.4,0.5-0.7,0.8-0.9
				c0.4-0.2,0.8-0.4,1.2-0.6c0.5-0.1,1-0.2,1.5-0.2c0.5,0,1,0.1,1.5,0.2c0.5,0.1,0.9,0.3,1.2,0.5c0.4,0.2,0.6,0.5,0.9,0.9
				S322.9,61.8,322.9,62.3z M321.3,62.3c0-0.3-0.1-0.5-0.2-0.7c-0.1-0.2-0.3-0.3-0.5-0.4c-0.2-0.1-0.5-0.2-0.8-0.3
				c-0.3-0.1-0.6-0.1-0.9-0.1c-0.3,0-0.6,0-0.9,0.1c-0.3,0.1-0.5,0.2-0.8,0.3c-0.2,0.1-0.4,0.3-0.5,0.5s-0.2,0.4-0.2,0.6v3
				c0,0.2,0.1,0.4,0.2,0.6s0.3,0.3,0.5,0.5s0.5,0.2,0.8,0.3c0.3,0.1,0.6,0.1,0.9,0.1c0.3,0,0.6,0,0.9-0.1c0.3-0.1,0.5-0.2,0.8-0.3
				s0.4-0.3,0.5-0.5c0.1-0.2,0.2-0.4,0.2-0.6V62.3z"/>
			<path class="st6" d="M325.6,57.6h1.6v1.1h-1.6V57.6z M327.1,68.1h-1.6v-8.5h1.6V68.1z"/>
			<path class="st6" d="M336.2,62.3c0-0.3-0.1-0.5-0.2-0.7c-0.2-0.2-0.4-0.3-0.6-0.4c-0.2-0.1-0.5-0.2-0.8-0.2
				c-0.3,0-0.5-0.1-0.8-0.1c-0.3,0-0.5,0-0.8,0.1c-0.3,0-0.5,0.1-0.8,0.2c-0.2,0.1-0.4,0.3-0.6,0.4s-0.2,0.4-0.2,0.7v5.8h-1.6v-5.8
				c0-0.5,0.1-0.9,0.3-1.2c0.2-0.4,0.5-0.7,0.8-0.9c0.4-0.2,0.8-0.4,1.2-0.6c0.5-0.1,1-0.2,1.5-0.2c0.6,0,1.1,0.1,1.6,0.2
				s0.9,0.3,1.2,0.6c0.4,0.2,0.6,0.5,0.8,0.9c0.2,0.4,0.3,0.8,0.3,1.2v5.8h-1.6V62.3z"/>
			<path class="st6" d="M348.3,62.3v6c0,0.5-0.1,0.9-0.3,1.3c-0.2,0.3-0.5,0.6-0.8,0.9c-0.3,0.2-0.8,0.4-1.2,0.5
				c-0.5,0.1-1,0.2-1.6,0.2c-0.4,0-0.7,0-1.1-0.1s-0.7-0.1-1-0.2s-0.6-0.3-0.9-0.5c-0.3-0.2-0.5-0.5-0.8-0.8l1.2-0.9
				c0.1,0.2,0.3,0.3,0.5,0.4c0.2,0.1,0.4,0.2,0.6,0.3c0.2,0.1,0.5,0.1,0.7,0.2c0.2,0,0.5,0.1,0.7,0.1c0.3,0,0.6,0,0.9-0.1
				c0.3,0,0.5-0.1,0.8-0.2c0.2-0.1,0.4-0.2,0.5-0.4s0.2-0.4,0.2-0.6v-0.6c-0.3,0.1-0.7,0.3-1.1,0.4c-0.4,0.1-0.9,0.2-1.3,0.2
				c-0.5,0-1-0.1-1.5-0.2c-0.5-0.1-0.9-0.3-1.2-0.5c-0.4-0.2-0.6-0.5-0.9-0.9s-0.3-0.8-0.3-1.3v-3c0-0.5,0.1-0.9,0.3-1.3
				c0.2-0.4,0.5-0.7,0.8-0.9c0.3-0.2,0.8-0.4,1.2-0.6c0.5-0.1,1-0.2,1.5-0.2c0.5,0,1,0.1,1.5,0.2c0.5,0.1,0.9,0.3,1.2,0.5
				c0.4,0.2,0.6,0.5,0.9,0.9C348.2,61.4,348.3,61.8,348.3,62.3z M346.8,62.3c0-0.3-0.1-0.5-0.2-0.7c-0.1-0.2-0.3-0.3-0.5-0.4
				c-0.2-0.1-0.5-0.2-0.8-0.3c-0.3-0.1-0.6-0.1-0.9-0.1c-0.3,0-0.6,0-0.9,0.1c-0.3,0.1-0.5,0.2-0.8,0.3s-0.4,0.3-0.5,0.5
				c-0.1,0.2-0.2,0.4-0.2,0.6v3c0,0.2,0.1,0.4,0.2,0.6c0.1,0.2,0.3,0.3,0.5,0.5c0.2,0.1,0.5,0.2,0.8,0.3c0.3,0.1,0.6,0.1,0.9,0.1
				c0.3,0,0.6,0,0.9-0.1c0.3-0.1,0.5-0.2,0.8-0.3s0.4-0.3,0.5-0.5s0.2-0.4,0.2-0.6V62.3z"/>
		</g>
		<g class="st2">
			<path class="st7" d="M5.3,44.5H4l-3.7-8.6H2l2.7,6.2l2.7-6.2H9L5.3,44.5z"/>
		</g>
		<g class="st2">
			<path class="st7" d="M10.8,33.9h1.6v1.1h-1.6V33.9z M12.4,44.5h-1.6v-8.5h1.6V44.5z"/>
			<path class="st7" d="M18.9,39.4c0.6,0,1.1,0,1.6,0.1c0.5,0.1,0.9,0.2,1.2,0.4c0.4,0.2,0.6,0.5,0.8,0.8s0.3,0.7,0.3,1.2
				c0,0.5-0.1,0.9-0.3,1.2c-0.2,0.3-0.5,0.6-0.8,0.8c-0.4,0.2-0.8,0.4-1.2,0.5c-0.5,0.1-1,0.2-1.5,0.2c-1.9,0-3.2-0.6-3.9-1.9
				l1.3-0.7c0.1,0.1,0.2,0.3,0.3,0.4s0.3,0.3,0.5,0.4c0.2,0.1,0.5,0.2,0.7,0.3c0.3,0.1,0.6,0.1,1,0.1c0.3,0,0.6,0,0.9-0.1
				s0.5-0.1,0.8-0.2s0.4-0.2,0.5-0.4s0.2-0.3,0.2-0.5c0-0.2-0.1-0.4-0.2-0.5s-0.3-0.3-0.5-0.3s-0.5-0.1-0.8-0.2
				c-0.3,0-0.6-0.1-0.9-0.1c-0.5,0-1,0-1.5-0.1c-0.5-0.1-0.9-0.2-1.2-0.4c-0.4-0.2-0.6-0.5-0.8-0.8S15,38.8,15,38.4
				c0-0.5,0.1-0.9,0.3-1.2c0.2-0.3,0.5-0.6,0.8-0.8c0.4-0.2,0.8-0.4,1.2-0.4c0.5-0.1,1-0.1,1.5-0.1c0.9,0,1.6,0.1,2.1,0.4
				s1.1,0.7,1.5,1.4l-1.4,0.8c-0.2-0.4-0.5-0.7-0.9-0.8c-0.4-0.1-0.8-0.2-1.4-0.2c-0.3,0-0.6,0-0.9,0.1c-0.3,0-0.5,0.1-0.8,0.2
				c-0.2,0.1-0.4,0.2-0.5,0.4c-0.1,0.1-0.2,0.3-0.2,0.5c0,0.2,0.1,0.4,0.2,0.5s0.3,0.2,0.5,0.3c0.2,0.1,0.5,0.1,0.8,0.2
				C18.3,39.4,18.6,39.4,18.9,39.4z"/>
			<path class="st7" d="M31.7,35.9h1.6v5.8c0,0.5-0.1,0.9-0.3,1.2c-0.2,0.4-0.5,0.7-0.8,0.9c-0.3,0.2-0.8,0.4-1.2,0.6
				s-1,0.2-1.5,0.2c-0.5,0-1.1-0.1-1.6-0.2s-0.9-0.3-1.3-0.6c-0.4-0.2-0.6-0.6-0.9-0.9c-0.2-0.4-0.3-0.8-0.3-1.2v-5.8h1.6v5.8
				c0,0.3,0.1,0.5,0.2,0.7c0.2,0.2,0.4,0.3,0.6,0.4c0.2,0.1,0.5,0.2,0.8,0.2c0.3,0,0.6,0.1,0.8,0.1c0.2,0,0.5,0,0.8-0.1
				c0.3,0,0.5-0.1,0.8-0.2c0.2-0.1,0.4-0.3,0.6-0.4c0.2-0.2,0.2-0.4,0.2-0.7V35.9z"/>
			<path class="st7" d="M39.7,35.8c0.5,0,1,0.1,1.5,0.2c0.5,0.1,0.9,0.3,1.2,0.5c0.4,0.2,0.6,0.5,0.8,0.9s0.3,0.8,0.3,1.3v3
				c0,0.5-0.1,1-0.3,1.3c-0.2,0.4-0.5,0.7-0.8,0.9c-0.3,0.2-0.8,0.4-1.2,0.5c-0.5,0.1-1,0.2-1.6,0.2c-0.5,0-1.1-0.1-1.5-0.2
				s-0.9-0.3-1.2-0.5c-0.4-0.2-0.6-0.5-0.8-0.9c-0.2-0.3-0.3-0.8-0.3-1.2c0-0.4,0.1-0.7,0.2-1c0.1-0.3,0.3-0.5,0.6-0.7
				s0.6-0.4,0.9-0.5c0.4-0.1,0.8-0.2,1.2-0.2h3.3v-0.8c0-0.2-0.1-0.4-0.2-0.6s-0.3-0.3-0.5-0.4c-0.2-0.1-0.5-0.2-0.7-0.3
				c-0.3-0.1-0.6-0.1-0.9-0.1c-1,0-1.7,0.3-2.2,0.9l-1.3-0.8c0.4-0.6,0.8-1,1.4-1.2S38.9,35.8,39.7,35.8z M42.1,41.6v-0.7h-3.3
				c-0.3,0-0.5,0-0.7,0.1c-0.2,0.1-0.3,0.1-0.4,0.2s-0.2,0.2-0.2,0.3c0,0.1-0.1,0.2-0.1,0.3c0,0.2,0.1,0.4,0.2,0.6
				c0.1,0.2,0.3,0.3,0.5,0.4c0.2,0.1,0.5,0.2,0.8,0.2s0.6,0.1,0.9,0.1c0.6,0,1-0.1,1.3-0.2c0.3-0.1,0.5-0.3,0.7-0.4S42,42.2,42,42
				S42.1,41.7,42.1,41.6z"/>
			<path class="st7" d="M46.3,33.9h1.6v10.5h-1.6V33.9z"/>
			<path class="st7" d="M55.2,33.9h1.6v1.1h-1.6V33.9z M56.8,44.5h-1.6v-8.5h1.6V44.5z"/>
			<path class="st7" d="M67.3,33.9v7.7c0,0.5-0.1,0.9-0.3,1.2s-0.5,0.7-0.8,0.9c-0.3,0.3-0.8,0.4-1.2,0.6c-0.5,0.1-1,0.2-1.6,0.2
				c-0.6,0-1.1-0.1-1.6-0.2c-0.5-0.1-0.9-0.3-1.2-0.6c-0.4-0.2-0.6-0.6-0.8-0.9s-0.3-0.8-0.3-1.3v-3c0-0.5,0.1-1,0.3-1.3
				s0.5-0.7,0.8-0.9c0.4-0.2,0.8-0.4,1.2-0.5c0.5-0.1,1-0.2,1.5-0.2c0.7,0,1.2,0.1,1.5,0.2c0.4,0.1,0.6,0.2,0.8,0.4v-2.4H67.3z
				 M65.6,38.1c-0.1-0.2-0.3-0.3-0.5-0.5c-0.2-0.1-0.5-0.2-0.8-0.3s-0.6-0.1-0.9-0.1c-0.3,0-0.6,0-0.9,0.1c-0.3,0.1-0.5,0.1-0.8,0.3
				c-0.2,0.1-0.4,0.3-0.5,0.4c-0.1,0.2-0.2,0.4-0.2,0.7v3c0,0.2,0.1,0.4,0.2,0.6c0.1,0.2,0.3,0.3,0.5,0.5s0.5,0.2,0.8,0.3
				c0.3,0.1,0.6,0.1,0.9,0.1c0.3,0,0.6,0,0.9-0.1c0.3-0.1,0.5-0.2,0.7-0.3c0.2-0.1,0.4-0.3,0.5-0.5c0.1-0.2,0.2-0.4,0.2-0.6v-3
				C65.8,38.4,65.7,38.2,65.6,38.1z"/>
			<path class="st7" d="M76.3,42.2l1.4,0.8c-0.4,0.5-0.9,0.9-1.6,1.1c-0.7,0.3-1.4,0.4-2.2,0.4c-0.5,0-1-0.1-1.5-0.2
				c-0.5-0.1-0.9-0.3-1.2-0.5c-0.4-0.2-0.6-0.5-0.9-0.9c-0.2-0.4-0.3-0.8-0.3-1.3v-2.9c0-0.5,0.1-0.9,0.3-1.3
				c0.2-0.4,0.5-0.7,0.8-0.9c0.4-0.2,0.8-0.4,1.2-0.6c0.5-0.1,1-0.2,1.5-0.2c0.5,0,1,0.1,1.5,0.2c0.5,0.1,0.9,0.3,1.2,0.5
				c0.4,0.2,0.6,0.5,0.8,0.9c0.2,0.4,0.3,0.8,0.3,1.3v2.2h-6.3v0.8c0,0.2,0.1,0.4,0.2,0.6s0.3,0.3,0.5,0.5s0.5,0.2,0.7,0.3
				c0.3,0.1,0.6,0.1,0.9,0.1c0.5,0,0.9-0.1,1.3-0.2C75.7,42.7,76,42.5,76.3,42.2z M71.6,38.7v0.8h4.7v-0.8c0-0.2-0.1-0.5-0.2-0.6
				c-0.1-0.2-0.3-0.3-0.5-0.5c-0.2-0.1-0.5-0.2-0.8-0.3s-0.6-0.1-0.9-0.1s-0.6,0-0.9,0.1s-0.5,0.2-0.8,0.3c-0.2,0.1-0.4,0.3-0.5,0.5
				C71.7,38.2,71.6,38.4,71.6,38.7z"/>
			<path class="st7" d="M86.8,38.7c0-0.3-0.1-0.5-0.2-0.7c-0.2-0.2-0.4-0.3-0.6-0.4c-0.2-0.1-0.5-0.2-0.8-0.2
				c-0.3,0-0.5-0.1-0.8-0.1c-0.3,0-0.5,0-0.8,0.1c-0.3,0-0.5,0.1-0.8,0.2c-0.2,0.1-0.4,0.3-0.6,0.4S82,38.4,82,38.7v5.8h-1.6v-5.8
				c0-0.5,0.1-0.9,0.3-1.2c0.2-0.4,0.5-0.7,0.8-0.9c0.4-0.2,0.8-0.4,1.2-0.6c0.5-0.1,1-0.2,1.5-0.2c0.6,0,1.1,0.1,1.6,0.2
				s0.9,0.3,1.2,0.6c0.4,0.2,0.6,0.5,0.8,0.9c0.2,0.4,0.3,0.8,0.3,1.2v5.8h-1.6V38.7z"/>
		</g>
		<g class="st2">
			<path class="st7" d="M95.4,43H97v1.5h-1.6c-0.6,0-1.1-0.1-1.5-0.2c-0.5-0.1-0.9-0.3-1.2-0.6c-0.3-0.2-0.6-0.5-0.8-0.9
				c-0.2-0.4-0.3-0.8-0.3-1.2v-4.4h-1.2v-1.2h1.2v-1.3h1.6v1.3h2.4v1.2h-2.4v4.4c0,0.4,0.2,0.8,0.6,1C94.2,42.9,94.8,43,95.4,43z"/>
		</g>
		<g class="st2">
			<path class="st7" d="M98.9,33.9h1.6v1.1h-1.6V33.9z M100.4,44.5h-1.6v-8.5h1.6V44.5z"/>
		</g>
		<g class="st2">
			<path class="st7" d="M107.5,43h1.6v1.5h-1.6c-0.6,0-1.1-0.1-1.5-0.2c-0.5-0.1-0.9-0.3-1.2-0.6c-0.3-0.2-0.6-0.5-0.8-0.9
				c-0.2-0.4-0.3-0.8-0.3-1.2v-4.4h-1.2v-1.2h1.2v-1.3h1.6v1.3h2.4v1.2h-2.4v4.4c0,0.4,0.2,0.8,0.6,1C106.3,42.9,106.8,43,107.5,43z
				"/>
		</g>
		<g class="st2">
			<path class="st7" d="M116.9,35.9h1.6l-3.8,8.9c-0.1,0.3-0.3,0.6-0.5,0.8s-0.4,0.3-0.7,0.4s-0.6,0.1-0.9,0.2c-0.4,0-0.8,0-1.2,0
				v-1.5c0.4,0,0.8,0,1,0c0.2,0,0.4-0.1,0.6-0.1c0.1-0.1,0.2-0.2,0.3-0.3c0.1-0.1,0.1-0.3,0.2-0.5c-0.1-0.3-0.3-0.6-0.4-1
				c-0.2-0.4-0.3-0.8-0.5-1.2c-0.2-0.4-0.4-0.9-0.6-1.3s-0.4-0.9-0.6-1.3c-0.4-1-0.9-2-1.4-3.1h1.7l2.6,6L116.9,35.9z"/>
		</g>
		<g class="st2">
			<path class="st8" d="M211,3.8c0.5,0,1,0.1,1.5,0.2c0.5,0.1,0.9,0.3,1.2,0.5c0.4,0.2,0.6,0.5,0.8,0.9c0.2,0.4,0.3,0.8,0.3,1.3v3
				c0,0.5-0.1,1-0.3,1.3c-0.2,0.4-0.5,0.7-0.8,0.9c-0.3,0.2-0.8,0.4-1.2,0.5c-0.5,0.1-1,0.2-1.6,0.2c-0.5,0-1.1-0.1-1.5-0.2
				c-0.5-0.1-0.9-0.3-1.2-0.5c-0.4-0.2-0.6-0.5-0.8-0.9c-0.2-0.3-0.3-0.8-0.3-1.2c0-0.4,0.1-0.7,0.2-1c0.1-0.3,0.3-0.5,0.6-0.7
				s0.6-0.4,0.9-0.5c0.4-0.1,0.8-0.2,1.2-0.2h3.3V6.7c0-0.2-0.1-0.4-0.2-0.6s-0.3-0.3-0.5-0.4c-0.2-0.1-0.5-0.2-0.7-0.3
				c-0.3-0.1-0.6-0.1-0.9-0.1c-1,0-1.7,0.3-2.2,0.9l-1.3-0.8c0.4-0.6,0.8-1,1.4-1.2C209.5,3.9,210.2,3.8,211,3.8z M213.3,9.6V9H210
				c-0.3,0-0.5,0-0.7,0.1c-0.2,0.1-0.3,0.1-0.4,0.2s-0.2,0.2-0.2,0.3s-0.1,0.2-0.1,0.3c0,0.2,0.1,0.4,0.2,0.6
				c0.1,0.2,0.3,0.3,0.5,0.4c0.2,0.1,0.5,0.2,0.8,0.2c0.3,0,0.6,0.1,0.9,0.1c0.6,0,1-0.1,1.3-0.2c0.3-0.1,0.5-0.3,0.7-0.4
				s0.3-0.3,0.3-0.5S213.3,9.7,213.3,9.6z"/>
			<path class="st8" d="M217.6,6.8c0-0.9,0.3-1.6,1-2.1s1.6-0.8,2.8-0.8h2.1v1.5h-2.1c-0.7,0-1.2,0.1-1.6,0.4
				c-0.4,0.3-0.6,0.6-0.6,1v5.7h-1.6V6.8z"/>
			<path class="st8" d="M229.8,11h1.6v1.5h-1.6c-0.6,0-1.1-0.1-1.5-0.2c-0.5-0.1-0.9-0.3-1.2-0.6c-0.3-0.2-0.6-0.5-0.8-0.9
				s-0.3-0.8-0.3-1.2V5.2h-1.2V4h1.2V2.7h1.6V4h2.4v1.2h-2.4v4.4c0,0.4,0.2,0.8,0.6,1C228.6,10.9,229.1,11,229.8,11z"/>
		</g>
		<g class="st0">
			
				<rect x="256.7" y="162.6" transform="matrix(0.5889 -0.8082 0.8082 0.5889 -70.1768 297.8623)" class="st1" width="2" height="110.7"/>
		</g>
		<g>
			
				<rect x="229.7" y="96.5" transform="matrix(0.8754 -0.4834 0.4834 0.8754 -14.1298 140.0967)" class="st6" width="70.1" height="2"/>
		</g>
		<g>
			
				<rect x="139.8" y="236.7" transform="matrix(2.440679e-02 -0.9997 0.9997 2.440679e-02 -63.2325 410.6356)" class="st4" width="78" height="2"/>
		</g>
		<g>
			
				<rect x="93.8" y="183.7" transform="matrix(0.8429 -0.5381 0.5381 0.8429 -80.5781 93.4205)" class="st3" width="51.8" height="2"/>
		</g>
		<g>
			
				<rect x="111.3" y="33.2" transform="matrix(0.6214 -0.7835 0.7835 0.6214 -29.8289 122.9714)" class="st7" width="2" height="118.3"/>
		</g>
		<g>
			
				<rect x="156.9" y="74" transform="matrix(0.2384 -0.9712 0.9712 0.2384 84.0452 256.0812)" class="st8" width="96.7" height="1"/>
		</g>
	</g>
</g>
</svg>
