<svg xmlns="http://www.w3.org/2000/svg" viewBox="0 0 350 293.55"><defs><style>.cls-1,.cls-21{opacity:0.85;fill:#d069a9;}.cls-1,.cls-10,.cls-16,.cls-17,.cls-20,.cls-3{font-size:14.49px;}.cls-1,.cls-10,.cls-12,.cls-16,.cls-17,.cls-20,.cls-3{font-family:NordsternDemo-Bold, Nordstern;font-weight:700;}.cls-2{letter-spacing:-0.02em;}.cls-24,.cls-3{fill:#54b948;}.cls-4{letter-spacing:-0.01em;}.cls-5{letter-spacing:0em;}.cls-6{letter-spacing:0.02em;}.cls-7{letter-spacing:0em;}.cls-8{letter-spacing:-0.01em;}.cls-9{letter-spacing:0em;}.cls-10,.cls-23{fill:#008bce;}.cls-11{letter-spacing:-0.01em;}.cls-12{font-size:17.86px;fill:#838a97;}.cls-13{letter-spacing:-0.01em;}.cls-14{font-family:Odin-Bold, Odin Rounded;letter-spacing:0em;}.cls-15{font-family:NordsternDemo-Regular, Nordstern;font-weight:400;letter-spacing:0em;}.cls-16,.cls-22{fill:#8967ac;}.cls-17,.cls-25{fill:#54c2ba;}.cls-18{letter-spacing:0.01em;}.cls-19{letter-spacing:0.02em;}.cls-20,.cls-26{fill:#ffd105;}.cls-21{stroke:#d069a9;}.cls-21,.cls-22,.cls-23,.cls-24,.cls-25,.cls-26{stroke-miterlimit:10;}.cls-21,.cls-22,.cls-23,.cls-24,.cls-25{stroke-width:2px;}.cls-22{stroke:#8967ac;}.cls-23{stroke:#008bce;}.cls-24{stroke:#54b948;}.cls-25{stroke:#54c2ba;}.cls-26{stroke:#ffd105;}</style></defs><g id="Layer_2" data-name="Layer 2"><g id="Layer_1-2" data-name="Layer 1"><text class="cls-1" transform="translate(264.79 265.85) scale(1.05 1)">b<tspan class="cls-2" x="10.07" y="0">r</tspan><tspan x="17.2" y="0">anding</tspan></text><text class="cls-3" transform="translate(36.97 218.09) scale(1.05 1)">s<tspan class="cls-4" x="9.77" y="0">t</tspan><tspan class="cls-5" x="16.88" y="0">o</tspan><tspan class="cls-6" x="26.95" y="0">r</tspan><tspan class="cls-7" x="34.66" y="0">y</tspan><tspan class="cls-8" x="43.28" y="0">t</tspan><tspan class="cls-9" x="50.4" y="0">elling</tspan></text><text class="cls-10" transform="translate(160.7 290.61) scale(1.05 1)"><tspan class="cls-11">w</tspan><tspan x="12.56" y="0">eb</tspan></text><text class="cls-12" transform="translate(92.3 157.99)"><tspan class="cls-13">f</tspan><tspan x="6.39" y="0">ocuspocus</tspan><tspan class="cls-14" x="116.65" y="0">.</tspan><tspan class="cls-15" x="120.16" y="0">design</tspan></text><text class="cls-16" transform="translate(262.59 68.09) scale(1.05 1)"><tspan class="cls-7">p</tspan><tspan x="10" y="0">ackaging</tspan></text><text class="cls-17" transform="translate(0 44.45) scale(1.05 1)"><tspan class="cls-18">v</tspan><tspan x="9" y="0">isual iden</tspan><tspan class="cls-18" x="85.45" y="0">t</tspan><tspan x="92.85" y="0">i</tspan><tspan class="cls-19" x="96.95" y="0">t</tspan><tspan class="cls-9" x="104.5" y="0">y</tspan></text><text class="cls-20" transform="translate(205.9 12.5) scale(1.05 1)">art</text><line class="cls-21" x1="212.96" y1="185.32" x2="302.42" y2="250.5"/><line class="cls-22" x1="234.05" y1="114.39" x2="295.39" y2="80.53"/><line class="cls-23" x1="179.73" y1="198.74" x2="177.82" y2="276.69"/><line class="cls-24" x1="141.49" y1="170.75" x2="97.85" y2="198.61"/><line class="cls-25" x1="158.65" y1="129.09" x2="66" y2="55.61"/><line class="cls-26" x1="193.79" y1="121.42" x2="216.8" y2="27.49"/></g></g></svg>