<svg id="Layer_1" data-name="Layer 1" xmlns="http://www.w3.org/2000/svg" viewBox="0 0 300 192.71"><defs><style>.cls-1{fill:#ee4179;}.cls-2{fill:#05818d;}</style></defs><path class="cls-1" d="M76.73,122.76a3.49,3.49,0,0,1-2.5-.87,3.23,3.23,0,0,1-.91-2.44,3.19,3.19,0,0,1,1-2.42,3.31,3.31,0,0,1,2.41-.91,3.79,3.79,0,0,1,1.26.21,2.67,2.67,0,0,1,.9.48,2.18,2.18,0,0,1-.37.77,2.27,2.27,0,0,1-.64.6,1.64,1.64,0,0,0-1.1-.43,1.3,1.3,0,0,0-1.07.47,1.86,1.86,0,0,0-.38,1.21,1.93,1.93,0,0,0,.37,1.22,1.32,1.32,0,0,0,1.1.48,1.76,1.76,0,0,0,1.2-.46,1.85,1.85,0,0,1,1,1.28A3.15,3.15,0,0,1,76.73,122.76Z"/><path class="cls-1" d="M90.75,119a6,6,0,0,1-.06.91H86.55a1.36,1.36,0,0,0,1.53,1.27,3.42,3.42,0,0,0,1.84-.63,1.85,1.85,0,0,1,.7,1.33,4.42,4.42,0,0,1-2.74.87,3.34,3.34,0,0,1-2.4-.87,3.15,3.15,0,0,1-.91-2.4,3.24,3.24,0,0,1,.92-2.4,3.13,3.13,0,0,1,2.32-.93,3,3,0,0,1,2.13.77A2.75,2.75,0,0,1,90.75,119Zm-4.2-.19h2.36a1.35,1.35,0,0,0-.26-.83,1.08,1.08,0,0,0-.83-.36A1.19,1.19,0,0,0,87,118,1.47,1.47,0,0,0,86.55,118.82Z"/><path class="cls-1" d="M100.19,116.12a3.14,3.14,0,0,1,2.25.72,2.58,2.58,0,0,1,.75,1.93v3.77a6,6,0,0,1-2,0v-3.45a1.05,1.05,0,0,0-1.18-1.21,2.1,2.1,0,0,0-1,.26v4.4a6.48,6.48,0,0,1-1,.08,6.22,6.22,0,0,1-1-.08v-5.39a4,4,0,0,1,1.26-.72A5.24,5.24,0,0,1,100.19,116.12Z"/><path class="cls-1" d="M114,120.71a1.54,1.54,0,0,1,.52.55,1.91,1.91,0,0,1,.29.78,3.17,3.17,0,0,1-2,.7,3,3,0,0,1-1.82-.52,1.87,1.87,0,0,1-.68-1.6v-2.69h-1.06a5.67,5.67,0,0,1-.07-.82,5.78,5.78,0,0,1,.07-.77h1.06v-1.55a6.78,6.78,0,0,1,1-.07,5.61,5.61,0,0,1,.94.07v1.55h2.17a3.26,3.26,0,0,1,.1.77,3.86,3.86,0,0,1-.1.82h-2.17v2.2a1,1,0,0,0,.23.73.94.94,0,0,0,.68.21A1.32,1.32,0,0,0,114,120.71Z"/><path class="cls-1" d="M123.5,116.13a4.86,4.86,0,0,1,1.44.18,2.78,2.78,0,0,1-.55,1.69,2.86,2.86,0,0,0-.75-.09,2.14,2.14,0,0,0-1,.18v4.45a6.17,6.17,0,0,1-1,.08,6.35,6.35,0,0,1-1-.08v-5.46a4.06,4.06,0,0,1,1.13-.66A4.39,4.39,0,0,1,123.5,116.13Z"/><path class="cls-1" d="M135.94,116.26a5.3,5.3,0,0,1,1,.08V122a6.19,6.19,0,0,1-3.09.72c-2,0-3-.84-3-2.52v-3.9a5.3,5.3,0,0,1,1-.08,5.1,5.1,0,0,1,1,.08v3.47a1.47,1.47,0,0,0,.25,1,1.24,1.24,0,0,0,.94.29,2.12,2.12,0,0,0,1-.2v-4.52A5.18,5.18,0,0,1,135.94,116.26Z"/><path class="cls-1" d="M158.62,116.12a3.05,3.05,0,0,1,2.14.68,2.39,2.39,0,0,1,.73,1.83v3.91a6,6,0,0,1-2,0v-3.48c0-.79-.37-1.18-1.1-1.18a1.9,1.9,0,0,0-1,.33c0,.19,0,.33,0,.42v3.91a6.37,6.37,0,0,1-1,.08,6.24,6.24,0,0,1-1-.08v-3.48c0-.79-.37-1.18-1.11-1.18a2,2,0,0,0-1,.26v4.4a6.48,6.48,0,0,1-1,.08,6.22,6.22,0,0,1-1-.08v-5.39a4.51,4.51,0,0,1,1.28-.71,5.2,5.2,0,0,1,1.85-.32,3.22,3.22,0,0,1,2,.58A3.79,3.79,0,0,1,158.62,116.12Z"/><path class="cls-1" d="M173.92,119a4.88,4.88,0,0,1-.07.91h-4.13a1.35,1.35,0,0,0,1.53,1.27,3.41,3.41,0,0,0,1.83-.63,1.86,1.86,0,0,1,.71,1.33,4.45,4.45,0,0,1-2.75.87,3.31,3.31,0,0,1-2.39-.87,3.16,3.16,0,0,1-.92-2.4,3.28,3.28,0,0,1,.92-2.4,3.14,3.14,0,0,1,2.32-.93,3,3,0,0,1,2.14.77A2.75,2.75,0,0,1,173.92,119Zm-4.2-.19h2.35a1.29,1.29,0,0,0-.26-.83,1.06,1.06,0,0,0-.82-.36,1.22,1.22,0,0,0-.88.32A1.41,1.41,0,0,0,169.72,118.82Z"/><path class="cls-1" d="M185.37,113.87a5.33,5.33,0,0,1,1,.07v8.21a6.15,6.15,0,0,1-2.79.61,3.84,3.84,0,0,1-2.67-.85,3.48,3.48,0,0,1,0-4.84,3.49,3.49,0,0,1,2.47-.91,3.86,3.86,0,0,1,1,.11v-2.33A5.24,5.24,0,0,1,185.37,113.87Zm-1.88,7.23a3.63,3.63,0,0,0,.92-.12v-3a2,2,0,0,0-.89-.18,1.65,1.65,0,0,0-1.17.44,1.8,1.8,0,0,0,0,2.39A1.55,1.55,0,0,0,183.49,121.1Z"/><path class="cls-1" d="M194.78,115.18a1.13,1.13,0,0,1-.83.35,1.18,1.18,0,0,1-1.17-1.18,1.09,1.09,0,0,1,.34-.82,1.13,1.13,0,0,1,.83-.34,1.12,1.12,0,0,1,.83.34,1.1,1.1,0,0,1,.35.82A1.14,1.14,0,0,1,194.78,115.18Zm-.84,7.44a6.56,6.56,0,0,1-1-.08v-6.2a5.1,5.1,0,0,1,1-.08,5.46,5.46,0,0,1,1,.08v6.2A6.17,6.17,0,0,1,193.94,122.62Z"/><path class="cls-1" d="M204.64,122.76a3.47,3.47,0,0,1-2.5-.87,3.63,3.63,0,0,1,0-4.86,3.34,3.34,0,0,1,2.42-.91,3.79,3.79,0,0,1,1.26.21,2.71,2.71,0,0,1,.89.48,2.15,2.15,0,0,1-.36.77,2.41,2.41,0,0,1-.64.6,1.66,1.66,0,0,0-1.1-.43,1.3,1.3,0,0,0-1.07.47,1.81,1.81,0,0,0-.38,1.21,1.93,1.93,0,0,0,.37,1.22,1.3,1.3,0,0,0,1.09.48,1.76,1.76,0,0,0,1.2-.46,1.89,1.89,0,0,1,1,1.28A3.15,3.15,0,0,1,204.64,122.76Z"/><path class="cls-1" d="M215.51,116.16a3.43,3.43,0,0,1,2.23.66,2.49,2.49,0,0,1,.81,2.06v3.25a8.22,8.22,0,0,1-3.14.62,3.55,3.55,0,0,1-2.08-.52,1.75,1.75,0,0,1-.73-1.52,1.68,1.68,0,0,1,.74-1.47,3.33,3.33,0,0,1,2-.49,4.76,4.76,0,0,1,1.31.18v-.25c0-.61-.43-.92-1.28-.92a2.69,2.69,0,0,0-1.69.54,1.64,1.64,0,0,1-.84-1.24,4.05,4.05,0,0,1,1.08-.62A4.33,4.33,0,0,1,215.51,116.16Zm-1,4.47a.67.67,0,0,0,.29.56,1.49,1.49,0,0,0,.84.2,3.28,3.28,0,0,0,.94-.15v-1.13a3.69,3.69,0,0,0-1.07-.15C214.88,120,214.55,120.18,214.55,120.63Z"/><path class="cls-1" d="M226,122.62a6.83,6.83,0,0,1-1-.08v-8.6a4.91,4.91,0,0,1,.95-.07,5.76,5.76,0,0,1,1,.07v8.6A6,6,0,0,1,226,122.62Z"/><path class="cls-2" d="M7.18,77.84v8.65H20.56v5.77H7.18v8.64H23v5.77H1.41V72.07H23v5.77Z"/><path class="cls-2" d="M106.17,77.84v8.65h13.38v5.77H106.17v14.41h-5.76V72.07H122v5.77Z"/><path class="cls-2" d="M176.66,89.38a17.3,17.3,0,1,1-17.3-17.31A17.31,17.31,0,0,1,176.66,89.38Zm-5.77,0a11.54,11.54,0,1,0-11.53,11.53A11.53,11.53,0,0,0,170.89,89.38Z"/><path class="cls-2" d="M223.75,106.67h-7l-9.92-14.41h-4.28v14.41h-5.77V72.07h14.9a10.09,10.09,0,0,1,2,20ZM211.68,86.49a4.33,4.33,0,1,0,0-8.65h-9.13v8.65Z"/><path class="cls-2" d="M243.87,106.67V72.07h5.77v34.6Z"/><path class="cls-2" d="M298.9,106.67h-6.25l-2.39-5.74H278.43l-2.4,5.74h-6.26L284.38,71.8Zm-11-11.51-3.5-8.39-3.51,8.39Z"/><circle class="cls-1" cx="77.68" cy="72.89" r="2.71" transform="translate(4.64 150.43) rotate(-89.89)"/><circle class="cls-2" cx="61.97" cy="76.03" r="5.84"/><circle class="cls-1" cx="61.97" cy="93.13" r="4.69"/><circle class="cls-1" cx="46.27" cy="72.89" r="2.71" transform="translate(-26.72 119.02) rotate(-89.89)"/><path class="cls-2" d="M79,93.36v-.65a5.78,5.78,0,0,1,1.49-4.06,3.83,3.83,0,1,0-5.6-.05,5.91,5.91,0,0,1,1.55,4v.71a5.8,5.8,0,0,1-1.86,4.32A4.68,4.68,0,0,0,73,101.1a5.29,5.29,0,0,0,.07.8l-7.13,3.44a1.54,1.54,0,0,1-1.61-.16,3.84,3.84,0,0,0-4.69,0,1.55,1.55,0,0,1-1.62.16l-7.13-3.44a4.25,4.25,0,0,0,.07-.8,4.67,4.67,0,0,0-1.54-3.48,5.76,5.76,0,0,1-1.86-4.32v-.71A5.69,5.69,0,0,1,49,88.65a3.83,3.83,0,1,0-5.6-.05,5.91,5.91,0,0,1,1.55,4v.77a6.06,6.06,0,0,1-2,4.35,4.63,4.63,0,0,0-1.43,3.91,4.68,4.68,0,0,0,8.16,2.58l7.59,3.66a1.52,1.52,0,0,1,.85,1.09,3.83,3.83,0,0,0,7.52,0,1.56,1.56,0,0,1,.86-1.09l7.58-3.66a4.68,4.68,0,1,0,6.74-6.49A6,6,0,0,1,79,93.36Z"/></svg>