<?xml version="1.0" encoding="utf-8"?>
<!-- Generator: Adobe Illustrator 25.1.0, SVG Export Plug-In . SVG Version: 6.00 Build 0)  -->
<svg version="1.1" id="Capa_1" xmlns="http://www.w3.org/2000/svg" xmlns:xlink="http://www.w3.org/1999/xlink" x="0px" y="0px"
	 viewBox="0 0 512 512" style="enable-background:new 0 0 512 512;" xml:space="preserve">
<style type="text/css">
	.st0{fill:#333;}
</style>
<g id="Expand">
	<path class="st0" d="M386.9,130.7c0-3-2.6-5.7-5.6-5.6h-63.7c-3.1,0-5.6,2.5-5.6,5.6s2.5,5.6,5.6,5.6h50.1L282,222
		c-2.2,2.2-2.2,5.8,0,8c1.1,1.1,2.5,1.6,4,1.6c1.4,0,2.9-0.5,4-1.6l85.6-85.6v50.1c0,3.1,2.5,5.6,5.6,5.6s5.6-2.5,5.6-5.6
		L386.9,130.7C386.9,130.7,386.9,130.7,386.9,130.7z"/>
	<path class="st0" d="M230,282c-2.2-2.2-5.8-2.2-8,0l-85.6,85.6v-50.1c0-3.1-2.5-5.6-5.6-5.6c-3.1,0-5.6,2.5-5.6,5.6v63.7
		c-0.1,3,2.6,5.7,5.6,5.6h63.7c3.1,0,5.6-2.5,5.6-5.6s-2.5-5.6-5.6-5.6h-50.1L230,290C232.2,287.8,232.2,284.2,230,282z"/>
	<path d="M385.8,384.6c0.7-1,1.1-2.2,1.1-3.4v-63.7c0-3.1-2.5-5.6-5.6-5.6c-3.1,0-5.6,2.5-5.6,5.6v50.1L144.3,136.4h50.1
		c3.1,0,5.6-2.5,5.6-5.6s-2.5-5.6-5.6-5.6h-63.7c-3-0.1-5.7,2.6-5.6,5.6v63.7c0,3.1,2.5,5.6,5.6,5.6c3.1,0,5.6-2.5,5.6-5.6v-50.1
		l231.3,231.3h-50.1c-3.1,0-5.6,2.5-5.6,5.6c0,3.1,2.5,5.6,5.6,5.6h63.7C383,386.9,384.7,386,385.8,384.6z"/>
</g>
</svg>
