<svg id="ezcIH5pANkV1" xmlns="http://www.w3.org/2000/svg" xmlns:xlink="http://www.w3.org/1999/xlink" viewBox="0 0 261.8 161.8" shape-rendering="geometricPrecision" text-rendering="geometricPrecision">
<style><![CDATA[
#ezcIH5pANkV53_to {animation: ezcIH5pANkV53_to__to 3340ms linear infinite alternate-reverse forwards}@keyframes ezcIH5pANkV53_to__to { 0% {offset-distance: 0%} 2.994012% {offset-distance: 4.922825%} 7.48503% {offset-distance: 9.844503%} 11.976048% {offset-distance: 14.943621%} 17.664671% {offset-distance: 21.208232%} 23.053892% {offset-distance: 27.477243%} 29.94012% {offset-distance: 34.972025%} 34.431138% {offset-distance: 39.92138%} 36.826347% {offset-distance: 42.437427%} 38.922156% {offset-distance: 44.938736%} 41.317365% {offset-distance: 47.433178%} 43.413174% {offset-distance: 49.929713%} 47.904192% {offset-distance: 54.845584%} 54.491018% {offset-distance: 62.325517%} 58.083832% {offset-distance: 66.427824%} 65.868263% {offset-distance: 74.856502%} 83.832335% {offset-distance: 94.892829%} 88.323353% {offset-distance: 100%} 100% {offset-distance: 100%}} #ezcIH5pANkV54_to {animation: ezcIH5pANkV54_to__to 3340ms linear infinite alternate-reverse forwards}@keyframes ezcIH5pANkV54_to__to { 0% {offset-distance: 0%} 5.08982% {offset-distance: 1.612746%} 8.982036% {offset-distance: 6.378434%} 13.473054% {offset-distance: 11.143012%} 17.964072% {offset-distance: 16.079366%} 23.652695% {offset-distance: 22.144011%} 29.041916% {offset-distance: 28.212915%} 35.928144% {offset-distance: 35.468463%} 40.419162% {offset-distance: 40.259834%} 42.814371% {offset-distance: 42.695568%} 44.91018% {offset-distance: 45.117036%} 47.305389% {offset-distance: 47.531855%} 49.101796% {offset-distance: 49.393787%} 49.401198% {offset-distance: 49.984113%} 53.892216% {offset-distance: 54.74307%} 60.479042% {offset-distance: 61.984243%} 64.071856% {offset-distance: 65.955605%} 71.856287% {offset-distance: 74.115238%} 87.125749% {offset-distance: 90.512642%} 89.221557% {offset-distance: 92.768628%} 89.820359% {offset-distance: 93.420953%} 90.718563% {offset-distance: 94.39912%} 92.215569% {offset-distance: 96.042637%} 94.311377% {offset-distance: 98.359399%} 100% {offset-distance: 100%}} #ezcIH5pANkV55_to {animation: ezcIH5pANkV55_to__to 3340ms linear infinite alternate-reverse forwards}@keyframes ezcIH5pANkV55_to__to { 0% {offset-distance: 0%} 10.179641% {offset-distance: 1.638656%} 14.670659% {offset-distance: 6.480908%} 17.964072% {offset-distance: 10.41323%} 19.161677% {offset-distance: 11.344206%} 23.652695% {offset-distance: 16.359865%} 29.341317% {offset-distance: 22.521943%} 34.730539% {offset-distance: 28.688348%} 41.616766% {offset-distance: 36.060463%} 46.107784% {offset-distance: 40.92881%} 47.904192% {offset-distance: 42.780413%} 48.502994% {offset-distance: 43.404106%} 50.598802% {offset-distance: 45.864476%} 52.994012% {offset-distance: 48.318091%} 55.08982% {offset-distance: 50.773765%} 59.580838% {offset-distance: 55.609178%} 66.167665% {offset-distance: 62.966686%} 69.760479% {offset-distance: 67.00185%} 77.54491% {offset-distance: 75.292574%} 95.508982% {offset-distance: 94.973189%} 100% {offset-distance: 100%}}
]]></style>
<g><g><path d="M54.9,100.2c-26.2,0-47.5-21.3-47.5-47.5s21.4-47.5,47.5-47.5s47.5,21.3,47.5,47.5-21.3,47.5-47.5,47.5Zm0-94.6c-25.9,0-47,21.1-47,47.1s21.1,47.1,47,47.1s47.1-21.2,47.1-47.1-21.1-47.1-47.1-47.1Z" fill="#d6d6d6"/></g><g><path d="M83.3,156.9c-10.5,0-19.1-8.6-19.1-19.1s8.6-19.1,19.1-19.1s19.1,8.6,19.1,19.1c.1,10.6-8.5,19.1-19.1,19.1Zm0-37.8c-10.3,0-18.7,8.4-18.7,18.7s8.4,18.7,18.7,18.7s18.7-8.4,18.7-18.7-8.4-18.7-18.7-18.7Z" fill="#d6d6d6"/></g><g><path d="M92.8,119.1c-5.3,0-9.7-4.3-9.7-9.7c0-5.3,4.3-9.7,9.7-9.7c5.3,0,9.7,4.3,9.7,9.7-.1,5.4-4.4,9.7-9.7,9.7Zm0-18.9c-5.1,0-9.3,4.2-9.3,9.3s4.2,9.3,9.3,9.3s9.3-4.2,9.3-9.3-4.2-9.3-9.3-9.3Z" fill="#d6d6d6"/></g><g><g><path d="M178,156.7c-41.8,0-75.8-34-75.8-75.8s34-75.8,75.8-75.8s75.8,34,75.8,75.8-34,75.8-75.8,75.8ZM178,5.6c-41.6,0-75.4,33.8-75.4,75.4s33.8,75.4,75.4,75.4s75.4-33.8,75.4-75.4-33.8-75.4-75.4-75.4Z" fill="#d6d6d6"/></g></g><g><path d="M36,156.9c-15.8,0-28.6-12.8-28.6-28.6s12.9-28.5,28.6-28.5s28.6,12.8,28.6,28.6-12.8,28.5-28.6,28.5ZM36,100c-15.6,0-28.3,12.7-28.3,28.3s12.7,28.3,28.3,28.3s28.3-12.7,28.3-28.3C64.4,112.7,51.7,100,36,100Z" fill="#d6d6d6"/></g></g><g><g opacity="0.85"><path d="M253.8,156.7h-.4c0-83.3-67.8-151.1-151.1-151.1v-.4c20.5,0,40.3,4,59,11.9c18.1,7.6,34.3,18.6,48.2,32.5s24.8,30.1,32.5,48.2c7.8,18.6,11.8,38.5,11.8,58.9Z" fill="#0e8acb"/></g><g opacity="0.85"><path d="M7.9,100h-.5c0-25.3,9.9-49.2,27.8-67c17.9-18,41.7-27.8,67-27.8v.4C50.2,5.6,7.9,47.9,7.9,100Z" fill="#ffd00a"/></g><g opacity="0.85"><path d="M64.4,156.9c-31.4,0-57-25.6-57-57h.4c0,31.2,25.4,56.5,56.5,56.5v.5Z" fill="#54b848"/></g><g opacity="0.85"><path d="M64.4,156.9v-.4c20.7,0,37.6-16.9,37.6-37.6h.4c0,21-17,38-38,38Z" fill="#3b4e80"/></g><g opacity="0.85"><path d="M102.4,118.9h-.4c0-10.3-8.4-18.7-18.7-18.7v-.4c10.6,0,19.1,8.6,19.1,19.1Z" fill="#55c2b9"/></g><g opacity="0.85"><path d="M64.6,118.9h-.4c0-10.5,8.6-19.1,19.1-19.1v.4c-10.3,0-18.7,8.4-18.7,18.7Z" fill="#d62027"/></g></g><g><rect width="258.6" height="0.2" rx="0" ry="0" transform="translate(1.6 5.3)" fill="#f9f9f9"/><rect width="258.6" height="0.2" rx="0" ry="0" transform="translate(1.6 99.9)" fill="#f9f9f9"/><rect width="258.6" height="0.2" rx="0" ry="0" transform="translate(1.6 118.8)" fill="#f9f9f9"/><rect width="258.6" height="0.2" rx="0" ry="0" transform="translate(1.6 156.6)" fill="#f9f9f9"/><g><rect width="0.2" height="159.8" rx="0" ry="0" transform="translate(7.6 1.1)" fill="#f9f9f9"/></g><g><rect width="0.2" height="159.8" rx="0" ry="0" transform="translate(64.3 1.1)" fill="#f9f9f9"/></g><g><rect width="0.2" height="159.8" rx="0" ry="0" transform="translate(83.2 1.1)" fill="#f9f9f9"/></g><g><rect width="0.2" height="159.8" rx="0" ry="0" transform="translate(102.2 1.1)" fill="#f9f9f9"/></g><g><rect width="0.2" height="159.8" rx="0" ry="0" transform="translate(253.5 1.1)" fill="#f9f9f9"/></g></g><g><path d="M147.1,113.1l.6-1.8c.3-.9.5-1.4.9-1.7v-.1c-.4-.3-.6-.8-.9-1.9l-.6-1.8c0-.2,0-.3.2-.3h.8c.1,0,.2.1.2.2l.6,1.8c.4,1.4.7,1.4,1.1,1.4h.4c.4,0,.7,0,1.1-1.4l.6-1.8c0-.1.1-.2.2-.2h.8c.2,0,.2.1.2.3l-.6,1.8c-.3,1.1-.5,1.6-.9,1.9v.1c.4.3.6.8.9,1.7l.6,1.8c0,.2,0,.3-.2.3h-.8c-.1,0-.2-.1-.2-.2l-.6-1.9c-.4-1.2-.7-1.2-1.1-1.2h-.4c-.4,0-.7,0-1.1,1.2l-.6,1.9c0,.1-.1.2-.2.2h-.8c-.1-.1-.2-.2-.2-.3Z" fill="#d6d6d6"/><path d="M156.9,109.2v-.9c0-.1.1-.2.2-.2h4c.1,0,.1.1.1.2v.9c0,.1,0,.2-.2.2h-4c-.1,0-.1-.1-.1-.2Zm0,1.1c0-.1.1-.2.2-.2h4c.1,0,.1.1.1.2v.9c0,.1,0,.2-.2.2h-4c-.1,0-.2-.1-.2-.2v-.9Z" fill="#d6d6d6"/><path d="M165.2,112.1v-5.6c0-1.5.7-2,1.7-2h.8c.1,0,.2.1.2.2v.8c0,.1-.1.2-.2.2h-.2c-.9,0-1.1.3-1.1,1.3v4.7c0,1,.2,1.3,1.1,1.3h.2c.1,0,.2.1.2.2v.8c0,.1-.1.2-.2.2h-.8c-1.1-.1-1.7-.6-1.7-2.1Z" fill="#d6d6d6"/><path d="M170,113.1v-6.5h-.9c-.1,0-.2-.1-.2-.2v-.6c0-.1.1-.2.2-.2h1.7c.1,0,.2.1.2.2v7.3c0,.1-.1.2-.2.2h-.6c-.1,0-.2,0-.2-.2Z" fill="#d6d6d6"/><path d="M176.6,111.9v-1.5h-1.4c-.1,0-.2-.1-.2-.2v-.9c0-.1.1-.2.2-.2h1.4v-1.5c0-.1.1-.2.2-.2h.9c.1,0,.2.1.2.2v1.5h1.4c.1,0,.1.1.1.2v.9c0,.1,0,.2-.2.2h-1.4v1.5c0,.1-.1.2-.2.2h-.9c0,0-.1-.1-.1-.2Z" fill="#d6d6d6"/><path d="M181.9,113.2l-1.3-3.3c0-.1,0-.2.1-.2h.9c.1,0,.3.1.3.2l.7,1.9l2.1-6c0-.1.1-.2.2-.2h1c.1,0,.2.1.1.2l-2.6,7.4c0,.1-.1.2-.2.2h-1.2c.1-.1,0-.1-.1-.2Z" fill="#d6d6d6"/><path d="M187.4,111.5c0-.1.1-.2.2-.2h.7c.1,0,.3.1.3.2c0,.7.5.8,1.3.8h.8c.7,0,1.1-.4,1.1-1.2v-.7c0-1-.4-1.2-1.1-1.2h-.6c-.7,0-1.4.1-1.5.7c0,.1-.1.2-.2.2h-.7c-.1,0-.2-.1-.2-.2l.5-4.1c0-.1.1-.2.2-.2h4.3c.1,0,.2.1.2.2v.5c0,.1-.1.2-.2.2h-3.4c-.1,0-.2.1-.2.2l-.2,2.1h.1c.1-.4.8-.5,1.4-.5h.6c1.4,0,2.2.5,2.2,2v.8c0,1.4-.7,2.2-2,2.2h-1.1c-1.7,0-2.5-.5-2.5-1.8Z" fill="#d6d6d6"/><path d="M194.2,113.9v-.8c0-.1.1-.2.2-.2h.2c.9,0,1.1-.3,1.1-1.3v-4.6c0-1-.2-1.3-1.1-1.3h-.2c-.1,0-.2-.1-.2-.2v-.8c0-.1.1-.2.2-.2h.8c1,0,1.7.5,1.7,2v5.6c0,1.5-.7,2-1.7,2h-.8c-.2,0-.2,0-.2-.2Z" fill="#d6d6d6"/><path d="M197.9,113.5l3.4-8.1c0-.1.1-.2.2-.2h.9c.1,0,.2.1.1.2l-3.4,8.1c0,.1-.1.2-.2.2h-.9c-.1,0-.2-.1-.1-.2Z" fill="#d6d6d6"/><path d="M203.5,113.1v-.7c0-1.7.7-2.2,1.8-2.7l1.3-.6c.7-.3,1-.6,1-1.3c0-.9-.5-1.2-1.1-1.2h-.5c-.8,0-1.3.3-1.3,1.3c0,.1-.1.2-.2.2h-.7c-.1,0-.2-.1-.2-.2c0-1.6.8-2.4,2.3-2.4h.7c1.4,0,2.2.9,2.2,2.2s-.8,2-1.6,2.3l-1.6.7c-.8.3-.9.8-.9,1.6h4c.1,0,.2.1.2.2v.5c0,.1-.1.2-.2.2h-5c-.1.1-.2.1-.2-.1Z" fill="#d6d6d6"/></g><g id="ezcIH5pANkV53_to" style="offset-path:path('M241.9,97.7C234.3,79.6,223.3,63.4,209.4,49.5C195.5,35.6,179.3,24.709744,161.2,17.009744C142.5,9.109744,122.7,5.1,102.2,5.1C78.000282,5.3,53,15,35.1,32.9C17.3,50.8,7.4,74.6,7.4,100C7.4,131.4,35.1,156.9,64.6,156.6C83.4,156.6,102.4,139.9,102.4,119C102.4,108.1,92.85,99.8,83.3,99.9C73.75,100,64.6,107.4,64.6,119C64.6,107.4,73.55,100,83.2,100C92.85,100,102.15,108.1,102,119C101.715165,139.69804,83.4,156.6,64.6,156.6C35.3,156.9,7.6,131,7.6,99.9C7.6,83.038554,12.068604,67.165458,19.048178,52.95C36.171358,24.752288,66.993872,5.3,102.2,5.3C171,5.5,253.8,58.867393,253.8,156.8C253.8,136.3,249.8,116.4,241.9,97.7');offset-rotate:0deg"><ellipse rx="5" ry="5" transform="translate(-0.25,-0.25)" fill="#d7e1f3" fill-rule="evenodd" stroke="#fffefe"/></g><g id="ezcIH5pANkV54_to" style="offset-path:path('M241.65,97.45Q234.05,79.35,241.9,97.7C234.3,79.6,223.3,63.4,209.4,49.5C195.5,35.6,179.3,24.709744,161.2,17.009744C142.5,9.109744,122.7,5.1,102.2,5.1C78.000282,5.3,53,15,35.1,32.9C17.3,50.8,7.4,74.6,7.4,100C7.4,131.4,35.1,156.9,64.6,156.6C83.4,156.6,102.4,139.9,102.4,119C102.4,108.1,92.85,99.8,83.3,99.9C73.75,100,64.6,107.4,64.6,119C64.6,107.4,73.55,100,83.2,100C91.189536,100,98.939158,103.984743,99.415424,112.632435C101.771828,113.764237,102.02581,117.12445,102,119C101.715165,139.69804,83.4,156.6,64.6,156.6C35.3,156.9,7.6,131,7.6,99.9C7.6,83.038554,12.068604,67.165458,19.048178,52.95C36.171358,24.752288,66.993872,5.3,102.2,5.3C165.68025,5.3,228.55925,47.82728,249.10321,121.524963C249.870617,128.4,252.671925,139.588971,253.358145,148.878143C252.488073,151.522771,253.8,154.147576,253.8,156.8C253.8,156.834532,253.423005,152.027563,253.6,144.798477C252.373025,139.23701,251.027889,132.214935,249.870617,124.973701C247.378475,115.076277,244.904394,104.811667,241.9,97.7Q249.55,116.15,241.65,97.45');offset-rotate:0deg"><ellipse rx="3.09" ry="3.09" transform="translate(0,0)" fill="#d7e1f3" stroke="#fffefe" stroke-linecap="round"/></g><g id="ezcIH5pANkV55_to" style="offset-path:path('M241.65,97.45Q234.05,79.35,241.9,97.7C234.3,79.6,223.3,63.4,209.4,49.5C198.990452,39.090452,184.173887,28.45887,171.8829,20.482617C167.053334,19.168032,165.745121,18.943304,161.2,17.009744C142.5,9.109744,122.7,5.1,102.2,5.1C78.000282,5.3,53,15,35.1,32.9C17.3,50.8,7.4,74.6,7.4,100C7.4,131.4,35.1,156.9,64.6,156.6C83.4,156.6,102.4,139.9,102.4,119C102.4,111.015794,97.054783,104.426619,90.668839,101.28466C88.188166,100.44759,85.854663,99.87325,83.3,99.9C73.75,100,64.6,107.4,64.6,119C64.6,107.4,73.55,100,83.2,100C92.85,100,102.15,108.1,102,119C101.715165,139.69804,83.4,156.6,64.6,156.6C35.3,156.9,7.6,131,7.6,99.9C7.6,83.038554,12.068604,67.165458,19.048178,52.95C36.171358,24.752288,66.993872,5.3,102.2,5.3C171,5.5,253.5,58.667393,253.5,156.6C253.5,136.1,249.55,116.15,241.65,97.45');offset-rotate:0deg"><ellipse rx="1.91" ry="1.91" transform="translate(0,0)" fill="#d7e1f3" stroke="#fffefe"/></g></svg>
