<?xml version="1.0" encoding="utf-8"?>
<!-- Generator: Adobe Illustrator 25.1.0, SVG Export Plug-In . SVG Version: 6.00 Build 0)  -->
<!DOCTYPE svg PUBLIC "-//W3C//DTD SVG 1.1//EN" "http://www.w3.org/Graphics/SVG/1.1/DTD/svg11.dtd" [
	<!ENTITY ns_extend "http://ns.adobe.com/Extensibility/1.0/">
	<!ENTITY ns_ai "http://ns.adobe.com/AdobeIllustrator/10.0/">
	<!ENTITY ns_graphs "http://ns.adobe.com/Graphs/1.0/">
	<!ENTITY ns_vars "http://ns.adobe.com/Variables/1.0/">
	<!ENTITY ns_imrep "http://ns.adobe.com/ImageReplacement/1.0/">
	<!ENTITY ns_sfw "http://ns.adobe.com/SaveForWeb/1.0/">
	<!ENTITY ns_custom "http://ns.adobe.com/GenericCustomNamespace/1.0/">
	<!ENTITY ns_adobe_xpath "http://ns.adobe.com/XPath/1.0/">
]>
<svg version="1.1" id="Layer_1" xmlns:x="&ns_extend;" xmlns:i="&ns_ai;" xmlns:graph="&ns_graphs;"
	 xmlns="http://www.w3.org/2000/svg" xmlns:xlink="http://www.w3.org/1999/xlink" x="0px" y="0px" viewBox="0 0 261.8 161.8"
	 style="enable-background:new 0 0 261.8 161.8;" xml:space="preserve">
<style type="text/css">
	.st0{fill:#D6D6D6;}
	.st1{opacity:0.85;}
	.st2{fill:#0E8ACB;}
	.st3{fill:#FFD00A;}
	.st4{fill:#54B848;}
	.st5{fill:#3B4E80;}
	.st6{fill:#55C2B9;}
	.st7{fill:#D62027;}
	.st8{fill:#F9F9F9;}
</style>
<metadata>
	<sfw  xmlns="&ns_sfw;">
		<slices></slices>
		<sliceSourceBounds  bottomLeftOrigin="true" height="6768.7" width="16180.3" x="-7939.7" y="-3299.6"></sliceSourceBounds>
	</sfw>
</metadata>
<g>
	<g>
		<path class="st0" d="M54.9,100.2c-26.2,0-47.5-21.3-47.5-47.5S28.8,5.2,54.9,5.2s47.5,21.3,47.5,47.5S81.1,100.2,54.9,100.2z
			 M54.9,5.6C29,5.6,7.9,26.7,7.9,52.7S29,99.8,54.9,99.8S102,78.6,102,52.7S80.9,5.6,54.9,5.6z"/>
	</g>
	<g>
		<path class="st0" d="M83.3,156.9c-10.5,0-19.1-8.6-19.1-19.1c0-10.5,8.6-19.1,19.1-19.1s19.1,8.6,19.1,19.1
			C102.5,148.4,93.9,156.9,83.3,156.9z M83.3,119.1c-10.3,0-18.7,8.4-18.7,18.7s8.4,18.7,18.7,18.7s18.7-8.4,18.7-18.7
			S93.6,119.1,83.3,119.1z"/>
	</g>
	<g>
		<path class="st0" d="M92.8,119.1c-5.3,0-9.7-4.3-9.7-9.7c0-5.3,4.3-9.7,9.7-9.7c5.3,0,9.7,4.3,9.7,9.7
			C102.4,114.8,98.1,119.1,92.8,119.1z M92.8,100.2c-5.1,0-9.3,4.2-9.3,9.3s4.2,9.3,9.3,9.3c5.1,0,9.3-4.2,9.3-9.3
			S97.9,100.2,92.8,100.2z"/>
	</g>
	<g>
		<g>
			<path class="st0" d="M178,156.7c-41.8,0-75.8-34-75.8-75.8s34-75.8,75.8-75.8c41.8,0,75.8,34,75.8,75.8S219.8,156.7,178,156.7z
				 M178,5.6c-41.6,0-75.4,33.8-75.4,75.4c0,41.6,33.8,75.4,75.4,75.4s75.4-33.8,75.4-75.4C253.4,39.4,219.6,5.6,178,5.6z"/>
		</g>
	</g>
	<g>
		<path class="st0" d="M36,156.9c-15.8,0-28.6-12.8-28.6-28.6S20.3,99.8,36,99.8s28.6,12.8,28.6,28.6S51.8,156.9,36,156.9z M36,100
			c-15.6,0-28.3,12.7-28.3,28.3c0,15.6,12.7,28.3,28.3,28.3s28.3-12.7,28.3-28.3C64.4,112.7,51.7,100,36,100z"/>
	</g>
</g>
<g>
	<g class="st1">
		<path class="st2" d="M253.8,156.7h-0.4c0-83.3-67.8-151.1-151.1-151.1V5.2c20.5,0,40.3,4,59,11.9c18.1,7.6,34.3,18.6,48.2,32.5
			c13.9,13.9,24.8,30.1,32.5,48.2C249.8,116.4,253.8,136.3,253.8,156.7z"/>
	</g>
	<g class="st1">
		<path class="st3" d="M7.9,100H7.4c0-25.3,9.9-49.2,27.8-67C53.1,15,76.9,5.2,102.2,5.2v0.4C50.2,5.6,7.9,47.9,7.9,100z"/>
	</g>
	<g class="st1">
		<path class="st4" d="M64.4,156.9c-31.4,0-57-25.6-57-57h0.4c0,31.2,25.4,56.5,56.5,56.5V156.9z"/>
	</g>
	<g class="st1">
		<path class="st5" d="M64.4,156.9v-0.4c20.7,0,37.6-16.9,37.6-37.6h0.4C102.4,139.9,85.4,156.9,64.4,156.9z"/>
	</g>
	<g class="st1">
		<path class="st6" d="M102.4,118.9H102c0-10.3-8.4-18.7-18.7-18.7v-0.4C93.9,99.8,102.4,108.4,102.4,118.9z"/>
	</g>
	<g class="st1">
		<path class="st7" d="M64.6,118.9h-0.4c0-10.5,8.6-19.1,19.1-19.1v0.4C73,100.2,64.6,108.6,64.6,118.9z"/>
	</g>
</g>
<g>
	<rect x="1.6" y="5.3" class="st8" width="258.6" height="0.2"/>
	<rect x="1.6" y="99.9" class="st8" width="258.6" height="0.2"/>
	<rect x="1.6" y="118.8" class="st8" width="258.6" height="0.2"/>
	<rect x="1.6" y="156.6" class="st8" width="258.6" height="0.2"/>
	<g>
		<rect x="7.6" y="1.1" class="st8" width="0.2" height="159.8"/>
	</g>
	<g>
		<rect x="64.3" y="1.1" class="st8" width="0.2" height="159.8"/>
	</g>
	<g>
		<rect x="83.2" y="1.1" class="st8" width="0.2" height="159.8"/>
	</g>
	<g>
		<rect x="102.2" y="1.1" class="st8" width="0.2" height="159.8"/>
	</g>
	<g>
		<rect x="253.5" y="1.1" class="st8" width="0.2" height="159.8"/>
	</g>
</g>
<g>
	<path class="st0" d="M147.1,113.1l0.6-1.8c0.3-0.9,0.5-1.4,0.9-1.7v-0.1c-0.4-0.3-0.6-0.8-0.9-1.9l-0.6-1.8c0-0.2,0-0.3,0.2-0.3
		h0.8c0.1,0,0.2,0.1,0.2,0.2l0.6,1.8c0.4,1.4,0.7,1.4,1.1,1.4h0.4c0.4,0,0.7,0,1.1-1.4l0.6-1.8c0-0.1,0.1-0.2,0.2-0.2h0.8
		c0.2,0,0.2,0.1,0.2,0.3l-0.6,1.8c-0.3,1.1-0.5,1.6-0.9,1.9v0.1c0.4,0.3,0.6,0.8,0.9,1.7l0.6,1.8c0,0.2,0,0.3-0.2,0.3h-0.8
		c-0.1,0-0.2-0.1-0.2-0.2l-0.6-1.9c-0.4-1.2-0.7-1.2-1.1-1.2H150c-0.4,0-0.7,0-1.1,1.2l-0.6,1.9c0,0.1-0.1,0.2-0.2,0.2h-0.8
		C147.2,113.3,147.1,113.2,147.1,113.1z"/>
	<path class="st0" d="M156.9,109.2v-0.9c0-0.1,0.1-0.2,0.2-0.2h4c0.1,0,0.1,0.1,0.1,0.2v0.9c0,0.1,0,0.2-0.2,0.2h-4
		C156.9,109.4,156.9,109.3,156.9,109.2z M156.9,110.3c0-0.1,0.1-0.2,0.2-0.2h4c0.1,0,0.1,0.1,0.1,0.2v0.9c0,0.1,0,0.2-0.2,0.2h-4
		c-0.1,0-0.2-0.1-0.2-0.2V110.3z"/>
	<path class="st0" d="M165.2,112.1v-5.6c0-1.5,0.7-2,1.7-2h0.8c0.1,0,0.2,0.1,0.2,0.2v0.8c0,0.1-0.1,0.2-0.2,0.2h-0.2
		c-0.9,0-1.1,0.3-1.1,1.3v4.7c0,1,0.2,1.3,1.1,1.3h0.2c0.1,0,0.2,0.1,0.2,0.2v0.8c0,0.1-0.1,0.2-0.2,0.2h-0.8
		C165.8,114.1,165.2,113.6,165.2,112.1z"/>
	<path class="st0" d="M170,113.1v-6.5h-0.9c-0.1,0-0.2-0.1-0.2-0.2v-0.6c0-0.1,0.1-0.2,0.2-0.2h1.7c0.1,0,0.2,0.1,0.2,0.2v7.3
		c0,0.1-0.1,0.2-0.2,0.2h-0.6C170.1,113.3,170,113.3,170,113.1z"/>
	<path class="st0" d="M176.6,111.9v-1.5h-1.4c-0.1,0-0.2-0.1-0.2-0.2v-0.9c0-0.1,0.1-0.2,0.2-0.2h1.4v-1.5c0-0.1,0.1-0.2,0.2-0.2
		h0.9c0.1,0,0.2,0.1,0.2,0.2v1.5h1.4c0.1,0,0.1,0.1,0.1,0.2v0.9c0,0.1,0,0.2-0.2,0.2h-1.4v1.5c0,0.1-0.1,0.2-0.2,0.2h-0.9
		C176.7,112.1,176.6,112,176.6,111.9z"/>
	<path class="st0" d="M181.9,113.2l-1.3-3.3c0-0.1,0-0.2,0.1-0.2h0.9c0.1,0,0.3,0.1,0.3,0.2l0.7,1.9l2.1-6c0-0.1,0.1-0.2,0.2-0.2h1
		c0.1,0,0.2,0.1,0.1,0.2l-2.6,7.4c0,0.1-0.1,0.2-0.2,0.2h-1.2C182.1,113.3,182,113.3,181.9,113.2z"/>
	<path class="st0" d="M187.4,111.5c0-0.1,0.1-0.2,0.2-0.2h0.7c0.1,0,0.3,0.1,0.3,0.2c0,0.7,0.5,0.8,1.3,0.8h0.8
		c0.7,0,1.1-0.4,1.1-1.2v-0.7c0-1-0.4-1.2-1.1-1.2h-0.6c-0.7,0-1.4,0.1-1.5,0.7c0,0.1-0.1,0.2-0.2,0.2h-0.7c-0.1,0-0.2-0.1-0.2-0.2
		l0.5-4.1c0-0.1,0.1-0.2,0.2-0.2h4.3c0.1,0,0.2,0.1,0.2,0.2v0.5c0,0.1-0.1,0.2-0.2,0.2h-3.4c-0.1,0-0.2,0.1-0.2,0.2l-0.2,2.1h0.1
		c0.1-0.4,0.8-0.5,1.4-0.5h0.6c1.4,0,2.2,0.5,2.2,2v0.8c0,1.4-0.7,2.2-2,2.2h-1.1C188.2,113.3,187.4,112.8,187.4,111.5z"/>
	<path class="st0" d="M194.2,113.9v-0.8c0-0.1,0.1-0.2,0.2-0.2h0.2c0.9,0,1.1-0.3,1.1-1.3V107c0-1-0.2-1.3-1.1-1.3h-0.2
		c-0.1,0-0.2-0.1-0.2-0.2v-0.8c0-0.1,0.1-0.2,0.2-0.2h0.8c1,0,1.7,0.5,1.7,2v5.6c0,1.5-0.7,2-1.7,2h-0.8
		C194.2,114.1,194.2,114.1,194.2,113.9z"/>
	<path class="st0" d="M197.9,113.5l3.4-8.1c0-0.1,0.1-0.2,0.2-0.2h0.9c0.1,0,0.2,0.1,0.1,0.2l-3.4,8.1c0,0.1-0.1,0.2-0.2,0.2H198
		C197.9,113.7,197.8,113.6,197.9,113.5z"/>
	<path class="st0" d="M203.5,113.1v-0.7c0-1.7,0.7-2.2,1.8-2.7l1.3-0.6c0.7-0.3,1-0.6,1-1.3c0-0.9-0.5-1.2-1.1-1.2H206
		c-0.8,0-1.3,0.3-1.3,1.3c0,0.1-0.1,0.2-0.2,0.2h-0.7c-0.1,0-0.2-0.1-0.2-0.2c0-1.6,0.8-2.4,2.3-2.4h0.7c1.4,0,2.2,0.9,2.2,2.2
		c0,1.3-0.8,2-1.6,2.3l-1.6,0.7c-0.8,0.3-0.9,0.8-0.9,1.6h4c0.1,0,0.2,0.1,0.2,0.2v0.5c0,0.1-0.1,0.2-0.2,0.2h-5
		C203.6,113.3,203.5,113.3,203.5,113.1z"/>
</g>
<path class="st8" d="M241.9,97.7c-7.6-18.1-18.6-34.3-32.5-48.2c-13.9-13.9-30.1-24.8-48.2-32.5c-18.7-7.9-38.5-11.9-59-11.9
	c-25.3,0-49.2,9.9-67.1,27.8C17.3,50.8,7.4,74.6,7.4,100c0,31.4,25.6,57,57,57c21,0,38-17.1,38-38c0-10.5-8.6-19.1-19.1-19.1
	c-10.5,0-19.1,8.6-19.1,19.1h0.4c0-10.3,8.4-18.7,18.7-18.7c10.3,0,18.7,8.4,18.7,18.7c0,20.7-16.9,37.6-37.6,37.6
	c-31.2,0-56.5-25.4-56.5-56.5c0-52,42.3-94.4,94.4-94.4c83.3,0,151.1,67.8,151.1,151.1h0.4C253.8,136.3,249.8,116.4,241.9,97.7z"/>
</svg>
