<svg id="elYoOPXp82q1" xmlns="http://www.w3.org/2000/svg" xmlns:xlink="http://www.w3.org/1999/xlink" viewBox="0 0 300 200" shape-rendering="geometricPrecision" text-rendering="geometricPrecision">
<style><![CDATA[
#elYoOPXp82q55_to {animation: elYoOPXp82q55_to__to 6850ms linear infinite normal forwards}@keyframes elYoOPXp82q55_to__to { 0% {offset-distance: 0%;animation-timing-function: step-start} 4.963504% {offset-distance: 5.394659%;animation-timing-function: step-start} 9.781022% {offset-distance: 10.653541%;animation-timing-function: step-start} 14.890511% {offset-distance: 16.0983%;animation-timing-function: step-start} 21.167883% {offset-distance: 22.668663%;animation-timing-function: step-start} 27.445255% {offset-distance: 29.235569%;animation-timing-function: step-start} 35.036496% {offset-distance: 36.527755%;animation-timing-function: step-start} 40% {offset-distance: 41.389212%;animation-timing-function: step-start} 42.481752% {offset-distance: 43.832734%;animation-timing-function: step-start} 45.109489% {offset-distance: 46.250805%;animation-timing-function: step-start} 47.591241% {offset-distance: 48.662555%;animation-timing-function: step-start} 50.072993% {offset-distance: 51.086963%;animation-timing-function: step-start} 55.036496% {offset-distance: 55.897247%;animation-timing-function: step-start} 62.481752% {offset-distance: 63.125466%;animation-timing-function: step-start} 74.890511% {offset-distance: 75.202349%;animation-timing-function: step-start} 94.890511% {offset-distance: 94.549035%;animation-timing-function: step-start} 100% {offset-distance: 100%}} #elYoOPXp82q56_to {animation: elYoOPXp82q56_to__to 6850ms linear infinite normal forwards}@keyframes elYoOPXp82q56_to__to { 0% {offset-distance: 0%} 4.963504% {offset-distance: 5.046807%} 9.781022% {offset-distance: 9.967032%} 14.890511% {offset-distance: 15.06401%} 21.167883% {offset-distance: 21.334705%} 27.445255% {offset-distance: 27.601284%} 35.036496% {offset-distance: 35.130726%} 40% {offset-distance: 40.150963%} 42.481752% {offset-distance: 42.673194%} 45.109489% {offset-distance: 45.046322%} 47.591241% {offset-distance: 47.516456%} 50.072993% {offset-distance: 49.98659%} 55.036496% {offset-distance: 54.952907%} 62.481752% {offset-distance: 62.41723%} 74.890511% {offset-distance: 74.888766%} 94.890511% {offset-distance: 94.897275%} 100% {offset-distance: 100%}} #elYoOPXp82q57_to {animation: elYoOPXp82q57_to__to 6850ms linear infinite normal forwards}@keyframes elYoOPXp82q57_to__to { 0% {offset-distance: 0%;animation-timing-function: cubic-bezier(0.6,0.04,0.98,0.335)} 4.963504% {offset-distance: 5.046807%;animation-timing-function: cubic-bezier(0.6,0.04,0.98,0.335)} 9.781022% {offset-distance: 9.967032%;animation-timing-function: cubic-bezier(0.6,0.04,0.98,0.335)} 14.890511% {offset-distance: 15.06401%;animation-timing-function: cubic-bezier(0.6,0.04,0.98,0.335)} 21.167883% {offset-distance: 21.334705%;animation-timing-function: cubic-bezier(0.6,0.04,0.98,0.335)} 27.445255% {offset-distance: 27.601284%;animation-timing-function: cubic-bezier(0.6,0.04,0.98,0.335)} 35.036496% {offset-distance: 35.130726%;animation-timing-function: cubic-bezier(0.6,0.04,0.98,0.335)} 40% {offset-distance: 40.150963%;animation-timing-function: cubic-bezier(0.6,0.04,0.98,0.335)} 42.481752% {offset-distance: 42.673194%;animation-timing-function: cubic-bezier(0.6,0.04,0.98,0.335)} 45.109489% {offset-distance: 45.046322%;animation-timing-function: cubic-bezier(0.6,0.04,0.98,0.335)} 47.591241% {offset-distance: 47.516456%;animation-timing-function: cubic-bezier(0.6,0.04,0.98,0.335)} 50.072993% {offset-distance: 49.98659%;animation-timing-function: cubic-bezier(0.6,0.04,0.98,0.335)} 55.036496% {offset-distance: 54.952907%;animation-timing-function: cubic-bezier(0.6,0.04,0.98,0.335)} 62.481752% {offset-distance: 62.41723%;animation-timing-function: cubic-bezier(0.6,0.04,0.98,0.335)} 74.890511% {offset-distance: 74.888766%;animation-timing-function: cubic-bezier(0.6,0.04,0.98,0.335)} 94.890511% {offset-distance: 94.897275%;animation-timing-function: cubic-bezier(0.6,0.04,0.98,0.335)} 100% {offset-distance: 100%}}
]]></style>
<g><g><path d="M54.9,100.2c-26.2,0-47.5-21.3-47.5-47.5s21.4-47.5,47.5-47.5s47.5,21.3,47.5,47.5-21.3,47.5-47.5,47.5Zm0-94.6c-25.9,0-47,21.1-47,47.1s21.1,47.1,47,47.1s47.1-21.2,47.1-47.1-21.1-47.1-47.1-47.1Z" fill="#d6d6d6"/></g><g><path d="M83.3,156.9c-10.5,0-19.1-8.6-19.1-19.1s8.6-19.1,19.1-19.1s19.1,8.6,19.1,19.1c.1,10.6-8.5,19.1-19.1,19.1Zm0-37.8c-10.3,0-18.7,8.4-18.7,18.7s8.4,18.7,18.7,18.7s18.7-8.4,18.7-18.7-8.4-18.7-18.7-18.7Z" fill="#d6d6d6"/></g><g><path d="M92.8,119.1c-5.3,0-9.7-4.3-9.7-9.7c0-5.3,4.3-9.7,9.7-9.7c5.3,0,9.7,4.3,9.7,9.7-.1,5.4-4.4,9.7-9.7,9.7Zm0-18.9c-5.1,0-9.3,4.2-9.3,9.3s4.2,9.3,9.3,9.3s9.3-4.2,9.3-9.3-4.2-9.3-9.3-9.3Z" fill="#d6d6d6"/></g><g><g><path d="M178,156.7c-41.8,0-75.8-34-75.8-75.8s34-75.8,75.8-75.8s75.8,34,75.8,75.8-34,75.8-75.8,75.8ZM178,5.6c-41.6,0-75.4,33.8-75.4,75.4s33.8,75.4,75.4,75.4s75.4-33.8,75.4-75.4-33.8-75.4-75.4-75.4Z" fill="#d6d6d6"/></g></g><g><path d="M36,156.9c-15.8,0-28.6-12.8-28.6-28.6s12.9-28.5,28.6-28.5s28.6,12.8,28.6,28.6-12.8,28.5-28.6,28.5ZM36,100c-15.6,0-28.3,12.7-28.3,28.3s12.7,28.3,28.3,28.3s28.3-12.7,28.3-28.3C64.4,112.7,51.7,100,36,100Z" fill="#d6d6d6"/></g></g><g><g opacity="0.85"><path d="M253.8,156.7h-.4c0-83.3-67.8-151.1-151.1-151.1v-.4c20.5,0,40.3,4,59,11.9c18.1,7.6,34.3,18.6,48.2,32.5s24.8,30.1,32.5,48.2c7.8,18.6,11.8,38.5,11.8,58.9Z" fill="#0e8acb"/></g><g opacity="0.85"><path d="M7.9,100h-.5c0-25.3,9.9-49.2,27.8-67c17.9-18,41.7-27.8,67-27.8v.4C50.2,5.6,7.9,47.9,7.9,100Z" fill="#ffd00a"/></g><g opacity="0.85"><path d="M64.4,156.9c-31.4,0-57-25.6-57-57h.4c0,31.2,25.4,56.5,56.5,56.5v.5Z" fill="#54b848"/></g><g opacity="0.85"><path d="M64.4,156.9v-.4c20.7,0,37.6-16.9,37.6-37.6h.4c0,21-17,38-38,38Z" fill="#3b4e80"/></g><g opacity="0.85"><path d="M102.4,118.9h-.4c0-10.3-8.4-18.7-18.7-18.7v-.4c10.6,0,19.1,8.6,19.1,19.1Z" fill="#55c2b9"/></g><g opacity="0.85"><path d="M64.6,118.9h-.4c0-10.5,8.6-19.1,19.1-19.1v.4c-10.3,0-18.7,8.4-18.7,18.7Z" fill="#d62027"/></g></g><g><rect width="258.6" height="0.2" rx="0" ry="0" transform="translate(1.6 5.3)" fill="#f9f9f9"/><rect width="258.6" height="0.2" rx="0" ry="0" transform="translate(1.6 99.9)" fill="#f9f9f9"/><rect width="258.6" height="0.2" rx="0" ry="0" transform="translate(1.6 118.8)" fill="#f9f9f9"/><rect width="258.6" height="0.2" rx="0" ry="0" transform="translate(1.6 156.6)" fill="#f9f9f9"/><g><rect width="0.2" height="159.8" rx="0" ry="0" transform="translate(7.6 1.1)" fill="#f9f9f9"/></g><g><rect width="0.2" height="159.8" rx="0" ry="0" transform="translate(64.3 1.1)" fill="#f9f9f9"/></g><g><rect width="0.2" height="159.8" rx="0" ry="0" transform="translate(83.2 1.1)" fill="#f9f9f9"/></g><g><rect width="0.2" height="159.8" rx="0" ry="0" transform="translate(102.2 1.1)" fill="#f9f9f9"/></g><g><rect width="0.2" height="159.8" rx="0" ry="0" transform="translate(253.5 1.1)" fill="#f9f9f9"/></g></g><g><path d="M147.1,113.1l.6-1.8c.3-.9.5-1.4.9-1.7v-.1c-.4-.3-.6-.8-.9-1.9l-.6-1.8c0-.2,0-.3.2-.3h.8c.1,0,.2.1.2.2l.6,1.8c.4,1.4.7,1.4,1.1,1.4h.4c.4,0,.7,0,1.1-1.4l.6-1.8c0-.1.1-.2.2-.2h.8c.2,0,.2.1.2.3l-.6,1.8c-.3,1.1-.5,1.6-.9,1.9v.1c.4.3.6.8.9,1.7l.6,1.8c0,.2,0,.3-.2.3h-.8c-.1,0-.2-.1-.2-.2l-.6-1.9c-.4-1.2-.7-1.2-1.1-1.2h-.4c-.4,0-.7,0-1.1,1.2l-.6,1.9c0,.1-.1.2-.2.2h-.8c-.1-.1-.2-.2-.2-.3Z" fill="#d6d6d6"/><path d="M156.9,109.2v-.9c0-.1.1-.2.2-.2h4c.1,0,.1.1.1.2v.9c0,.1,0,.2-.2.2h-4c-.1,0-.1-.1-.1-.2Zm0,1.1c0-.1.1-.2.2-.2h4c.1,0,.1.1.1.2v.9c0,.1,0,.2-.2.2h-4c-.1,0-.2-.1-.2-.2v-.9Z" fill="#d6d6d6"/><path d="M165.2,112.1v-5.6c0-1.5.7-2,1.7-2h.8c.1,0,.2.1.2.2v.8c0,.1-.1.2-.2.2h-.2c-.9,0-1.1.3-1.1,1.3v4.7c0,1,.2,1.3,1.1,1.3h.2c.1,0,.2.1.2.2v.8c0,.1-.1.2-.2.2h-.8c-1.1-.1-1.7-.6-1.7-2.1Z" fill="#d6d6d6"/><path d="M170,113.1v-6.5h-.9c-.1,0-.2-.1-.2-.2v-.6c0-.1.1-.2.2-.2h1.7c.1,0,.2.1.2.2v7.3c0,.1-.1.2-.2.2h-.6c-.1,0-.2,0-.2-.2Z" fill="#d6d6d6"/><path d="M176.6,111.9v-1.5h-1.4c-.1,0-.2-.1-.2-.2v-.9c0-.1.1-.2.2-.2h1.4v-1.5c0-.1.1-.2.2-.2h.9c.1,0,.2.1.2.2v1.5h1.4c.1,0,.1.1.1.2v.9c0,.1,0,.2-.2.2h-1.4v1.5c0,.1-.1.2-.2.2h-.9c0,0-.1-.1-.1-.2Z" fill="#d6d6d6"/><path d="M181.9,113.2l-1.3-3.3c0-.1,0-.2.1-.2h.9c.1,0,.3.1.3.2l.7,1.9l2.1-6c0-.1.1-.2.2-.2h1c.1,0,.2.1.1.2l-2.6,7.4c0,.1-.1.2-.2.2h-1.2c.1-.1,0-.1-.1-.2Z" fill="#d6d6d6"/><path d="M187.4,111.5c0-.1.1-.2.2-.2h.7c.1,0,.3.1.3.2c0,.7.5.8,1.3.8h.8c.7,0,1.1-.4,1.1-1.2v-.7c0-1-.4-1.2-1.1-1.2h-.6c-.7,0-1.4.1-1.5.7c0,.1-.1.2-.2.2h-.7c-.1,0-.2-.1-.2-.2l.5-4.1c0-.1.1-.2.2-.2h4.3c.1,0,.2.1.2.2v.5c0,.1-.1.2-.2.2h-3.4c-.1,0-.2.1-.2.2l-.2,2.1h.1c.1-.4.8-.5,1.4-.5h.6c1.4,0,2.2.5,2.2,2v.8c0,1.4-.7,2.2-2,2.2h-1.1c-1.7,0-2.5-.5-2.5-1.8Z" fill="#d6d6d6"/><path d="M194.2,113.9v-.8c0-.1.1-.2.2-.2h.2c.9,0,1.1-.3,1.1-1.3v-4.6c0-1-.2-1.3-1.1-1.3h-.2c-.1,0-.2-.1-.2-.2v-.8c0-.1.1-.2.2-.2h.8c1,0,1.7.5,1.7,2v5.6c0,1.5-.7,2-1.7,2h-.8c-.2,0-.2,0-.2-.2Z" fill="#d6d6d6"/><path d="M197.9,113.5l3.4-8.1c0-.1.1-.2.2-.2h.9c.1,0,.2.1.1.2l-3.4,8.1c0,.1-.1.2-.2.2h-.9c-.1,0-.2-.1-.1-.2Z" fill="#d6d6d6"/><path d="M203.5,113.1v-.7c0-1.7.7-2.2,1.8-2.7l1.3-.6c.7-.3,1-.6,1-1.3c0-.9-.5-1.2-1.1-1.2h-.5c-.8,0-1.3.3-1.3,1.3c0,.1-.1.2-.2.2h-.7c-.1,0-.2-.1-.2-.2c0-1.6.8-2.4,2.3-2.4h.7c1.4,0,2.2.9,2.2,2.2s-.8,2-1.6,2.3l-1.6.7c-.8.3-.9.8-.9,1.6h4c.1,0,.2.1.2.2v.5c0,.1-.1.2-.2.2h-5c-.1.1-.2.1-.2-.1Z" fill="#d6d6d6"/></g><ellipse rx="5" ry="5" transform="translate(253.65 156.8)" opacity="0.42" fill="#d2dbed" stroke-width="0"/><g id="elYoOPXp82q55_to" style="offset-path:path('M241.9,99.5L209.4,49.5L161.2,17L102.2,5.1L35.1,32.9L7.4,100L64.4,157L102.4,119L83.3,99.9L64.6,119L83.2,99.9L102,119L64.4,156.6L7.9,100.1L102.3,5.7L253.65,156.8L241.9,97.7');offset-rotate:0deg"><ellipse rx="3.425" ry="3.425" transform="translate(0,0)" fill="#d2dbed" stroke-width="0"/></g><g id="elYoOPXp82q56_to" style="offset-path:path('M241.9,99.5C234.3,81.4,223.3,63.4,209.4,49.5C195.5,35.6,179.3,24.7,161.2,17C142.5,9.1,122.7,5.1,102.2,5.1C76.9,5.1,53,15,35.1,32.9C17.3,50.8,7.4,74.6,7.4,100C7.4,131.4,33,157,64.4,157C85.4,157,102.4,139.9,102.4,119C102.4,108.5,93.8,99.9,83.3,99.9Q72.8,99.9,64.6,119C64.6,108.7,73,100.3,83.3,100.3C93.6,100.3,102,108.7,102,119C102,139.7,85.1,156.6,64.4,156.6C33.2,156.6,7.9,131.2,7.9,100.1C7.9,48.1,50.2,5.7,102.3,5.7C186.732112,5.13718,253.65,73.630411,253.65,156.8C253.65,136.3,249.8,116.4,241.9,97.7');offset-rotate:0deg"><ellipse rx="5" ry="5" transform="translate(0,0)" opacity="0.42" fill="#d2dbed" stroke-width="0"/></g><g id="elYoOPXp82q57_to" style="offset-path:path('M241.9,99.5C234.3,81.4,223.3,63.4,209.4,49.5C195.5,35.6,179.3,24.7,161.2,17C142.5,9.1,122.7,5.1,102.2,5.1C76.9,5.1,53,15,35.1,32.9C17.3,50.8,7.4,74.6,7.4,100C7.4,131.4,33,157,64.4,157C85.4,157,102.4,139.9,102.4,119C102.4,108.5,93.8,99.9,83.3,99.9Q72.8,99.9,64.6,119C64.6,108.7,73,100.3,83.3,100.3C93.6,100.3,102,108.7,102,119C102,139.7,85.1,156.6,64.4,156.6C33.2,156.6,7.9,131.2,7.9,100.1C7.9,48.1,50.2,5.7,102.3,5.7C186.732112,5.13718,253.65,73.630411,253.65,156.8C253.65,136.3,249.8,116.4,241.9,97.7');offset-rotate:0deg"><ellipse rx="5" ry="5" transform="scale(0.62,0.62) translate(0,0)" opacity="0.5" fill="#d3daed" stroke-width="0"/></g></svg>
