<svg id="Layer_1" data-name="Layer 1" xmlns="http://www.w3.org/2000/svg" viewBox="0 0 1020.2 1329.42"><defs><style>.cls-1{fill:#dadcd7;}</style></defs><path class="cls-1" d="M1210.14,1082.32l-.55-78.8,61.92-37.8V912.16l-167.22-195L991.53,659.66l-22.25,10v448l119.66,56.76Zm-236,32.19V672.79l17.23-7.72,109.82,56L1266.63,914v49c-83.86,52.13-58.23,19.81-61.39,116.93l-116.88,88.77Z" transform="translate(-647.11 -526.1)"/><path class="cls-1" d="M1275.2,906.81c.87,1.34-2.09,45.66,1.85,44.4,1,0,20.06,5.78,20.33,4.29L1346.14,924l41,17.89c2.46,2.57,15-13.65,16.75-14,.14-4.16,2-369.81-2.93-372.6l-122.74-29.15c-1.24-.52-30.71,12.42-30.54,14,.5,2.23-69.68,256.53-67,258.43Zm-23.11-364.29,25.79-11.46,120.06,28.51,1.8,365.51-12.15,11.67c-59.62-26.37-32.06-20.52-92,14.07l-15.54-3.88V905.89c.21-2.48-94-107.64-94.86-109.55Z" transform="translate(-647.11 -526.1)"/><path class="cls-1" d="M1227,1001l342.11,144.21,95.12-85.92L1346.68,928.9S1228.55,999.47,1227,1001Zm428.2,59.87-87.06,78.63-330.6-139.36c19.45-11.88,71.78-43.25,109.53-65.8Z" transform="translate(-647.11 -526.1)"/><path class="cls-1" d="M1320.6,1244.94l245.82-70.58v-24l-347.07-143.17v78.93l43,20.79v112.39ZM1224.23,1083v-68.57l337.31,139.13v17.12L1321,1239.75l-53.77-23.69v-109.2C1269.71,1101.86,1226.38,1085.29,1224.23,1083Z" transform="translate(-647.11 -526.1)"/><path class="cls-1" d="M1409,928.9l-14.72,12.27,49.09,21.48,224-184.09-7.67-4.61L1409,878.27Zm4.88,0V881.53L1657.92,780,1442.54,957l-39.11-17.11C1405.41,937.62,1414.35,932.54,1413.84,928.9Z" transform="translate(-647.11 -526.1)"/><path class="cls-1" d="M1408.7,874.85l91.39-39.53-7.67-119.66L1408.7,857Zm4.88-16.49,75-126.61L1495,832.2l-81.42,35.22Z" transform="translate(-647.11 -526.1)"/><path class="cls-1" d="M1475.55,708,1405,754.43v96.23l82.58-135Zm-65.69,49.07,65.73-43.26,5.31,3.39-71,116.13Z" transform="translate(-647.11 -526.1)"/><path class="cls-1" d="M1451,965.72l130.4,52.16,85.92-75.17-.3-158Zm129.44,46.52-120-48,201.77-169.07.27,145.35Z" transform="translate(-647.11 -526.1)"/><path class="cls-1" d="M961.61,779,868,741.74l-108.93,43,202.51,89Zm-4.88,87.22L771.79,784.94,868,747l88.71,35.3Z" transform="translate(-647.11 -526.1)"/><path class="cls-1" d="M958.54,1037.83V886.3L759.1,793.08V807.7L934,1030.16ZM764,800.75l189.67,88.66v141.78L936.9,1026,764,806Z" transform="translate(-647.11 -526.1)"/><path class="cls-1" d="M1088.94,1184.78l-69-35-56.77,43-58.29,196.37,13.8,10.74L1253.1,1113l-44.49-20Zm155.14-70.48L918.5,1393.58l-8-6.24,56.89-191.64,53-40.15c2.53.65,65.77,34.46,68.52,34.11,3.55.9,117.41-89.93,120.33-91Z" transform="translate(-647.11 -526.1)"/><path class="cls-1" d="M918.65,1027.09l-141.14,44.49L947.8,1047l-18.8-9.2Zm-82.39,31.09,81-25.53c3.14,3.34,9.56,10.68,14.2,11.81Z" transform="translate(-647.11 -526.1)"/><path class="cls-1" d="M951.46,1174.36l53.11-33.75-46-23.73v-67.55L659.38,1241.87l18.41,13.8Zm2.2-116.08c3.86,69.73-17.94,53,41.11,82.77-20.55,30.61-280.09,96.43-316,109.24l-10.83-8.12Z" transform="translate(-647.11 -526.1)"/><path class="cls-1" d="M934,1057.77l-195.62,24.38v10.9l76,38.36Zm-190.74,32.28v-3.59l169-21.07-98.19,60.43Z" transform="translate(-647.11 -526.1)"/><path class="cls-1" d="M1320.6,1251.07l-59.83-24.54v5.64l56.76,25,244.7,244.69,94.35-65.2-210.95-220.2Zm242.2,244.5-240-240L1444.12,1222l205,214Z" transform="translate(-647.11 -526.1)"/><path class="cls-1" d="M953.94,1194.31l62.61-46.35-8.52-5.68L943.2,1185.1l-266.94,79.78L673.19,1406l242.4-79.78ZM678.22,1399.22l2.84-130.68c1.55-.69,263.65-78.37,264.83-79.36l62.13-41,.05,0-57,42.21c-3.36,1.32-37.7,129.53-39.42,132Z" transform="translate(-647.11 -526.1)"/><path class="cls-1" d="M1253.1,1128.34,934,1399.88v195.39L1253.1,1318Zm-4.88,187.39L938.88,1584.56V1402.14l309.34-263.24Z" transform="translate(-647.11 -526.1)"/><path class="cls-1" d="M961.61,1760.41l113.53,89.21V1481.19L961.61,1582.45Zm4.88-175.78,103.77-92.54v347.48L966.49,1758Z" transform="translate(-647.11 -526.1)"/><path class="cls-1" d="M1260.77,1383.76l-46.87-24.56-128,114.32-3.07,382,16.87-16.87,153.42-393.79Zm-165.26,452.16-7.72,7.72,3-367.92,123.89-110.62,40.87,21.41C1271.31,1410,1105.49,1803.77,1095.51,1835.92Z" transform="translate(-647.11 -526.1)"/><path class="cls-1" d="M1314.46,1266.41l-53.69-24.54v79.77l-39.89,30.69,337.51,184.09-1.53-26.08Zm-84.66,85.22c1.28-1.87,38.43-27.21,35.85-30v-72.17l46,21,240.46,242,.91,15.45Z" transform="translate(-647.11 -526.1)"/><path class="cls-1" d="M1570.67,1169.76l93.58-80.3V1065.7l-93.58,84.12Zm4.88-17.77,83.82-75.34v10.57l-83.82,71.92Z" transform="translate(-647.11 -526.1)"/><path class="cls-1" d="M1563,1536.42l93.59-66.88v-22.91L1563,1510.34Zm4.89-23.5,83.82-57.06V1467l-83.82,59.9Z" transform="translate(-647.11 -526.1)"/><path class="cls-1" d="M1273,1392.21v47.43l102.79,135.14,19.94-16.88-2.89-103.11Zm103.56,175.52L1277.92,1438v-37.72l110.16,57.52,2.75,97.9Z" transform="translate(-647.11 -526.1)"/><path class="cls-1" d="M1269.52,1392.21l-4.7-3.07c-1.45,51.33,0,64.68-22.46,113.53l128,72.11-103.41-135Zm-2.34,58.3c0-.27,0-1.06.07-2.26l84.69,110.57-103.44-58.29C1267.19,1454.44,1267.18,1451.6,1267.18,1450.51Z" transform="translate(-647.11 -526.1)"/><path class="cls-1" d="M647.11,1390.68l20,15.34s4.57-139.61,4.57-141.14l-16.88-13.81Zm19.6-123.54c-.42,13.68-2.72,84.18-4.19,129.22l-10.39-8,7-127.43Z" transform="translate(-647.11 -526.1)"/><path class="cls-1" d="M901.78,1403l-4.6,167.22,30.68,24.55-3.07-182.56Zm.34,164.93,4.35-157.8,13.49,5.4,2.84,168.94Z" transform="translate(-647.11 -526.1)"/></svg>