<svg xmlns="http://www.w3.org/2000/svg" viewBox="0 0 442.44 332.56"><defs><style>.cls-1{opacity:0.85;}.cls-2{fill:#d7e1f2;}.cls-3{fill:#d9dbd7;}.cls-4{fill:#d71920;}.cls-5{fill:#ffd105;}.cls-6{fill:#54c2ba;}.cls-7{fill:#8967ac;}.cls-8{fill:#54b948;}.cls-9{fill:#3b4d81;}.cls-10{fill:#008bce;}.cls-11{fill:#d069a9;}</style></defs><g id="Layer_2" data-name="Layer 2"><g id="Layer_1-2" data-name="Layer 1"><g class="cls-1"><polygon class="cls-2" points="224.75 101.9 224.75 193.03 249.58 174.18 249.46 158.03 262.15 150.29 262.15 139.32 227.89 99.38 224.75 101.9"/></g><g class="cls-1"><polyline class="cls-3" points="224.75 101.9 200.24 89.64 204.79 87.6 227.89 99.38"/></g><g class="cls-1"><polyline class="cls-3" points="284.46 69.84 257.75 63.24 263.4 60.73 288.54 66.7"/></g><g class="cls-1"><polyline class="cls-4" points="200.24 89.64 224.75 101.9 224.75 193.03 200.24 181.4 200.24 89.64"/></g><g class="cls-1"><polygon class="cls-2" points="267.18 147.78 267.18 136.91 284.77 69.84 288.54 66.7 288.92 142.18 286.03 144.95 277.39 141.18 267.18 147.78"/></g><g class="cls-1"><polygon class="cls-5" points="243.92 115.72 257.75 63.24 284.77 69.84 267.18 136.91 267.18 147.78 263.4 146.84 263.4 138.04 243.92 115.72"/></g><g class="cls-1"><path class="cls-2" d="M253,157.52c.32-.31,24.52-14.77,24.52-14.77l65.05,26.71-19.49,17.6Z"/></g><g class="cls-1"><polygon class="cls-6" points="251.46 158.78 251.46 174.94 260.26 179.2 260.26 202.22 272.2 207.49 322.56 193.03 322.56 188.1 251.46 158.78"/></g><g class="cls-1"><polygon class="cls-2" points="341.65 111.01 343.23 111.95 297.34 149.66 287.29 145.26 290.3 142.75 290.3 132.38 341.65 111.01"/></g><g class="cls-1"><polygon class="cls-7" points="307.4 99.07 308.97 123.58 290.25 131.68 290.25 128.03 307.4 99.07"/></g><g class="cls-1"><polygon class="cls-2" points="306.4 99.07 303.94 97.5 289.49 107.01 289.49 126.72 306.4 99.07"/></g><g class="cls-1"><polygon class="cls-8" points="298.91 150.29 343.16 113.21 343.23 145.58 325.63 160.98 298.91 150.29"/></g><g class="cls-1"><polygon class="cls-2" points="157.19 113.21 198.67 131.44 198.67 112.04 179.5 104.41 157.19 113.21"/></g><g class="cls-1"><polygon class="cls-6" points="157.19 114.93 157.19 117.92 193.01 163.49 198.04 165.06 198.04 134.03 157.19 114.93"/></g><g class="cls-1"><polygon class="cls-2" points="187.04 237.03 198.98 196.8 210.61 188 224.75 195.16 249.26 176.38 258.38 180.46 189.87 239.23 187.04 237.03"/></g><g class="cls-1"><polygon class="cls-2" points="189.87 162.86 191.99 165.06 195.84 166.95 160.96 171.98 189.87 162.86"/></g><polygon class="cls-2" points="136.76 206.86 198.04 167.42 198.04 181.26 207.47 186.12 196.59 193.03 140.53 209.69 136.76 206.86"/><g class="cls-1"><polygon class="cls-9" points="152.94 176.38 168.5 184.23 193.01 169.15 152.94 174.14 152.94 176.38"/></g><g class="cls-1"><polygon class="cls-2" points="259.95 203.72 259.95 204.87 271.57 210 321.7 260.13 341.02 246.77 297.81 201.66 272.2 208.74 259.95 203.72"/></g><g class="cls-1"><polygon class="cls-8" points="140.22 211.57 139.59 240.48 189.24 224.14 197.09 197.12 209.92 187.62 208.18 186.46 194.9 195.23 140.22 211.57"/></g><g class="cls-1"><polygon class="cls-5" points="193.01 239.23 193.01 279.25 258.38 222.44 258.38 183.6 193.01 239.23"/></g><g class="cls-1"><polygon class="cls-10" points="198.67 276.62 221.92 255.88 221.92 331.35 198.67 313.08 198.67 276.62"/></g><g class="cls-1"><polygon class="cls-2" points="224.12 254.31 223.49 332.56 226.95 329.11 258.38 248.44 259.95 235.92 250.34 230.89 224.12 254.31"/></g><g class="cls-1"><polygon class="cls-11" points="251.78 229.49 320.91 267.2 320.6 261.85 270.95 211.89 259.95 206.86 259.95 223.2 251.78 229.49"/></g><g class="cls-1"><polygon class="cls-3" points="323.43 188 323.43 192.09 342.6 175.64 342.6 170.77 323.43 188"/></g><g class="cls-1"><polygon class="cls-3" points="321.86 261.85 321.86 267.2 341.02 253.5 341.02 248.8 321.86 261.85"/></g><g class="cls-1"><polygon class="cls-2" points="262.46 237.66 262.46 247.37 283.52 275.05 287.6 271.6 287.01 250.47 262.46 237.66"/></g><g class="cls-1"><path class="cls-9" d="M256.18,260.28s4.08-10,4.08-10.68.52-12.57.52-12.57l1,.63-.54,9.74,21.19,27.65Z"/></g><g class="cls-1"><path class="cls-3" d="M139.27,211.57c0,.32-.93,28.91-.93,28.91l-4.1-3.14,1.58-28.6Z"/></g><g class="cls-1"><polygon class="cls-3" points="186.41 239.86 191.12 241.74 191.75 279.14 185.47 274.11 186.41 239.86"/></g><g class="cls-1"><path class="cls-11" d="M389.82,220v1.62a2.57,2.57,0,0,1,.57-.26,3.51,3.51,0,0,1,1.05-.12,4.42,4.42,0,0,1,1,.12,2.5,2.5,0,0,1,.85.35,1.72,1.72,0,0,1,.58.62,1.82,1.82,0,0,1,.22.9v2a1.75,1.75,0,0,1-.21.87,1.77,1.77,0,0,1-.56.63,2.71,2.71,0,0,1-.86.38,4,4,0,0,1-1.06.14,4.11,4.11,0,0,1-1.09-.14,2.56,2.56,0,0,1-.85-.39,1.82,1.82,0,0,1-.54-.63,1.66,1.66,0,0,1-.2-.84V220Zm0,3.23v2a.68.68,0,0,0,.13.42,1.08,1.08,0,0,0,.35.32,1.63,1.63,0,0,0,.51.19,2.48,2.48,0,0,0,.63.07,3.22,3.22,0,0,0,.64-.07,2,2,0,0,0,.51-.2,1.11,1.11,0,0,0,.35-.33.74.74,0,0,0,.12-.42v-2a.72.72,0,0,0-.13-.44,1,1,0,0,0-.36-.31,1.87,1.87,0,0,0-.52-.18,3,3,0,0,0-.61-.06,3.24,3.24,0,0,0-.64.06,1.94,1.94,0,0,0-.51.2.93.93,0,0,0-.34.31A.68.68,0,0,0,389.82,223.23Z"/><path class="cls-11" d="M396,223.26a1.73,1.73,0,0,1,.68-1.45,3.06,3.06,0,0,1,1.9-.52H400v1h-1.4a2.06,2.06,0,0,0-1.1.26.79.79,0,0,0-.41.71v3.92H396Z"/><path class="cls-11" d="M403.69,221.24a4.19,4.19,0,0,1,1,.12,2.63,2.63,0,0,1,.85.36,1.87,1.87,0,0,1,.58.61,1.7,1.7,0,0,1,.21.87v2a2,2,0,0,1-.19.91,1.7,1.7,0,0,1-.55.64,2.54,2.54,0,0,1-.85.37,4.61,4.61,0,0,1-1.09.12,4.9,4.9,0,0,1-1.05-.11,2.67,2.67,0,0,1-.86-.34,1.72,1.72,0,0,1-.58-.59,1.65,1.65,0,0,1-.2-.85,1.47,1.47,0,0,1,.15-.67,1.53,1.53,0,0,1,.41-.5,1.83,1.83,0,0,1,.64-.32,2.75,2.75,0,0,1,.84-.12h2.27v-.55a.74.74,0,0,0-.12-.42,1,1,0,0,0-.35-.3,1.69,1.69,0,0,0-.51-.18,2.45,2.45,0,0,0-.62-.07,1.75,1.75,0,0,0-1.51.63l-.91-.51a2.25,2.25,0,0,1,1-.85A3.56,3.56,0,0,1,403.69,221.24Zm1.6,4v-.46H403a1.59,1.59,0,0,0-.49.07.85.85,0,0,0-.3.17.47.47,0,0,0-.16.19.45.45,0,0,0,0,.18.62.62,0,0,0,.13.4.91.91,0,0,0,.35.28,2.28,2.28,0,0,0,.52.16,4.23,4.23,0,0,0,.63,0,2.36,2.36,0,0,0,.89-.13,1.32,1.32,0,0,0,.49-.29.8.8,0,0,0,.2-.34A1.16,1.16,0,0,0,405.29,225.22Z"/><path class="cls-11" d="M412.56,223.22a.73.73,0,0,0-.16-.46,1.4,1.4,0,0,0-.41-.3,1.8,1.8,0,0,0-.54-.17,3.5,3.5,0,0,0-.54,0,3.62,3.62,0,0,0-.55,0,1.77,1.77,0,0,0-.52.17,1.24,1.24,0,0,0-.4.3.73.73,0,0,0-.16.46v4h-1.06v-4a1.7,1.7,0,0,1,.21-.85,2,2,0,0,1,.57-.62,2.81,2.81,0,0,1,.86-.38,4.46,4.46,0,0,1,1.06-.13,4.07,4.07,0,0,1,1.07.14,2.45,2.45,0,0,1,.85.38,2,2,0,0,1,.57.62,1.64,1.64,0,0,1,.21.84v4h-1.06Z"/><path class="cls-11" d="M420.86,220v5.27a1.77,1.77,0,0,1-.2.84,1.85,1.85,0,0,1-.55.63,2.51,2.51,0,0,1-.84.39,4.17,4.17,0,0,1-1.09.14,4,4,0,0,1-1.07-.14,2.71,2.71,0,0,1-.86-.38,1.88,1.88,0,0,1-.56-.63,1.75,1.75,0,0,1-.2-.87v-2a1.72,1.72,0,0,1,.79-1.52,2.5,2.5,0,0,1,.85-.35,4.44,4.44,0,0,1,1.05-.12,3.43,3.43,0,0,1,1,.12,2.57,2.57,0,0,1,.57.26V220Zm-1.19,2.81a1.06,1.06,0,0,0-.35-.31,1.7,1.7,0,0,0-.51-.2,3.21,3.21,0,0,0-.63-.06,3.11,3.11,0,0,0-.62.06,1.92,1.92,0,0,0-.51.18,1,1,0,0,0-.36.31.72.72,0,0,0-.14.44v2a.68.68,0,0,0,.13.42,1,1,0,0,0,.34.33,2.26,2.26,0,0,0,.52.2,3.14,3.14,0,0,0,.64.07,2.45,2.45,0,0,0,.62-.07,1.46,1.46,0,0,0,.51-.19,1,1,0,0,0,.35-.32.68.68,0,0,0,.13-.42v-2A.74.74,0,0,0,419.67,222.81Z"/><path class="cls-11" d="M422.73,220h1.08v.79h-1.08Zm1.08,7.18h-1.07v-5.83h1.07Z"/><path class="cls-11" d="M430,223.22a.68.68,0,0,0-.16-.46,1.4,1.4,0,0,0-.41-.3,1.8,1.8,0,0,0-.54-.17,2.94,2.94,0,0,0-1.08,0,1.74,1.74,0,0,0-.53.17,1.35,1.35,0,0,0-.4.3.73.73,0,0,0-.15.46v4h-1.07v-4a1.7,1.7,0,0,1,.21-.85,1.9,1.9,0,0,1,.58-.62,2.75,2.75,0,0,1,.85-.38,4.46,4.46,0,0,1,1.06-.13,4.07,4.07,0,0,1,1.07.14,2.45,2.45,0,0,1,.85.38,2,2,0,0,1,.57.62,1.64,1.64,0,0,1,.21.84v4H430Z"/><path class="cls-11" d="M438.32,223.22v4.07a1.69,1.69,0,0,1-.21.86,1.63,1.63,0,0,1-.56.58,2.68,2.68,0,0,1-.86.35,5.12,5.12,0,0,1-1.07.1,5.85,5.85,0,0,1-.73,0,3.38,3.38,0,0,1-.7-.16,2.8,2.8,0,0,1-.62-.32,2.68,2.68,0,0,1-.55-.52l.84-.59a1,1,0,0,0,.32.29,2.44,2.44,0,0,0,.44.19,3.89,3.89,0,0,0,.49.12,4.38,4.38,0,0,0,.51,0,4.26,4.26,0,0,0,.64-.05,2.28,2.28,0,0,0,.52-.16.91.91,0,0,0,.35-.28.73.73,0,0,0,.12-.41v-.41a5,5,0,0,1-.73.26,3.37,3.37,0,0,1-.9.12,4.19,4.19,0,0,1-1-.13,2.61,2.61,0,0,1-.85-.37,1.81,1.81,0,0,1-.58-.62,1.69,1.69,0,0,1-.22-.88v-2a1.75,1.75,0,0,1,.21-.87,2,2,0,0,1,.57-.62,2.47,2.47,0,0,1,.84-.37,4,4,0,0,1,1.05-.13,4.22,4.22,0,0,1,1,.12,2.58,2.58,0,0,1,.86.37,1.91,1.91,0,0,1,.59.61A1.7,1.7,0,0,1,438.32,223.22Zm-1.07,0a.66.66,0,0,0-.14-.44,1,1,0,0,0-.37-.31,1.87,1.87,0,0,0-.52-.18,2.91,2.91,0,0,0-.6-.06,3.11,3.11,0,0,0-.62.06,1.88,1.88,0,0,0-.52.2,1.1,1.1,0,0,0-.36.31.75.75,0,0,0-.13.42v2a.75.75,0,0,0,.13.42,1.2,1.2,0,0,0,.35.32,1.87,1.87,0,0,0,.52.19,2.59,2.59,0,0,0,.63.07,2.62,2.62,0,0,0,.64-.07,1.87,1.87,0,0,0,.52-.19,1,1,0,0,0,.34-.32.68.68,0,0,0,.13-.42Z"/></g><path class="cls-8" d="M2.69,182a5.9,5.9,0,0,1,1.07.1,2.58,2.58,0,0,1,.85.3,1.53,1.53,0,0,1,.56.54,1.64,1.64,0,0,1,.2.83,1.56,1.56,0,0,1-.21.82,1.7,1.7,0,0,1-.57.56,3,3,0,0,1-.86.32,4.85,4.85,0,0,1-1,.11,2.86,2.86,0,0,1-2.7-1.3l.91-.5a1.71,1.71,0,0,0,.22.29,1.21,1.21,0,0,0,.35.25,2,2,0,0,0,.51.19,3.44,3.44,0,0,0,.7.07,4.1,4.1,0,0,0,.62,0,3,3,0,0,0,.52-.15,1,1,0,0,0,.34-.25.56.56,0,0,0,.14-.36.53.53,0,0,0-.14-.37,1,1,0,0,0-.34-.23,1.89,1.89,0,0,0-.52-.12,6.06,6.06,0,0,0-.62,0,5.77,5.77,0,0,1-1-.08,2.75,2.75,0,0,1-.85-.29,1.53,1.53,0,0,1-.57-.53,1.42,1.42,0,0,1-.21-.8,1.61,1.61,0,0,1,.2-.82,1.61,1.61,0,0,1,.57-.56,2.58,2.58,0,0,1,.85-.3,4.93,4.93,0,0,1,1.05-.1,3.51,3.51,0,0,1,1.47.27,2.39,2.39,0,0,1,1,.93l-.94.52a1.27,1.27,0,0,0-.6-.57,2.44,2.44,0,0,0-.93-.15,4.08,4.08,0,0,0-.61,0,2.64,2.64,0,0,0-.52.13,1.1,1.1,0,0,0-.36.25.51.51,0,0,0-.14.36.46.46,0,0,0,.14.34.9.9,0,0,0,.36.21,2.37,2.37,0,0,0,.52.11A5.93,5.93,0,0,0,2.69,182Z"/><path class="cls-8" d="M10.11,184.43h1.1v1h-1.1a4.33,4.33,0,0,1-1.06-.13,2.53,2.53,0,0,1-.81-.38,1.6,1.6,0,0,1-.52-.61,1.8,1.8,0,0,1-.18-.82v-3H6.71v-.84h.83v-.87H8.6v.87h1.66v.84H8.6v3a.76.76,0,0,0,.41.69A2.08,2.08,0,0,0,10.11,184.43Z"/><path class="cls-8" d="M12.25,183.49v-2a1.74,1.74,0,0,1,.21-.86A2,2,0,0,1,13,180a2.65,2.65,0,0,1,.85-.38,4.35,4.35,0,0,1,2.11,0,2.71,2.71,0,0,1,.86.38,2,2,0,0,1,.57.62,1.74,1.74,0,0,1,.21.86v2a1.74,1.74,0,0,1-.21.86,1.91,1.91,0,0,1-.57.63,2.72,2.72,0,0,1-.86.39,4,4,0,0,1-2.11,0A2.66,2.66,0,0,1,13,185a1.91,1.91,0,0,1-.57-.63A1.74,1.74,0,0,1,12.25,183.49Zm1.06,0a.78.78,0,0,0,.13.43,1.12,1.12,0,0,0,.36.32,1.94,1.94,0,0,0,.51.2,3.1,3.1,0,0,0,.62.07,3.18,3.18,0,0,0,.62-.07,1.88,1.88,0,0,0,.52-.2,1.12,1.12,0,0,0,.36-.32.71.71,0,0,0,.13-.43v-2a.68.68,0,0,0-.13-.42,1.1,1.1,0,0,0-.36-.31,1.88,1.88,0,0,0-.52-.2,3.18,3.18,0,0,0-.62-.06,3.11,3.11,0,0,0-.62.06,1.94,1.94,0,0,0-.51.2,1.1,1.1,0,0,0-.36.31.75.75,0,0,0-.13.42Z"/><path class="cls-8" d="M19.49,181.51a1.72,1.72,0,0,1,.69-1.45,3,3,0,0,1,1.89-.52h1.41v1H22.07a2.06,2.06,0,0,0-1.1.26.79.79,0,0,0-.41.71v3.92H19.49Z"/><path class="cls-8" d="M29,179.58h1.13l-2.62,6.1a1.49,1.49,0,0,1-.35.54,1.17,1.17,0,0,1-.48.29,2.3,2.3,0,0,1-.64.11c-.24,0-.52,0-.84,0v-1a6.77,6.77,0,0,0,.7,0,1.27,1.27,0,0,0,.39-.08.48.48,0,0,0,.21-.19c0-.08.1-.19.16-.34s-.18-.43-.3-.69-.24-.53-.36-.82l-.4-.9-.38-.89-.93-2.13h1.16l1.78,4.13Z"/><path class="cls-8" d="M34.22,184.43h1.1v1h-1.1a4.19,4.19,0,0,1-1-.13,2.48,2.48,0,0,1-.82-.38,1.7,1.7,0,0,1-.52-.61,1.8,1.8,0,0,1-.18-.82v-3h-.82v-.84h.82v-.87h1.06v.87h1.66v.84H32.71v3a.76.76,0,0,0,.41.69A2.11,2.11,0,0,0,34.22,184.43Z"/><path class="cls-8" d="M40.64,183.91l.94.54a2.47,2.47,0,0,1-1.06.78,4,4,0,0,1-1.48.28,4.32,4.32,0,0,1-1-.13,2.61,2.61,0,0,1-.85-.37,1.78,1.78,0,0,1-.59-.63,1.8,1.8,0,0,1-.22-.89v-2a1.74,1.74,0,0,1,.21-.86,2,2,0,0,1,.57-.62,2.65,2.65,0,0,1,.85-.38,4.46,4.46,0,0,1,1.06-.13,4.36,4.36,0,0,1,1,.12A2.78,2.78,0,0,1,41,180a1.91,1.91,0,0,1,.58.62,1.8,1.8,0,0,1,.21.89V183H37.43v.52a.68.68,0,0,0,.13.42,1,1,0,0,0,.35.32,1.7,1.7,0,0,0,.51.19,2.45,2.45,0,0,0,.62.07,2.74,2.74,0,0,0,.9-.15A1.7,1.7,0,0,0,40.64,183.91Zm-3.21-2.43V182h3.25v-.51a.84.84,0,0,0-.13-.44,1.23,1.23,0,0,0-.36-.31,1.87,1.87,0,0,0-.52-.18,3.34,3.34,0,0,0-1.26,0,1.88,1.88,0,0,0-.52.2,1,1,0,0,0-.34.31A.74.74,0,0,0,37.43,181.48Z"/><path class="cls-8" d="M43.5,178.25h1.07v7.18H43.5Z"/><path class="cls-8" d="M46.44,178.25h1.07v7.18H46.44Z"/><path class="cls-8" d="M49.38,178.25h1.08V179H49.38Zm1.08,7.18H49.39V179.6h1.07Z"/><path class="cls-8" d="M56.67,181.47a.68.68,0,0,0-.16-.46,1.4,1.4,0,0,0-.41-.3,1.8,1.8,0,0,0-.54-.17,2.94,2.94,0,0,0-1.08,0,1.74,1.74,0,0,0-.53.17,1.35,1.35,0,0,0-.4.3.73.73,0,0,0-.15.46v4H52.33v-4a1.7,1.7,0,0,1,.21-.85,1.9,1.9,0,0,1,.58-.62,2.75,2.75,0,0,1,.85-.38,4.46,4.46,0,0,1,1.06-.13,4.54,4.54,0,0,1,1.07.13A2.82,2.82,0,0,1,57,180a1.94,1.94,0,0,1,.56.62,1.64,1.64,0,0,1,.21.84v4H56.67Z"/><path class="cls-8" d="M65,181.47v4.07a1.69,1.69,0,0,1-.21.86,1.63,1.63,0,0,1-.56.58,2.68,2.68,0,0,1-.86.35,5.12,5.12,0,0,1-1.07.1,5.85,5.85,0,0,1-.73,0,3.38,3.38,0,0,1-.7-.16,2.8,2.8,0,0,1-.62-.32,2.68,2.68,0,0,1-.55-.52l.84-.59a1,1,0,0,0,.32.29,2.44,2.44,0,0,0,.44.19,3.89,3.89,0,0,0,.49.12,4.38,4.38,0,0,0,.51,0,4.26,4.26,0,0,0,.64-.05,2.28,2.28,0,0,0,.52-.16.91.91,0,0,0,.35-.28.74.74,0,0,0,.13-.41v-.41a5.68,5.68,0,0,1-.74.26,3.37,3.37,0,0,1-.9.12,4.25,4.25,0,0,1-1-.13,2.61,2.61,0,0,1-.85-.37,1.81,1.81,0,0,1-.58-.62,1.69,1.69,0,0,1-.22-.88v-2a1.75,1.75,0,0,1,.21-.87,2,2,0,0,1,.57-.62,2.47,2.47,0,0,1,.84-.37,4,4,0,0,1,1.05-.13,4.22,4.22,0,0,1,1,.12,2.58,2.58,0,0,1,.86.37,1.91,1.91,0,0,1,.59.61A1.7,1.7,0,0,1,65,181.47Zm-1.06,0a.67.67,0,0,0-.15-.44,1,1,0,0,0-.37-.31,1.87,1.87,0,0,0-.52-.18,2.91,2.91,0,0,0-.6-.06,3.11,3.11,0,0,0-.62.06,1.88,1.88,0,0,0-.52.2,1.1,1.1,0,0,0-.36.31.75.75,0,0,0-.13.42v2a.75.75,0,0,0,.13.42,1.2,1.2,0,0,0,.35.32,1.87,1.87,0,0,0,.52.19,2.59,2.59,0,0,0,.63.07,2.62,2.62,0,0,0,.64-.07,1.87,1.87,0,0,0,.52-.19,1,1,0,0,0,.34-.32.68.68,0,0,0,.14-.42Z"/><path class="cls-10" d="M92.62,269.93h-.71l-1.48-4.18-1.51,4.18h-.7l-2.09-5.85h1.11l1.3,3.93L90,264.08h.87L92.3,268l1.32-3.93H94.7Z"/><path class="cls-10" d="M100.07,268.41l1,.54a2.53,2.53,0,0,1-1.06.78,4.07,4.07,0,0,1-1.49.28,4.17,4.17,0,0,1-1-.13,2.67,2.67,0,0,1-.86-.37,1.88,1.88,0,0,1-.59-.63,1.8,1.8,0,0,1-.21-.89v-2a1.85,1.85,0,0,1,.2-.86,2,2,0,0,1,.57-.62,2.75,2.75,0,0,1,.85-.38,4.46,4.46,0,0,1,1.06-.13,4.3,4.3,0,0,1,1,.12,2.68,2.68,0,0,1,.86.36,1.71,1.71,0,0,1,.79,1.51v1.51H96.86V268a.68.68,0,0,0,.13.42,1.08,1.08,0,0,0,.35.32,1.7,1.7,0,0,0,.51.19,2.45,2.45,0,0,0,.62.07,2.66,2.66,0,0,0,.9-.15A1.63,1.63,0,0,0,100.07,268.41ZM96.86,266v.51h3.25V266a.76.76,0,0,0-.13-.44,1.18,1.18,0,0,0-.35-.31,2,2,0,0,0-.52-.18,3.39,3.39,0,0,0-1.27,0,1.81,1.81,0,0,0-.51.2,1.06,1.06,0,0,0-.35.31A.74.74,0,0,0,96.86,266Z"/><path class="cls-10" d="M104,262.75v1.62a2.57,2.57,0,0,1,.57-.26,3.51,3.51,0,0,1,1.05-.12,4.42,4.42,0,0,1,1,.12,2.42,2.42,0,0,1,.85.35,1.75,1.75,0,0,1,.8,1.52v2a1.75,1.75,0,0,1-.21.87,1.77,1.77,0,0,1-.56.63,2.65,2.65,0,0,1-.85.38,4.24,4.24,0,0,1-2.16,0,2.66,2.66,0,0,1-.85-.39,1.82,1.82,0,0,1-.54-.63,1.66,1.66,0,0,1-.2-.84v-5.27Zm0,3.23v2a.68.68,0,0,0,.13.42,1.08,1.08,0,0,0,.35.32,1.63,1.63,0,0,0,.51.19,2.53,2.53,0,0,0,.63.07,3.22,3.22,0,0,0,.64-.07,2,2,0,0,0,.51-.2,1.11,1.11,0,0,0,.35-.33.74.74,0,0,0,.12-.42v-2a.72.72,0,0,0-.13-.44,1,1,0,0,0-.36-.31,1.87,1.87,0,0,0-.52-.18,3,3,0,0,0-.61-.06,3.06,3.06,0,0,0-.63.06,1.88,1.88,0,0,0-.52.2.93.93,0,0,0-.34.31A.68.68,0,0,0,104,266Z"/><path class="cls-7" d="M384.63,84.43V78.74a1.81,1.81,0,0,1,.2-.85,1.91,1.91,0,0,1,.55-.62,2.17,2.17,0,0,1,.84-.39,4.17,4.17,0,0,1,1.09-.14,4.07,4.07,0,0,1,1.07.14,2.5,2.5,0,0,1,.86.38,2,2,0,0,1,.56.63,1.92,1.92,0,0,1,.2.87v2a1.81,1.81,0,0,1-.21.9,1.91,1.91,0,0,1-.58.62,2.47,2.47,0,0,1-.86.35,4.3,4.3,0,0,1-1,.12,3.51,3.51,0,0,1-1.05-.12,2.27,2.27,0,0,1-.56-.26v2Zm1.19-3.23a1.07,1.07,0,0,0,.35.31,1.46,1.46,0,0,0,.51.19,2.59,2.59,0,0,0,.63.07,3.11,3.11,0,0,0,.62-.06,1.92,1.92,0,0,0,.51-.18,1,1,0,0,0,.36-.31.72.72,0,0,0,.14-.44v-2a.73.73,0,0,0-.13-.43,1.05,1.05,0,0,0-.34-.32,1.88,1.88,0,0,0-.52-.2,2.62,2.62,0,0,0-.64-.07,3,3,0,0,0-.62.06,1.7,1.7,0,0,0-.51.2,1,1,0,0,0-.35.31.73.73,0,0,0-.13.43v2A.74.74,0,0,0,385.82,81.2Z"/><path class="cls-7" d="M394.38,76.74a4.34,4.34,0,0,1,1,.12,2.67,2.67,0,0,1,.84.36,1.78,1.78,0,0,1,.58.61,1.61,1.61,0,0,1,.22.87v2a2.11,2.11,0,0,1-.19.91,1.79,1.79,0,0,1-.55.64,2.64,2.64,0,0,1-.85.37,4.75,4.75,0,0,1-1.1.12,5,5,0,0,1-1.05-.11,2.76,2.76,0,0,1-.86-.34,1.78,1.78,0,0,1-.57-.59,1.65,1.65,0,0,1-.21-.85,1.47,1.47,0,0,1,.15-.67,1.44,1.44,0,0,1,.42-.5,1.83,1.83,0,0,1,.64-.32,2.73,2.73,0,0,1,.83-.12H396v-.55a.75.75,0,0,0-.13-.42,1,1,0,0,0-.34-.3,1.92,1.92,0,0,0-.51-.18,2.59,2.59,0,0,0-.63-.07,1.72,1.72,0,0,0-1.5.63l-.92-.51a2.31,2.31,0,0,1,1-.85A3.56,3.56,0,0,1,394.38,76.74Zm1.61,4v-.46h-2.27a1.64,1.64,0,0,0-.49.07,1.07,1.07,0,0,0-.3.17.47.47,0,0,0-.16.19.74.74,0,0,0,0,.18.68.68,0,0,0,.13.4,1,1,0,0,0,.36.28,2.28,2.28,0,0,0,.52.16,4,4,0,0,0,.62.05,2.41,2.41,0,0,0,.9-.13,1.36,1.36,0,0,0,.48-.29.64.64,0,0,0,.2-.34A1.28,1.28,0,0,0,396,80.72Z"/><path class="cls-7" d="M398.92,78.71a1.67,1.67,0,0,1,.22-.88,1.94,1.94,0,0,1,.6-.61,2.67,2.67,0,0,1,.86-.37,4.29,4.29,0,0,1,1.78,0,3.26,3.26,0,0,1,.75.23,2.52,2.52,0,0,1,.64.44,2.16,2.16,0,0,1,.49.68l-1,.41a1.08,1.08,0,0,0-.28-.38,1.36,1.36,0,0,0-.41-.26,1.71,1.71,0,0,0-.49-.14,3.15,3.15,0,0,0-.52,0,3.21,3.21,0,0,0-.63.06,1.81,1.81,0,0,0-.51.2,1.16,1.16,0,0,0-.35.3.68.68,0,0,0-.13.42v2.06a.71.71,0,0,0,.15.46,1.23,1.23,0,0,0,.4.31,2.19,2.19,0,0,0,.53.17,3.5,3.5,0,0,0,.54.05,2.55,2.55,0,0,0,1-.19,1.47,1.47,0,0,0,.75-.62l.94.4a2.33,2.33,0,0,1-.51.67,2.45,2.45,0,0,1-.65.43,3.12,3.12,0,0,1-.73.24,5.14,5.14,0,0,1-.78.07,4.44,4.44,0,0,1-1.05-.13,2.65,2.65,0,0,1-.85-.38,1.83,1.83,0,0,1-.58-.63,1.67,1.67,0,0,1-.2-.85Z"/><path class="cls-7" d="M411.25,76.88l-3.35,2.66,3.59,3.14h-1.58L407,80.1v2.58h-1.06V75.5H407V79l2.64-2.08Z"/><path class="cls-7" d="M415.08,76.74a4.22,4.22,0,0,1,1,.12,2.73,2.73,0,0,1,.85.36,2,2,0,0,1,.58.61,1.7,1.7,0,0,1,.21.87v2a2,2,0,0,1-.19.91,1.7,1.7,0,0,1-.55.64,2.64,2.64,0,0,1-.85.37,4.61,4.61,0,0,1-1.09.12,5.07,5.07,0,0,1-1.06-.11,2.7,2.7,0,0,1-.85-.34,1.72,1.72,0,0,1-.58-.59,1.65,1.65,0,0,1-.21-.85,1.47,1.47,0,0,1,.15-.67,1.56,1.56,0,0,1,.42-.5,1.83,1.83,0,0,1,.64-.32,2.75,2.75,0,0,1,.84-.12h2.27v-.55a.68.68,0,0,0-.13-.42.91.91,0,0,0-.34-.3,1.92,1.92,0,0,0-.51-.18,2.53,2.53,0,0,0-.63-.07,1.74,1.74,0,0,0-1.5.63l-.91-.51a2.25,2.25,0,0,1,1-.85A3.54,3.54,0,0,1,415.08,76.74Zm1.61,4v-.46h-2.27a1.52,1.52,0,0,0-.48.07,1,1,0,0,0-.31.17.53.53,0,0,0-.15.19.45.45,0,0,0,0,.18.62.62,0,0,0,.13.4.91.91,0,0,0,.35.28,2.28,2.28,0,0,0,.52.16,4.23,4.23,0,0,0,.63.05,2.36,2.36,0,0,0,.89-.13,1.32,1.32,0,0,0,.49-.29.8.8,0,0,0,.2-.34A1.16,1.16,0,0,0,416.69,80.72Z"/><path class="cls-7" d="M425,78.72v4.07a1.69,1.69,0,0,1-.21.86,1.63,1.63,0,0,1-.56.58,2.68,2.68,0,0,1-.86.35,5.12,5.12,0,0,1-1.07.1,5.85,5.85,0,0,1-.73,0,3.24,3.24,0,0,1-.7-.16,2.8,2.8,0,0,1-.62-.32,2.68,2.68,0,0,1-.55-.52l.84-.59a1,1,0,0,0,.32.29,2.44,2.44,0,0,0,.44.19,3.89,3.89,0,0,0,.49.12,4.38,4.38,0,0,0,.51,0,4.26,4.26,0,0,0,.64,0,2.28,2.28,0,0,0,.52-.16.91.91,0,0,0,.35-.28.73.73,0,0,0,.12-.41v-.41a5,5,0,0,1-.73.26,3.37,3.37,0,0,1-.9.12,4.19,4.19,0,0,1-1-.13,2.61,2.61,0,0,1-.85-.37,1.81,1.81,0,0,1-.58-.62,1.69,1.69,0,0,1-.22-.88v-2a1.75,1.75,0,0,1,.21-.87,2,2,0,0,1,.57-.62,2.47,2.47,0,0,1,.84-.37,4,4,0,0,1,1.05-.13,4.22,4.22,0,0,1,1,.12,2.58,2.58,0,0,1,.86.37,1.91,1.91,0,0,1,.59.61A1.7,1.7,0,0,1,425,78.72Zm-1.07,0a.66.66,0,0,0-.14-.44,1,1,0,0,0-.37-.31,1.87,1.87,0,0,0-.52-.18,2.91,2.91,0,0,0-.6-.06,3.11,3.11,0,0,0-.62.06,1.88,1.88,0,0,0-.52.2,1.1,1.1,0,0,0-.36.31.75.75,0,0,0-.13.42v2a.75.75,0,0,0,.13.42,1.2,1.2,0,0,0,.35.32,1.87,1.87,0,0,0,.52.19,2.59,2.59,0,0,0,.63.07,2.62,2.62,0,0,0,.64-.07,1.87,1.87,0,0,0,.52-.19,1,1,0,0,0,.34-.32.68.68,0,0,0,.13-.42Z"/><path class="cls-7" d="M426.85,75.5h1.08v.79h-1.08Zm1.08,7.18h-1.07V76.85h1.07Z"/><path class="cls-7" d="M434.14,78.72a.68.68,0,0,0-.16-.46,1.28,1.28,0,0,0-.41-.3,1.83,1.83,0,0,0-.53-.17,3.74,3.74,0,0,0-.55-.05,3.5,3.5,0,0,0-.54.05,1.83,1.83,0,0,0-.53.17,1.35,1.35,0,0,0-.4.3.73.73,0,0,0-.15.46v4H429.8v-4a1.7,1.7,0,0,1,.21-.85,1.9,1.9,0,0,1,.58-.62,2.75,2.75,0,0,1,.85-.38,4.46,4.46,0,0,1,1.06-.13,4.07,4.07,0,0,1,1.07.14,2.5,2.5,0,0,1,.86.38,2,2,0,0,1,.57.62,1.74,1.74,0,0,1,.21.84v4h-1.07Z"/><path class="cls-7" d="M442.44,78.72v4.07a1.79,1.79,0,0,1-.2.86,1.75,1.75,0,0,1-.57.58,2.62,2.62,0,0,1-.85.35,5.25,5.25,0,0,1-1.07.1,5.9,5.9,0,0,1-.74,0,3.38,3.38,0,0,1-.7-.16,2.8,2.8,0,0,1-.62-.32,2.68,2.68,0,0,1-.55-.52l.84-.59a.94.94,0,0,0,.33.29,2.08,2.08,0,0,0,.43.19,3.89,3.89,0,0,0,.49.12,4.38,4.38,0,0,0,.51,0,4.26,4.26,0,0,0,.64,0,2.28,2.28,0,0,0,.52-.16.91.91,0,0,0,.35-.28.74.74,0,0,0,.13-.41v-.41a5.68,5.68,0,0,1-.74.26,3.37,3.37,0,0,1-.9.12,4.32,4.32,0,0,1-1-.13,2.61,2.61,0,0,1-.85-.37,1.91,1.91,0,0,1-.58-.62,1.69,1.69,0,0,1-.22-.88v-2a1.75,1.75,0,0,1,.21-.87,2,2,0,0,1,.57-.62,2.44,2.44,0,0,1,.85-.37,3.87,3.87,0,0,1,1.05-.13,4.19,4.19,0,0,1,1,.12,2.58,2.58,0,0,1,.86.37,1.91,1.91,0,0,1,.59.61A1.7,1.7,0,0,1,442.44,78.72Zm-1.06,0a.72.72,0,0,0-.14-.44,1.12,1.12,0,0,0-.37-.31,2.07,2.07,0,0,0-.53-.18,2.91,2.91,0,0,0-.6-.06,3.11,3.11,0,0,0-.62.06,1.88,1.88,0,0,0-.52.2,1.1,1.1,0,0,0-.36.31.75.75,0,0,0-.13.42v2a.75.75,0,0,0,.13.42,1.2,1.2,0,0,0,.35.32,1.87,1.87,0,0,0,.52.19,2.59,2.59,0,0,0,.63.07,2.62,2.62,0,0,0,.64-.07,1.87,1.87,0,0,0,.52-.19,1.2,1.2,0,0,0,.35-.32.75.75,0,0,0,.13-.42Z"/><path class="cls-6" d="M49.42,63.68h-.85L46,57.83h1.15L49,62.06l1.85-4.23H52Z"/><path class="cls-6" d="M53.22,56.5H54.3v.79H53.22Zm1.08,7.18H53.23V57.85H54.3Z"/><path class="cls-6" d="M58.76,60.21a5.9,5.9,0,0,1,1.07.1,2.58,2.58,0,0,1,.85.3,1.53,1.53,0,0,1,.56.54,1.64,1.64,0,0,1,.2.83,1.56,1.56,0,0,1-.21.82,1.7,1.7,0,0,1-.57.56,3,3,0,0,1-.86.32,4.85,4.85,0,0,1-1,.11,2.86,2.86,0,0,1-2.7-1.3L57,62a1.71,1.71,0,0,0,.22.29,1.21,1.21,0,0,0,.35.25,2,2,0,0,0,.51.19,3.44,3.44,0,0,0,.7.07,4.1,4.1,0,0,0,.62,0,3,3,0,0,0,.52-.15,1.16,1.16,0,0,0,.35-.25.61.61,0,0,0,.13-.36.57.57,0,0,0-.13-.37,1.12,1.12,0,0,0-.35-.23,1.89,1.89,0,0,0-.52-.12,6.06,6.06,0,0,0-.62,0,5.77,5.77,0,0,1-1-.08,2.75,2.75,0,0,1-.85-.29,1.53,1.53,0,0,1-.57-.53,1.42,1.42,0,0,1-.21-.8,1.5,1.5,0,0,1,.77-1.38,2.58,2.58,0,0,1,.85-.3,4.93,4.93,0,0,1,1-.1,3.51,3.51,0,0,1,1.47.27,2.39,2.39,0,0,1,1,.93l-.94.52a1.27,1.27,0,0,0-.6-.57,2.44,2.44,0,0,0-.93-.15,3.86,3.86,0,0,0-.6,0,2.57,2.57,0,0,0-.53.13,1.1,1.1,0,0,0-.36.25.51.51,0,0,0-.14.36.46.46,0,0,0,.14.34.9.9,0,0,0,.36.21,2.37,2.37,0,0,0,.52.11A5.93,5.93,0,0,0,58.76,60.21Z"/><path class="cls-6" d="M67.54,57.83H68.6v4a1.66,1.66,0,0,1-.2.84,1.75,1.75,0,0,1-.55.63,2.69,2.69,0,0,1-.84.38,4.46,4.46,0,0,1-1.06.13,4.61,4.61,0,0,1-1.07-.13,2.87,2.87,0,0,1-.87-.38,2,2,0,0,1-.59-.63,1.57,1.57,0,0,1-.22-.84v-4h1.06v4a.67.67,0,0,0,.17.46,1,1,0,0,0,.41.3,2.27,2.27,0,0,0,.54.17,3.64,3.64,0,0,0,.56,0,3.27,3.27,0,0,0,.53,0,2.26,2.26,0,0,0,.52-.17,1,1,0,0,0,.39-.3.66.66,0,0,0,.16-.46Z"/><path class="cls-6" d="M73,57.74a4.28,4.28,0,0,1,1,.12,2.83,2.83,0,0,1,.85.36,1.84,1.84,0,0,1,.57.61,1.61,1.61,0,0,1,.22.87v2a2,2,0,0,1-.19.91,1.7,1.7,0,0,1-.55.64,2.64,2.64,0,0,1-.85.37,4.67,4.67,0,0,1-1.09.12A5.07,5.07,0,0,1,72,63.65a2.76,2.76,0,0,1-.86-.34,1.78,1.78,0,0,1-.57-.59,1.65,1.65,0,0,1-.21-.85,1.47,1.47,0,0,1,.15-.67,1.44,1.44,0,0,1,.42-.5,1.83,1.83,0,0,1,.64-.32,2.73,2.73,0,0,1,.83-.12h2.28v-.55a.68.68,0,0,0-.13-.42,1,1,0,0,0-.34-.3,1.92,1.92,0,0,0-.51-.18,2.59,2.59,0,0,0-.63-.07,1.74,1.74,0,0,0-1.5.63l-.92-.51a2.31,2.31,0,0,1,1-.85A3.56,3.56,0,0,1,73,57.74Zm1.61,4v-.46H72.36a1.64,1.64,0,0,0-.49.07,1.07,1.07,0,0,0-.3.17.44.44,0,0,0-.15.19.45.45,0,0,0,0,.18.68.68,0,0,0,.12.4,1,1,0,0,0,.36.28,2.28,2.28,0,0,0,.52.16,4.13,4.13,0,0,0,.63,0,2.39,2.39,0,0,0,.89-.13,1.27,1.27,0,0,0,.48-.29.74.74,0,0,0,.21-.34A2.06,2.06,0,0,0,74.63,61.72Z"/><path class="cls-6" d="M77.56,56.5h1.06v7.18H77.56Z"/><path class="cls-6" d="M83.62,56.5H84.7v.79H83.62Zm1.08,7.18H83.63V57.85H84.7Z"/><path class="cls-6" d="M91.94,56.5v5.27a1.66,1.66,0,0,1-.2.84,1.82,1.82,0,0,1-.54.63,2.66,2.66,0,0,1-.85.39,4.11,4.11,0,0,1-1.09.14,4.07,4.07,0,0,1-1.07-.14,2.65,2.65,0,0,1-.85-.38,1.77,1.77,0,0,1-.56-.63,1.75,1.75,0,0,1-.21-.87v-2a1.75,1.75,0,0,1,.8-1.52,2.42,2.42,0,0,1,.85-.35,4.36,4.36,0,0,1,1-.12,3.51,3.51,0,0,1,1,.12,2.57,2.57,0,0,1,.57.26V56.5Zm-1.19,2.81a.93.93,0,0,0-.34-.31,1.88,1.88,0,0,0-.52-.2,3.06,3.06,0,0,0-.63-.06,3,3,0,0,0-.61.06,1.87,1.87,0,0,0-.52.18,1,1,0,0,0-.36.31.72.72,0,0,0-.13.44v2a.74.74,0,0,0,.12.42,1,1,0,0,0,.35.33,2,2,0,0,0,.51.2,3.22,3.22,0,0,0,.64.07,2.53,2.53,0,0,0,.63-.07,1.63,1.63,0,0,0,.51-.19,1.2,1.2,0,0,0,.35-.32.75.75,0,0,0,.13-.42v-2A.68.68,0,0,0,90.75,59.31Z"/><path class="cls-6" d="M98.09,62.16l1,.54a2.47,2.47,0,0,1-1.06.78,4,4,0,0,1-1.48.28,4.19,4.19,0,0,1-1-.13,2.52,2.52,0,0,1-.85-.37,1.76,1.76,0,0,1-.81-1.52v-2a1.74,1.74,0,0,1,.21-.86,2,2,0,0,1,.57-.62,2.65,2.65,0,0,1,.85-.38,4.37,4.37,0,0,1,1-.13,4.44,4.44,0,0,1,1,.12,2.73,2.73,0,0,1,.85.36,1.75,1.75,0,0,1,.8,1.51v1.51H94.88v.52a.68.68,0,0,0,.13.42,1.08,1.08,0,0,0,.35.32,1.93,1.93,0,0,0,.51.19,2.53,2.53,0,0,0,.63.07,2.64,2.64,0,0,0,.89-.15A1.63,1.63,0,0,0,98.09,62.16Zm-3.21-2.43v.51h3.25v-.51a.76.76,0,0,0-.13-.44,1.07,1.07,0,0,0-.35-.31,1.87,1.87,0,0,0-.52-.18,3.21,3.21,0,0,0-.63-.06,3.06,3.06,0,0,0-.63.06,1.88,1.88,0,0,0-.52.2,1,1,0,0,0-.34.31A.68.68,0,0,0,94.88,59.73Z"/><path class="cls-6" d="M105.3,59.72a.69.69,0,0,0-.17-.46,1.24,1.24,0,0,0-.4-.3,1.8,1.8,0,0,0-.54-.17,3.5,3.5,0,0,0-.54,0,3.62,3.62,0,0,0-.55,0,1.77,1.77,0,0,0-.52.17,1.24,1.24,0,0,0-.4.3.73.73,0,0,0-.16.46v4H101v-4a1.7,1.7,0,0,1,.21-.85,2,2,0,0,1,.57-.62,2.81,2.81,0,0,1,.86-.38,4.44,4.44,0,0,1,1.05-.13,4.15,4.15,0,0,1,1.08.14,2.45,2.45,0,0,1,.85.38,2,2,0,0,1,.57.62,1.64,1.64,0,0,1,.21.84v4H105.3Z"/><path class="cls-6" d="M111.21,62.68h1.09v1h-1.09a4.33,4.33,0,0,1-1.06-.13,2.34,2.34,0,0,1-.81-.38,1.6,1.6,0,0,1-.52-.61,1.68,1.68,0,0,1-.19-.82v-3h-.82v-.84h.82V57h1.07v.87h1.65v.84H109.7v3a.75.75,0,0,0,.41.69A2.06,2.06,0,0,0,111.21,62.68Z"/><path class="cls-6" d="M113.55,56.5h1.08v.79h-1.08Zm1.08,7.18h-1.07V57.85h1.07Z"/><path class="cls-6" d="M119.48,62.68h1.1v1h-1.1a4.19,4.19,0,0,1-1-.13,2.48,2.48,0,0,1-.82-.38,1.7,1.7,0,0,1-.52-.61,1.8,1.8,0,0,1-.18-.82v-3h-.82v-.84h.82V57H118v.87h1.66v.84H118v3a.76.76,0,0,0,.41.69A2.11,2.11,0,0,0,119.48,62.68Z"/><path class="cls-6" d="M125.92,57.83H127l-2.61,6.1a1.63,1.63,0,0,1-.35.54,1.32,1.32,0,0,1-.48.29,2.44,2.44,0,0,1-.64.11c-.25,0-.53,0-.85,0v-1h.7a1.41,1.41,0,0,0,.39-.09.48.48,0,0,0,.21-.19,2.23,2.23,0,0,0,.16-.34q-.12-.3-.3-.69l-.36-.82-.39-.9-.39-.89c-.3-.68-.61-1.39-.92-2.13h1.15L124.14,62Z"/><path class="cls-5" d="M256.31.74a4.34,4.34,0,0,1,1,.12,2.67,2.67,0,0,1,.84.36,1.87,1.87,0,0,1,.58.61,1.61,1.61,0,0,1,.22.87v2a2,2,0,0,1-.2.91,1.67,1.67,0,0,1-.54.64,2.6,2.6,0,0,1-.86.37,4.61,4.61,0,0,1-1.09.12,5,5,0,0,1-1.05-.11,2.67,2.67,0,0,1-.86-.34,1.78,1.78,0,0,1-.57-.59,1.65,1.65,0,0,1-.21-.85,1.47,1.47,0,0,1,.15-.67,1.44,1.44,0,0,1,.42-.5,1.75,1.75,0,0,1,.64-.32,2.73,2.73,0,0,1,.83-.12h2.27V2.71a.74.74,0,0,0-.12-.42,1,1,0,0,0-.34-.3,1.87,1.87,0,0,0-.52-.18,2.45,2.45,0,0,0-.62-.07,1.72,1.72,0,0,0-1.5.63l-.92-.51a2.25,2.25,0,0,1,1-.85A3.56,3.56,0,0,1,256.31.74Zm1.6,4V4.26h-2.26a1.64,1.64,0,0,0-.49.07,1.07,1.07,0,0,0-.3.17.47.47,0,0,0-.16.19.74.74,0,0,0,0,.18.68.68,0,0,0,.13.4,1.08,1.08,0,0,0,.35.28,2.44,2.44,0,0,0,.52.16,4.23,4.23,0,0,0,.63,0,2.45,2.45,0,0,0,.9-.13,1.36,1.36,0,0,0,.48-.29.71.71,0,0,0,.2-.34A1.16,1.16,0,0,0,257.91,4.72Z"/><path class="cls-5" d="M260.84,2.76a1.72,1.72,0,0,1,.69-1.45,3,3,0,0,1,1.89-.52h1.41v1h-1.41a2.06,2.06,0,0,0-1.1.26.79.79,0,0,0-.41.71V6.68h-1.07Z"/><path class="cls-5" d="M269.16,5.68h1.1v1h-1.1a4.33,4.33,0,0,1-1.06-.13,2.53,2.53,0,0,1-.81-.38,1.7,1.7,0,0,1-.52-.61,1.8,1.8,0,0,1-.18-.82v-3h-.83V.87h.83V0h1.06V.87h1.66v.84h-1.66v3a.76.76,0,0,0,.41.69A2.08,2.08,0,0,0,269.16,5.68Z"/></g></g></svg>