<svg id="Layer_1" data-name="Layer 1" xmlns="http://www.w3.org/2000/svg" viewBox="0 0 208.99 271.83"><defs><style>.cls-1{opacity:0.85;}.cls-2{fill:#d7e1f2;}.cls-3{fill:#d9dbd7;}.cls-4{fill:#d71920;}.cls-5{fill:#ffd105;}.cls-6{fill:#54c2ba;}.cls-7{fill:#8967ac;}.cls-8{fill:#54b948;}.cls-9{fill:#3b4d81;}.cls-10{fill:#008bce;}.cls-11{fill:#d069a9;}</style></defs><g id="Layer_1-2" data-name="Layer 1-2"><g class="cls-1"><polygon class="cls-2" points="90.51 41.17 90.51 132.3 115.34 113.45 115.22 97.3 127.91 89.56 127.91 78.59 93.65 38.65 90.51 41.17"/></g><g class="cls-1"><polyline class="cls-3" points="90.51 41.17 66 28.91 70.55 26.87 93.65 38.65"/></g><g class="cls-1"><polyline class="cls-3" points="150.22 9.11 123.51 2.51 129.16 0 154.3 5.97"/></g><g class="cls-1"><polyline class="cls-4" points="66 28.91 90.51 41.17 90.51 132.3 66 120.67 66 28.91"/></g><g class="cls-1"><polygon class="cls-2" points="132.94 87.05 132.94 76.18 150.53 9.11 154.3 5.97 154.68 81.45 151.79 84.22 143.15 80.45 132.94 87.05"/></g><g class="cls-1"><polygon class="cls-5" points="109.68 54.99 123.51 2.51 150.53 9.11 132.94 76.18 132.94 87.05 129.16 86.11 129.16 77.31 109.68 54.99"/></g><g class="cls-1"><path class="cls-2" d="M253,157.52c.32-.31,24.52-14.77,24.52-14.77l65.05,26.71-19.49,17.6Z" transform="translate(-134.24 -60.73)"/></g><g class="cls-1"><polygon class="cls-6" points="117.22 98.05 117.22 114.21 126.02 118.47 126.02 141.49 137.96 146.76 188.32 132.3 188.32 127.37 117.22 98.05"/></g><g class="cls-1"><polygon class="cls-2" points="207.41 50.28 208.99 51.22 163.1 88.93 153.05 84.53 156.06 82.02 156.06 71.65 207.41 50.28"/></g><g class="cls-1"><polygon class="cls-7" points="173.16 38.34 174.73 62.85 156.01 70.95 156.01 67.3 173.16 38.34"/></g><g class="cls-1"><polygon class="cls-2" points="172.16 38.34 169.7 36.77 155.25 46.28 155.25 65.99 172.16 38.34"/></g><g class="cls-1"><polygon class="cls-8" points="164.67 89.56 208.92 52.48 208.99 84.85 191.39 100.25 164.67 89.56"/></g><g class="cls-1"><polygon class="cls-2" points="22.95 52.48 64.43 70.71 64.43 51.31 45.26 43.68 22.95 52.48"/></g><g class="cls-1"><polygon class="cls-6" points="22.95 54.2 22.95 57.19 58.77 102.76 63.8 104.33 63.8 73.3 22.95 54.2"/></g><g class="cls-1"><polygon class="cls-2" points="52.8 176.3 64.74 136.07 76.37 127.27 90.51 134.43 115.02 115.65 124.14 119.73 55.63 178.5 52.8 176.3"/></g><g class="cls-1"><polygon class="cls-2" points="55.63 102.13 57.75 104.33 61.6 106.22 26.72 111.25 55.63 102.13"/></g><polygon class="cls-2" points="2.52 146.13 63.8 106.69 63.8 120.53 73.23 125.39 62.35 132.3 6.29 148.96 2.52 146.13"/><g class="cls-1"><polygon class="cls-9" points="18.7 115.65 34.26 123.5 58.77 108.42 18.7 113.41 18.7 115.65"/></g><g class="cls-1"><polygon class="cls-2" points="125.71 142.99 125.71 144.14 137.33 149.27 187.46 199.4 206.78 186.04 163.57 140.93 137.96 148.01 125.71 142.99"/></g><g class="cls-1"><polygon class="cls-8" points="5.98 150.84 5.35 179.75 55 163.41 62.85 136.39 75.68 126.89 73.94 125.73 60.66 134.5 5.98 150.84"/></g><g class="cls-1"><polygon class="cls-5" points="58.77 178.5 58.77 218.52 124.14 161.71 124.14 122.87 58.77 178.5"/></g><g class="cls-1"><polygon class="cls-10" points="64.43 215.89 87.68 195.15 87.68 270.62 64.43 252.35 64.43 215.89"/></g><g class="cls-1"><polygon class="cls-2" points="89.88 193.58 89.25 271.83 92.71 268.38 124.14 187.71 125.71 175.19 116.1 170.16 89.88 193.58"/></g><g class="cls-1"><polygon class="cls-11" points="117.54 168.76 186.67 206.47 186.36 201.12 136.71 151.16 125.71 146.13 125.71 162.47 117.54 168.76"/></g><g class="cls-1"><polygon class="cls-3" points="189.19 127.27 189.19 131.36 208.36 114.91 208.36 110.04 189.19 127.27"/></g><g class="cls-1"><polygon class="cls-3" points="187.62 201.12 187.62 206.47 206.78 192.77 206.78 188.07 187.62 201.12"/></g><g class="cls-1"><polygon class="cls-2" points="128.22 176.93 128.22 186.64 149.28 214.32 153.36 210.87 152.77 189.74 128.22 176.93"/></g><g class="cls-1"><path class="cls-9" d="M256.18,260.28s4.08-10,4.08-10.68.52-12.57.52-12.57l1,.63-.54,9.74,21.19,27.65Z" transform="translate(-134.24 -60.73)"/></g><g class="cls-1"><path class="cls-3" d="M139.27,211.57c0,.32-.93,28.91-.93,28.91l-4.1-3.14,1.58-28.6Z" transform="translate(-134.24 -60.73)"/></g><g class="cls-1"><polygon class="cls-3" points="52.17 179.13 56.88 181.01 57.51 218.41 51.23 213.38 52.17 179.13"/></g></g></svg>