<svg xmlns="http://www.w3.org/2000/svg" viewBox="0 0 349.31 337.43"><defs><style>.cls-1{fill:#020202;}</style></defs><g id="Layer_2" data-name="Layer 2"><g id="Layer_1-2" data-name="Layer 1"><path class="cls-1" d="M164.34,8.4c2.59,0,3.74-1.05,3.88-3.49.06-1.05-2-2.58-3.57-2.68-.48,0-2.92,2.29-3,2.83S163.72,8.4,164.34,8.4Z"/><path class="cls-1" d="M347.42,122.31A139.55,139.55,0,0,0,332.66,77c-14.45-27-36-46.52-63.46-59.72C245.57,5.91,220.39,1.11,194.38,0c-3.08-.13-3.15-.09-3.43,3-.11,1.22-.63,1.44-1.68,1.34-2.47-.24-4.94-.41-7.41-.61-.49-.42-1-.65-1.45,0h0l0,0h-.88C177,3,174.43,3.53,172,3h0l-1.2-.06h0c-.63-.06-1.31-.27-1.37.75-.08,1.35-.24,2.7-.34,4.05-.07,1,.59.95,1.27.87h1a38.51,38.51,0,0,0,5.25.59c1.11.77,2.3.37,3.47.29h0l8.61.61c1.57.11,1.57.12,1.48,1.65-.21,3.89-.21,3.88,3.78,4.1a211.73,211.73,0,0,1,35.8,4.8c14.52,3.31,28.58,7.9,41.82,14.81,12.89,6.73,24.31,15.31,33.63,26.56,9,10.85,15.18,23.2,19.59,36.5a94.06,94.06,0,0,1,2.81,9.68,6,6,0,0,1-4.05-4.09A106.79,106.79,0,0,0,304.6,70.48c-9.81-11.61-21.72-20.16-36.39-24.6-11.68-3.53-23.56-4-35.57-2.27a71.53,71.53,0,0,0-33.93,14c-10,7.58-17.44,17.27-23.46,28.15-1.09,2-2.19,3.9-3.4,5.77a42.7,42.7,0,0,1-13,13.29A25.48,25.48,0,0,1,145.35,109a22.93,22.93,0,0,1-12.69-3.69c-.94-.6-1.43-.63-2.1.33-1.42,2-3,4-4.47,5.94-1.2,1.57-1.21,1.56-2.82,0,1.78-2.34,3.5-4.74,5.38-7,.85-1,.76-1.61-.23-2.48a48.62,48.62,0,0,1-7.56-8.33,14.46,14.46,0,0,1-2.61-5.34,4.09,4.09,0,0,1,5-4.94A7.57,7.57,0,0,1,126,84.66c1.38,1,2.73,2,4,3,3.22,2.5,6.48,4.93,9.84,7.25s6.39,2,9.67.29a4,4,0,0,1,1.73-.73c5.65-.23,10.41-2.82,15-5.83,2.34-1.55,2.68-3,1.67-5.56-.72-1.86-1.55-3.68-2.26-5.54a24.84,24.84,0,0,1-1.46-13.64q.56-3.06,1.15-6.12c1-4.92.7-9.7-1.67-14.23A33.49,33.49,0,0,0,159,36.89a86.42,86.42,0,0,0-15.58-13.43c-2.71-1.89-2.71-1.88-.78-4.71,1.56-2.28,3.09-4.56,4.86-7.17l-19.84,4-.28-.37,6.71-9.92a18.25,18.25,0,0,0-2,0c-6.18.84-12.31,1.9-18.37,3.33C93,13.52,73.7,21.62,56.29,34,34.36,49.57,18.1,69.66,8.48,94.91,1.34,113.66-1,133.09.4,153.06a131.2,131.2,0,0,0,9,39.76c9.28,23.06,24.33,41.65,43.93,56.72C64.63,258.2,77,264.92,89.78,271.08c11,5.3,22.14,10.26,33,15.77,22.79,11.54,41.3,27.68,54.25,49.9.18.32.32.7.83.68l1.57-2.69a105.11,105.11,0,0,1,30.63-33.23A176.5,176.5,0,0,1,237,286.46c11.06-5.15,22.36-9.77,33.25-15.3a147.79,147.79,0,0,0,57.6-51.1,126.83,126.83,0,0,0,20.78-58.54A160.87,160.87,0,0,0,347.42,122.31ZM174.58,193.47A31.57,31.57,0,1,1,206.27,162,31.59,31.59,0,0,1,174.58,193.47Z"/><path class="cls-1" d="M174.62,157.27a4.64,4.64,0,1,0,4.75,4.64A4.65,4.65,0,0,0,174.62,157.27Z"/></g></g></svg>