<?xml version="1.0" encoding="utf-8"?>
<!-- Generator: Adobe Illustrator 25.1.0, SVG Export Plug-In . SVG Version: 6.00 Build 0)  -->
<svg version="1.1" id="Layer_1" xmlns="http://www.w3.org/2000/svg" xmlns:xlink="http://www.w3.org/1999/xlink" x="0px" y="0px"
	 viewBox="0 0 300 192.7" style="enable-background:new 0 0 300 192.7;" xml:space="preserve">
<style type="text/css">
	.st0{fill:#F9A11F;}
	.st1{fill:#6BB245;}
	.st2{fill:none;stroke:#6D6B6B;stroke-miterlimit:10;}
	.st3{fill:#595858;}
	.st4{opacity:0.19;}
	.st5{fill:#6D6B6B;}
</style>
<g>
	<g>
		<path class="st0" d="M68.4,73.5c-2.7-2.7-4.1-6.4-4.1-10l0,0c0-3.6,1.3-7.2,4.1-10s6.4-4.1,10-4.1l0,0c3.6,0,7.2,1.3,10,4.1
			c2.7,2.7,4.1,6.4,4.1,10l0,0c0,3.6-1.3,7.2-4.1,10L66.7,95.1l-4.5-4.5l16.1-16.1l2.7-2.7l2.7-2.7c1.5-1.5,2.3-3.5,2.3-5.5
			s-0.8-4-2.3-5.5c-1.5-1.5-3.5-2.3-5.5-2.3s-4,0.8-5.5,2.3c-1.5,1.5-2.3,3.5-2.3,5.5s0.8,4,2.3,5.5l4.1,4.1l-4.5,4.5L68.4,73.5
			L68.4,73.5z"/>
	</g>
	<g>
		<path class="st1" d="M86.2,119.2c2.7-2.7,4.1-6.4,4.1-10l0,0c0-3.6-1.3-7.2-4.1-10c-2.7-2.7-6.4-4.1-10-4.1l0,0
			c-3.6,0-7.2,1.3-10,4.1c-2.7,2.7-4.1,6.4-4.1,10l0,0c0,3.6,1.3,7.2,4.1,10L88,140.9l4.5-4.5l-16.1-16.1l-2.7-2.7l-2.7-2.7
			c-1.5-1.5-2.3-3.5-2.3-5.5c0-2,0.8-4,2.3-5.5c1.5-1.5,3.5-2.3,5.5-2.3s4,0.8,5.5,2.3c1.5,1.5,2.3,3.5,2.3,5.5c0,2-0.8,4-2.3,5.5
			l-4.1,4.1l4.5,4.5L86.2,119.2L86.2,119.2z"/>
	</g>
	<line class="st2" x1="100.3" y1="144.5" x2="100.3" y2="43.4"/>
	<g>
		<g>
			<path class="st3" d="M125.3,89.6h-16.1V63h16.1v1.8h-14.3v13.8h12.5v1.8h-12.5v7.2h14.3C125.3,87.7,125.3,89.6,125.3,89.6z"/>
			<path class="st3" d="M129.3,76.2c0-7.4,5.9-13.3,13.3-13.3s13.3,5.9,13.3,13.3c0,7.4-5.9,13.3-13.3,13.3
				C135.2,89.5,129.3,83.6,129.3,76.2z M131.1,76.2c0,6.4,5.1,11.4,11.4,11.4c6.4,0,11.4-5.1,11.4-11.4s-5.1-11.4-11.4-11.4
				S131.1,69.9,131.1,76.2z"/>
			<path class="st3" d="M178.4,71.7c0,4.9-3.9,8.7-8.7,8.7h-8v9.1h-1.8V62.9h9.8C174.4,62.9,178.4,66.8,178.4,71.7L178.4,71.7z
				 M169.6,78.7c3.8,0,6.9-3.1,6.9-6.9s-3.1-6.9-6.9-6.9h-8v13.8H169.6L169.6,78.7z"/>
			<path class="st3" d="M196.5,89.6h-14.2V63h1.8v24.8h12.3L196.5,89.6z"/>
			<path class="st3" d="M216.6,89.6h-16.1V63h16.1v1.8h-14.3v13.8h12.5v1.8h-12.5v7.2h14.3V89.6z"/>
		</g>
		<g>
			<path class="st3" d="M125.2,124.7h-15.1V96.3h1.9v26.3h13.1L125.2,124.7z"/>
			<path class="st3" d="M129.4,124.6L141,96l11.4,28.6h-2.1l-2.4-6.1H134l-2.5,6.1H129.4z M134.7,116.6H147l-6.1-15.3L134.7,116.6z"
				/>
			<path class="st3" d="M166.6,122.7c2.8,0,5.6-1,7.7-2.8l1.3,1.5c-4.8,3.9-11.7,4.3-16.9,0.8c-5.2-3.4-7.5-9.9-5.7-15.9
				c1.8-6,7.2-10.1,13.5-10.1c3.2,0,6.2,1.1,8.7,3l-1.2,1.5c-2.1-1.7-4.8-2.6-7.5-2.6c-6.7,0-12.2,5.4-12.2,12.2
				C154.4,117.2,159.8,122.7,166.6,122.7L166.6,122.7z"/>
			<path class="st3" d="M196.9,124.7h-17.1V96.4h17.1v1.9h-15.1V113H195v1.9h-13.3v7.7h15.1V124.7z"/>
			<path class="st3" d="M207.6,122.7c2.8,0,5.1-1.9,5.9-4.5c0.7-2.7-0.4-5.5-2.9-6.9l-6.5-3.8c-2.3-1.4-3.4-4.1-2.8-6.7
				c0.7-2.6,3.1-4.4,5.7-4.4h0.6c2.1,0,4.1,1.1,5.1,2.9l-1.7,1c-0.7-1.2-2-1.9-3.4-1.9h-0.6c-1.8,0-3.4,1.2-3.9,2.9
				c-0.4,1.8,0.3,3.6,1.9,4.5l6.5,3.8c3.2,1.8,4.7,5.6,3.8,9.1s-4.1,6-7.8,6h-0.1c-2.5,0-4.9-1.2-6.4-3.3l1.6-1.2
				C203.8,121.7,205.6,122.6,207.6,122.7L207.6,122.7L207.6,122.7z"/>
		</g>
	</g>
	<g class="st4">
		<path class="st5" d="M239.8,91.6h-4c3,2.3,4.1,6.3,2.6,9.8c-1.5,3.5-5.1,5.6-8.8,5.1s-6.7-3.4-7.2-7.2c-0.5-3.7,1.6-7.3,5.1-8.8
			c-1.8-1.5-2.4-4-1.4-6.1c1-2.1,3.4-3.3,5.7-2.8c2.3,0.5,3.9,2.6,3.9,4.9H234c0-1.8-1.5-3.3-3.3-3.3c-1.9,0-3.3,1.5-3.3,3.3
			c0,1.8,1.5,3.3,3.3,3.3h9.1v1.8H239.8z M230.7,91.6c-3.6,0-6.6,2.9-6.6,6.6c0,3.6,2.9,6.6,6.6,6.6s6.6-2.9,6.6-6.6
			C237.3,94.5,234.4,91.6,230.7,91.6z"/>
	</g>
</g>
</svg>
