<svg id="Layer_1" data-name="Layer 1" xmlns="http://www.w3.org/2000/svg" viewBox="0 0 300 192.71"><defs><style>.cls-1{fill:#253a78;}.cls-2{fill:#233e7d;}.cls-3{fill:#dc8d29;}.cls-4{fill:#009849;}.cls-5{fill:#c82128;}.cls-6{fill:none;stroke:#009849;stroke-miterlimit:10;stroke-width:4px;}</style></defs><path class="cls-1" d="M116.83,142.86h-.19v0a.22.22,0,0,0-.07-.17.25.25,0,0,0-.16-.06.26.26,0,0,0-.15,0,1.51,1.51,0,0,1-1,.36H115a1.57,1.57,0,0,1-1.56-1.56v-8.54a1.54,1.54,0,0,1,.12-.61,1.77,1.77,0,0,1,.34-.5,1.61,1.61,0,0,1,.5-.33,1.53,1.53,0,0,1,.6-.12h.25a1.51,1.51,0,0,1,1,.36.26.26,0,0,0,.15.05.25.25,0,0,0,.16-.06.22.22,0,0,0,.07-.17v0h.19v2.29h-.19a4.43,4.43,0,0,0-.16-1.15,2.63,2.63,0,0,0-.17-.42,1.78,1.78,0,0,0-.25-.36,1.52,1.52,0,0,0-.35-.26,1.12,1.12,0,0,0-.47-.1H115a.63.63,0,0,0-.63.64v10.06a.61.61,0,0,0,.18.45.65.65,0,0,0,.45.19h.25a1,1,0,0,0,.81-.36,2.48,2.48,0,0,0,.41-.79,4.86,4.86,0,0,0,.18-1.14h.19Z"/><path class="cls-1" d="M128.64,131.48a1.49,1.49,0,0,1,.83.83,1.54,1.54,0,0,1,.12.61v8.54a1.53,1.53,0,0,1-.12.6,1.61,1.61,0,0,1-.33.5,1.77,1.77,0,0,1-.5.34,1.68,1.68,0,0,1-.63.12h-.25a1.57,1.57,0,0,1-1.57-1.56v-8.54a1.65,1.65,0,0,1,.46-1.11,1.74,1.74,0,0,1,.5-.33,1.62,1.62,0,0,1,.61-.12H128A1.68,1.68,0,0,1,128.64,131.48Zm0,.68a.61.61,0,0,0-.18-.45.57.57,0,0,0-.43-.19h-.27a.58.58,0,0,0-.45.19.61.61,0,0,0-.18.45v10.06a.61.61,0,0,0,.18.45.62.62,0,0,0,.45.19H128a.63.63,0,0,0,.61-.64Z"/><path class="cls-1" d="M145,131.52v11.34h.55V143h-2v-.16H144V132l-2,11h-.22l-2-11.18v11h.67V143H139v-.16h.67V131.52H139v-.16h1.7l1.63,9.21,1.67-9.21h1.55v.16Z"/><path class="cls-1" d="M159.49,131.36v.16h-.66v9.94a1.54,1.54,0,0,1-.13.6,1.45,1.45,0,0,1-.33.5,1.87,1.87,0,0,1-.49.34,1.59,1.59,0,0,1-.62.12H157a1.58,1.58,0,0,1-.61-.12,2,2,0,0,1-.51-.34,1.48,1.48,0,0,1-.34-.5,1.53,1.53,0,0,1-.12-.6v-9.94h-.55v-.16h2.05v.16h-.55v10.7a.61.61,0,0,0,.18.45.62.62,0,0,0,.45.19h.23a1.43,1.43,0,0,0,1.42-1.42v-9.92H158v-.16Z"/><path class="cls-1" d="M174.17,131.36v.16h-.66V143h-.17l-3.65-11.31v11.15h.67V143h-1.5v-.16h.66V131.52h-.66v-.16h1.73l2.75,8.35v-8.19h-.67v-.16Z"/><path class="cls-1" d="M188.12,142.86h.54V143h-2v-.16h.56l-.61-3.54h-2l-.63,3.54h.68V143h-1.5v-.16h.65l2.07-11.5h.23Zm-3.51-3.72h1.91l-1-5.33Z"/><path class="cls-1" d="M118.43,146.45a3.12,3.12,0,0,1,1.26.25,3.24,3.24,0,0,1,1,.69,3.34,3.34,0,0,1,.68,1,3.12,3.12,0,0,1,.25,1.26v6.82a3.22,3.22,0,0,1-.93,2.27,3.39,3.39,0,0,1-1,.68,3.12,3.12,0,0,1-1.26.26h-1.81V170h1.13v.34h-4.2V170h1.13V146.79h-1.13v-.34Zm1.29,1.63a1.26,1.26,0,0,0-1.29-1.29h-1.81v12.55h1.81a1.26,1.26,0,0,0,.92-.38,1.24,1.24,0,0,0,.37-.92Z"/><path class="cls-1" d="M129.71,146.79V170h1.13v.34h-4.19V170h1.12V146.79h-1.12v-.34h4.19v.34Z"/><path class="cls-1" d="M140.73,146.45a3.12,3.12,0,0,1,1.26.25,3.24,3.24,0,0,1,1,.69,3.34,3.34,0,0,1,.68,1,3.12,3.12,0,0,1,.25,1.26v6.82a3.22,3.22,0,0,1-.93,2.27,3.39,3.39,0,0,1-1,.68,3.12,3.12,0,0,1-1.26.26h-1.81V170h1.13v.34h-4.2V170H137V146.79h-1.13v-.34Zm1.29,1.63a1.26,1.26,0,0,0-1.29-1.29h-1.81v12.55h1.81a1.26,1.26,0,0,0,.92-.38A1.24,1.24,0,0,0,142,158Z"/><path class="cls-1" d="M152,146.79V170h1.13v.34H149V170h1.12V146.79H149v-.34h4.19v.34Z"/><path class="cls-1" d="M167,168.07h.34v1.46a.77.77,0,0,1-.79.79H166a1.55,1.55,0,0,1-1.16-.5,1.62,1.62,0,0,1-.48-1.17V161a1.26,1.26,0,0,0-1.29-1.29h-1.81V170h1.13v.34h-4.2V170h1.13V146.79h-1.13v-.34H163a3.12,3.12,0,0,1,1.26.25,3.08,3.08,0,0,1,1,.69,3.19,3.19,0,0,1,.69,1,3.12,3.12,0,0,1,.25,1.26v6.82a3.16,3.16,0,0,1-.59,1.88,3.29,3.29,0,0,1-1.56,1.16,3.22,3.22,0,0,1,1.56,1.16,3.13,3.13,0,0,1,.59,1.87v7.16a.25.25,0,0,0,.28.28.49.49,0,0,0,.37-.16.52.52,0,0,0,.14-.36Zm-4-8.73A1.26,1.26,0,0,0,164,159a1.24,1.24,0,0,0,.37-.92v-10a1.26,1.26,0,0,0-1.29-1.29h-1.81v12.55Z"/><path class="cls-1" d="M175.44,146.79V170h1.12v.34h-4.19V170h1.12V146.79h-1.12v-.34h4.19v.34Z"/><path class="cls-1" d="M183.49,168.68a1.28,1.28,0,0,0,1.29,1.3h.55a1.2,1.2,0,0,0,.88-.38,1.26,1.26,0,0,0,.38-.92V160.6h-1.67v-.34h3.61v6.85a3.17,3.17,0,0,1-.25,1.25,3.28,3.28,0,0,1-.69,1,3.29,3.29,0,0,1-2.3.94h-.51a3.19,3.19,0,0,1-3.2-3.21V149.65a3.12,3.12,0,0,1,.25-1.26,3.34,3.34,0,0,1,.68-1,3.21,3.21,0,0,1,1-.69,3.09,3.09,0,0,1,1.24-.25h.51a3,3,0,0,1,2.08.75.62.62,0,0,0,.31.1.44.44,0,0,0,.32-.14.41.41,0,0,0,.16-.34v0h.37v4.67h-.37a9.85,9.85,0,0,0-.34-2.35,5.83,5.83,0,0,0-.35-.85,2.75,2.75,0,0,0-1.22-1.27,2.22,2.22,0,0,0-1-.2h-.51a1.26,1.26,0,0,0-1.29,1.29Z"/><rect class="cls-1" x="141.86" y="87.7" width="2.68" height="20.99" transform="translate(313.89 66.37) rotate(135)"/><path class="cls-2" d="M133.14,86.82a1.34,1.34,0,1,1-1.33,1.33,1.34,1.34,0,0,1,1.33-1.33m0-3a4.34,4.34,0,1,0,4.34,4.33,4.33,4.33,0,0,0-4.34-4.33Z"/><rect class="cls-1" x="157.54" y="87.7" width="2.68" height="20.99" transform="translate(115.97 -83.58) rotate(45)"/><path class="cls-2" d="M168.93,86.82a1.34,1.34,0,1,1-1.33,1.33,1.34,1.34,0,0,1,1.33-1.33m0-3a4.34,4.34,0,1,0,4.34,4.33,4.33,4.33,0,0,0-4.34-4.33Z"/><rect class="cls-1" x="143.41" y="69.12" width="2.68" height="18.81" transform="translate(302.63 31.7) rotate(135)"/><path class="cls-3" d="M135.46,67.92a1.34,1.34,0,1,1-1.34,1.34,1.34,1.34,0,0,1,1.34-1.34m0-3a4.34,4.34,0,1,0,4.34,4.34,4.34,4.34,0,0,0-4.34-4.34Z"/><rect class="cls-1" x="155.99" y="69.12" width="2.68" height="18.81" transform="translate(101.61 -88.25) rotate(45)"/><path class="cls-3" d="M166.62,67.92a1.34,1.34,0,1,1-1.34,1.34,1.34,1.34,0,0,1,1.34-1.34m0-3A4.34,4.34,0,1,0,171,69.26a4.34,4.34,0,0,0-4.33-4.34Z"/><rect class="cls-1" x="149.7" y="48.58" width="2.68" height="58"/><path class="cls-4" d="M151,43.64A1.34,1.34,0,1,1,149.7,45,1.34,1.34,0,0,1,151,43.64m0-3A4.34,4.34,0,1,0,155.38,45,4.35,4.35,0,0,0,151,40.64Z"/><polygon class="cls-1" points="149.7 65.69 149.7 61.9 141.09 53.29 139.2 55.19 149.7 65.69"/><path class="cls-5" d="M138.86,51.36a1.34,1.34,0,1,1-1.34,1.34,1.34,1.34,0,0,1,1.34-1.34m0-3a4.34,4.34,0,1,0,4.33,4.34,4.34,4.34,0,0,0-4.33-4.34Z"/><polygon class="cls-1" points="152.38 65.69 152.38 61.9 160.99 53.29 162.88 55.19 152.38 65.69"/><path class="cls-5" d="M163.49,51.36a1.34,1.34,0,1,1-1.34,1.34,1.34,1.34,0,0,1,1.34-1.34m0-3a4.34,4.34,0,1,0,4.33,4.34,4.34,4.34,0,0,0-4.33-4.34Z"/><path class="cls-6" d="M151,18.28s-62.8,67.49-20.61,93.94a39.06,39.06,0,0,0,41.22,0C213.85,85.77,151,18.28,151,18.28Z"/></svg>