<?xml version="1.0" encoding="utf-8"?>
<!-- Generator: Adobe Illustrator 25.1.0, SVG Export Plug-In . SVG Version: 6.00 Build 0)  -->
<svg version="1.1" id="Layer_1" xmlns="http://www.w3.org/2000/svg" xmlns:xlink="http://www.w3.org/1999/xlink" x="0px" y="0px"
	 viewBox="0 0 300 147" style="enable-background:new 0 0 300 147;" xml:space="preserve">
<style type="text/css">
	.st0{fill:#1B1F25;}
	.st1{fill:none;stroke:#E9A025;stroke-linecap:round;stroke-linejoin:round;}
	.st2{fill:#E99E24;}
</style>
<g>
	<path class="st0" d="M107.6,64.7c-1.1,1.1-2.6,1.8-4.2,1.8h-1.1c-1.4,0-2.7,0.5-3.7,1.6c-1,1-1.6,2.4-1.6,3.8v4.5
		c0,2.9-1.1,5.7-3.2,7.7c-2.1,2.1-4.9,3.2-7.8,3.2h-8.3c-0.1-1.9,0.5-3.7,1.8-5.1c1.1-1.2,2.6-1.8,4.2-1.8h1.3
		c1.4,0,2.8-0.6,3.8-1.6c1-1,1.5-2.4,1.5-3.8v-4.5c0-2.9,1.1-5.7,3.2-7.7c2.1-2.1,5-3.3,7.9-3.2h8.3
		C109.6,61.6,108.9,63.4,107.6,64.7z"/>
	<path class="st1" d="M109.7,78.6L109.7,78.6c-0.2-1.3-1.6-9.9-2-10.3c-0.4-0.5-0.6,8.1-1.3,8.8c-0.7,0.7-1.3-5.8-1.7-6.3
		c-0.4-0.5-1,4.8-2,4.8c-1,0-1.3-1.3-2.2-2.9c-0.9-1.6-0.4,2.2-1.9,2c-1.5-0.2-0.8-1.6-1.4-1.6S97,74.7,96,74.5
		c-1-0.2-1.2-1.2-5.6-0.3"/>
	<path class="st2" d="M120.1,78.8L120.1,78.8c-2.9,0.1-5.3-2.2-5.4-5.1c-0.1-2.9,2.2-5.3,5.1-5.4c0.1,0,0.3,0,0.4,0l0,0v-9.1l0,0
		c-7.9-0.3-14.5,5.9-14.7,13.8c-0.3,7.9,5.9,14.5,13.8,14.7h0.9V78.8z"/>
	<path class="st0" d="M109.3,80.5c-0.2-0.3-0.5-0.7-0.7-1c-0.2-0.3-0.4-0.7-0.6-1.1c-0.1-0.2-0.2-0.4-0.2-0.6
		c-0.1-0.2-0.2-0.4-0.2-0.6c-0.2-0.4-0.3-0.8-0.3-1.3c-0.3-1.6-0.3-3.3,0-4.9c0.1-0.4,0.2-0.8,0.3-1.2c0.1-0.2,0.2-0.4,0.2-0.6
		c0.1-0.2,0.1-0.4,0.2-0.5c0.2-0.4,0.4-0.8,0.6-1.1c0.2-0.4,0.5-0.7,0.7-1c0.5-0.7,1-1.3,1.6-1.9c-0.6,0.6-1.1,1.3-1.6,2
		c-0.3,0.3-0.5,0.7-0.6,1.1c-0.2,0.4-0.4,0.7-0.5,1.1c-0.1,0.2-0.2,0.4-0.2,0.5c-0.1,0.2-0.2,0.4-0.2,0.6c-0.1,0.4-0.2,0.8-0.3,1.2
		c-0.3,1.6-0.3,3.3,0,4.9c0.1,0.4,0.2,0.8,0.3,1.2c0.1,0.2,0.1,0.4,0.2,0.5c0,0.2,0.1,0.4,0.2,0.6c0.1,0.4,0.3,0.8,0.5,1.1
		C108.9,79.8,109.1,80.2,109.3,80.5c0.5,0.7,1.1,1.3,1.6,2C110.3,81.9,109.8,81.2,109.3,80.5z"/>
	<path class="st0" d="M109.9,80.1L109.9,80.1l-0.1-0.2l-0.1-0.2l-0.2-0.2l-0.1-0.1v-0.1l-0.1-0.2l-0.2-0.2l-0.1-0.2l-0.2-0.4
		c-0.1-0.1-0.1-0.2-0.2-0.2l-0.2-0.2v-0.2l-0.1-0.2l-0.1-0.2v-0.2l-0.1-0.2l-0.1-0.2v-0.1l0,0v-0.2l-0.1-0.3v-0.3l-0.1-0.3
		c-0.3-1.6-0.3-3.2,0-4.7l0.1-0.3v-0.2l0.1-0.3V70l0.1-0.3l0.1-0.2v-0.2l0.1-0.2l0.2-0.1l0,0V69l0.2-0.2c0.1-0.1,0.1-0.2,0.2-0.2
		l0.2-0.2l0.1-0.2l0.1-0.2l0.1-0.3v-0.2l0,0l0.1-0.1l0.2-0.2l0.1-0.2v-0.1l0.1-0.1c0.5-0.6,1-1.2,1.6-1.7c-0.5,0.6-1,1.2-1.5,1.8
		v0.2l-0.1,0.2l-0.2,0.2v0.2l-0.1,0.2l-0.2,0.2c-0.1,0.1-0.1,0.2-0.2,0.2l-0.2,0.2c-0.1,0.1-0.1,0.2-0.2,0.2l-0.1,0.2v0.2l-0.1,0.2
		l-0.1,0.2v0.3l-0.1,0.2v0.3l-0.1,0.3V71l-0.1,0.3c-0.3,1.5-0.3,3.1,0,4.6l0.1,0.3v0.3l0.1,0.2V77l0.1,0.2v0.3l0.1,0.2l0.1,0.2v0.2
		l0.1,0.2c0,0.1,0.1,0.2,0.2,0.2l0.2,0.2c0,0.1,0.1,0.2,0.2,0.2l0.2,0.2l0.1,0.2v0.2l0.2,0.2l0.1,0.2v0.2c0.5,0.6,1,1.2,1.5,1.8
		C110.9,81.4,110.3,80.8,109.9,80.1z"/>
	<path class="st0" d="M110.5,79.8L110.5,79.8l-0.2-0.2l-0.2-0.2l-0.1-0.1l0,0l-0.1-0.2l-0.2-0.2l-0.1-0.2l-0.1-0.2l-0.2-0.2
		c-0.1-0.1-0.1-0.2-0.2-0.2l-0.2-0.2v-0.2l-0.2-0.4v-0.2l-0.1-0.2l-0.1-0.2v-0.3l-0.1-0.2v-0.3l-0.1-0.2c-0.3-1.4-0.3-2.9,0-4.4
		l0.1-0.2v-0.3l0.1-0.2v-0.3l0.1-0.2v-0.2l0.1-0.2l0.1-0.2v-0.2l0.2-0.2c0-0.1,0.1-0.2,0.2-0.2l0.2-0.2c0-0.1,0.1-0.2,0.2-0.2
		L110,68l0.1-0.2v-0.1l0.1-0.1l0.2-0.2l0.1-0.2v-0.1l0.1-0.1c0.4-0.6,0.9-1.2,1.5-1.6c-0.5,0.6-0.9,1.1-1.4,1.7v0.2l-0.1,0.2
		l-0.2,0.2l-0.1,0.1V68l-0.1,0.2l-0.2,0.2c-0.1,0.1-0.1,0.2-0.2,0.2l-0.2,0.2c-0.1,0.1-0.1,0.1-0.1,0.2l-0.1,0.2v0.2l-0.1,0.2
		l-0.1,0.2v0.2l-0.1,0.2l-0.1,0.2v0.2l0,0l-0.1,0.2v0.3l-0.1,0.2c-0.2,1.4-0.2,2.9,0,4.3l0.1,0.2v0.3l0.1,0.2v0.3l0.1,0.2l0.1,0.2
		v0.2l0.1,0.2l0.1,0.2v0.2l0.1,0.2c0,0.1,0.1,0.2,0.1,0.2l0.2,0.2c0,0.1,0.1,0.2,0.2,0.2l0.2,0.2l0.1,0.2v0.1l0.1,0.1l0.2,0.2
		L110.5,79.8L110.5,79.8l1.4,1.6C111.4,80.9,110.9,80.4,110.5,79.8z"/>
	<path class="st0" d="M110,77.6L110,77.6v-0.2l-0.1-0.2l-0.1-0.2v-0.2l-0.1-0.2l-0.1-0.2v-0.3l-0.1-0.2v-0.3l-0.1-0.2
		c-0.3-1.4-0.3-2.8,0-4.2l0.1-0.2v-0.3l0.1-0.2l0,0l0.1-0.2l0.1-0.2v-0.2l0.1-0.2l0.1-0.2v-0.2c0.6-1.3,1.4-2.4,2.4-3.4
		c-0.5,0.5-0.9,1-1.3,1.6v0.2l-0.1,0.1l-0.2,0.2v0.2l-0.1,0.1l-0.2,0.2c-0.1,0.1-0.1,0.1-0.1,0.2l-0.2,0.2c0,0.1-0.1,0.2-0.1,0.2
		l-0.1,0.2v0.3l-0.1,0.2v0.3l-0.1,0.2l0,0v0.2l-0.1,0.2v0.3l-0.1,0.2c-0.2,1.3-0.2,2.7,0,4.1l0.1,0.2v0.3l0.1,0.2v0.3l0.1,0.2l0,0
		l0.1,0.2l0.1,0.2v0.2l0.1,0.2c0,0.1,0.1,0.2,0.1,0.2l0.2,0.2c0,0.1,0.1,0.2,0.1,0.2l0.2,0.2l0.1,0.1V79l0.2,0.2l0.1,0.1v0.2
		c0.4,0.5,0.8,1.1,1.2,1.6C111.5,80.1,110.7,78.9,110,77.6z"/>
	<path class="st0" d="M110.7,77.3L110.7,77.3l-0.1-0.2l-0.1-0.2v-0.2l-0.1-0.2v-0.2l-0.1-0.2v-0.3l-0.1-0.2c-0.2-1.3-0.2-2.6,0-3.8
		l0.1-0.2v-0.3l0.1-0.2v-0.3l0.1-0.2V70l0.1-0.2l0.1-0.1v0.1c0.5-1.2,1.3-2.2,2.3-3.1c-0.4,0.5-0.8,1-1.2,1.5v0.2l-0.1,0.1l-0.2,0.2
		l-0.2,0.2l-0.1,0.2l-0.1,0.2l-0.1,0.2c0,0.1-0.1,0.2-0.1,0.2L111,70v0.2l-0.1,0.1l-0.1,0.2v0.2l-0.1,0.2v0.2l-0.1,0.2l0,0l-0.1,0.2
		c-0.2,1.2-0.2,2.5,0,3.8l0.1,0.2v0.2l0.1,0.2v0.3l0.1,0.2V77l0.1,0.2l0.1,0.1v0.2l0.1,0.2c0,0.1,0.1,0.2,0.1,0.2l0.1,0.2
		c0,0.1,0.1,0.2,0.1,0.2l0.1,0.2l0.2,0.2l0.2,0.2l0.1,0.1v0.2c0.4,0.5,0.8,1,1.2,1.5C112.1,79.7,111.3,78.6,110.7,77.3z"/>
	<path class="st0" d="M111.4,77c-0.5-1.1-0.8-2.3-0.8-3.5v-0.9c0-0.2,0-0.3,0.1-0.5l0.1-0.2v-0.2l0.1-0.2l0,0v-0.1l0.1-0.2v-0.2
		l0.1-0.2v-0.2l0.1-0.2c0-0.1,0.1-0.2,0.1-0.2c0.6-1.1,1.4-2.1,2.4-2.9c-0.4,0.5-0.8,0.9-1.1,1.4v0.2l-0.1,0.1l-0.2,0.2l-0.1,0.2
		l-0.1,0.2l-0.1,0.2l-0.1,0.2l-0.1,0.2l-0.1,0.2c-0.9,2.2-0.9,4.7,0,6.9l0.1,0.2c0,0.1,0,0.1,0.1,0.2l0.1,0.2c0,0.1,0,0.1,0.1,0.2
		l0.1,0.2l0.1,0.2l0.2,0.2l0.1,0.1v0.2c0.3,0.5,0.7,1,1.1,1.4C112.6,79.1,111.8,78.1,111.4,77z"/>
	<path class="st0" d="M112.1,76.8c-0.5-1-0.7-2.1-0.7-3.2v-0.8c0-0.1,0-0.3,0.1-0.4v-0.5l0.1-0.2v-0.2l0.1-0.2v-0.2l0.1-0.2v-0.2
		l0.1-0.2c0-0.1,0-0.1,0.1-0.2c0.4-1,1.1-1.9,2-2.7c-0.4,0.4-0.7,0.9-1,1.3V69l0,0l-0.1,0.1l-0.1,0.2l-0.1,0.2l-0.1,0.2
		c0,0.1,0,0.1-0.1,0.2l-0.1,0.2c0,0.1,0,0.1-0.1,0.2l-0.1,0.2c-0.8,2-0.8,4.3,0,6.3L112.1,76.8c0,0.1,0.1,0.1,0.1,0.2l0.1,0.2
		l0.1,0.2l0.4,0.3l0.1,0.2l0.1,0.2l0.1,0.1v0.2c0.3,0.5,0.6,0.9,1,1.3C113.2,78.7,112.5,77.8,112.1,76.8z"/>
	<path class="st0" d="M112.9,76.4c0.4,0.9,0.9,1.8,1.6,2.5c-0.8-0.7-1.4-1.5-1.8-2.4c-0.8-1.9-0.8-4,0-5.9c0.4-0.9,1-1.8,1.8-2.4
		c-0.7,0.7-1.2,1.6-1.6,2.5C112.2,72.5,112.2,74.6,112.9,76.4L112.9,76.4z"/>
	<path class="st0" d="M120.1,68.1c-3,0.1-5.4,2.6-5.2,5.6c0.1,2.9,2.4,5.1,5.2,5.2V68.1z"/>
	<circle class="st2" cx="120.1" cy="73.5" r="0.6"/>
	<path class="st0" d="M154.9,85.4c-1.2-1.1-1.9-2.7-1.9-4.4v-7.5c0-1.8-0.7-3.6-2-4.9c-1.2-1.3-3-2.1-4.8-2.1
		c-1.9,0-3.6,0.7-4.9,2.1c-1.2,1.3-2,3.1-2,4.9V81c0,1.7-0.7,3.3-1.9,4.4c-1.4,1.3-3.3,2-5.2,1.9V73.5c0-3.7,1.4-7.2,4.1-9.8
		c5.4-5.4,14.2-5.4,19.6,0c0,0,0,0,0,0c2.7,2.5,4.1,6,4.1,9.7v13.8C158.1,87.4,156.2,86.7,154.9,85.4z"/>
	<path class="st0" d="M50.7,64.7c-1.1,1.1-2.6,1.8-4.2,1.8H44c-1.9,0-3.6,0.7-4.9,2.1c-1.3,1.3-2,3.1-2,4.9V81
		c0,1.7-0.7,3.3-1.9,4.4c-1.4,1.3-3.3,2-5.2,1.9V73.5c0-7.6,6.1-13.8,13.7-13.8c0.1,0,0.2,0,0.2,0h8.5
		C52.5,61.5,51.9,63.4,50.7,64.7z"/>
	<path class="st0" d="M66.9,87.3c-3.7,0.1-7.2-1.4-9.8-4c-5.4-5.2-5.5-13.9-0.2-19.2c0,0,0.1-0.1,0.1-0.1l0.1-0.1
		c2.6-2.6,6.1-4.1,9.8-4.1h8.5c0.1,1.8-0.5,3.7-1.8,5c-1.1,1.1-2.6,1.8-4.2,1.8h-2.5c-1.8,0-3.6,0.7-4.8,2.1c-1.3,1.3-2,3.1-2,4.9
		c0,1.8,0.7,3.6,2,4.9c1.2,1.3,3,2.1,4.8,2.1h2.5c1.6,0,3.1,0.6,4.2,1.8c1.3,1.4,1.9,3.2,1.8,5L66.9,87.3z M73.6,75.1
		c-1.1,1.1-2.6,1.8-4.2,1.8H65c-0.9,0-1.8-0.3-2.4-1c-0.7-0.6-1-1.5-1-2.4c0-0.9,0.3-1.8,1-2.4c0.6-0.7,1.5-1,2.4-1h10.3
		C75.5,71.9,74.9,73.7,73.6,75.1L73.6,75.1z"/>
	<path class="st0" d="M176.7,87.3c-3.7,0.1-7.2-1.4-9.8-4c-5.4-5.2-5.6-13.8-0.4-19.2c0,0,0.1-0.1,0.1-0.1l0.3-0.3
		c5.5-5.4,14.3-5.4,19.8,0c2.7,2.5,4.2,6,4.1,9.7v13.8H176.7z M183.6,73.5c0-1.9-0.7-3.7-2-5c-2.5-2.7-6.8-2.8-9.5-0.3c0,0,0,0,0,0
		l-0.2,0.2c-1.3,1.4-2,3.2-2,5c0,1.8,0.7,3.6,2,4.9c1.2,1.3,3,2.1,4.8,2.1h6.9L183.6,73.5z"/>
	<path class="st0" d="M216,85.4c-1.2-1.2-1.9-2.7-1.9-4.4v-7.5c0-1.8-0.7-3.6-2-4.9c-2.5-2.7-6.8-2.8-9.5-0.3c0,0,0,0,0,0l-0.2,0.2
		c-1.3,1.3-2,3.1-2,4.9V81c0,1.7-0.7,3.3-1.9,4.4c-1.4,1.3-3.3,2-5.2,1.9V73.5c0-3.7,1.4-7.2,4.1-9.8c5.4-5.4,14.2-5.4,19.6,0
		c0,0,0,0,0,0c2.7,2.5,4.1,6,4.1,9.7v13.8C219.2,87.4,217.4,86.7,216,85.4z"/>
	<path class="st0" d="M237.8,87.3c-3.7,0.1-7.2-1.4-9.8-4c-5.4-5.3-5.5-13.9-0.2-19.3l0.2-0.2c2.6-2.6,6.1-4.1,9.8-4.1h8.5
		c0.1,1.8-0.5,3.7-1.8,5c-1.1,1.1-2.6,1.8-4.2,1.8h-2.5c-1.9,0-3.6,0.7-4.9,2.1c-1.3,1.3-2.1,3.1-2.1,4.9c0,1.8,0.7,3.6,2,4.9
		c1.3,1.3,3.1,2.1,4.9,2.1h2.5c1.6,0,3.1,0.6,4.2,1.7c1.3,1.4,1.9,3.2,1.8,5L237.8,87.3z"/>
	<path class="st0" d="M261.5,87.3c-3.7,0.1-7.2-1.4-9.8-4c-5.4-5.3-5.5-13.9-0.2-19.2c0,0,0.1-0.1,0.1-0.1l0.1-0.1
		c2.6-2.6,6.1-4.1,9.8-4.1h8.5c0.1,1.8-0.5,3.7-1.8,5c-1.1,1.1-2.6,1.8-4.2,1.8h-2.5c-1.8,0-3.6,0.7-4.8,2.1
		c-1.2,1.3-1.9,3.1-1.9,4.9c0,1.8,0.7,3.6,1.9,4.9c1.2,1.3,3,2.1,4.8,2.1h2.5c1.6,0,3.1,0.6,4.2,1.8c1.3,1.4,1.9,3.2,1.8,5
		L261.5,87.3z M268.2,75.1c-1.1,1.1-2.6,1.8-4.2,1.8h-4.3c-1.8,0-3.3-1.4-3.4-3.2c0,0,0,0,0,0v-0.1c0-0.9,0.3-1.8,1-2.4
		c0.6-0.7,1.5-1,2.4-1H270C270.1,71.9,269.4,73.7,268.2,75.1L268.2,75.1z"/>
	<path class="st1" d="M119.8,83.3l1.4-24c0,0-0.7,24.8-0.4,28.2c0.3,3.4,0.9-28.2,0.9-28.2s0,26.4,0.6,28.3c0.6,2,0.2-28.3,0.2-28.3
		s0.2,25.9,1.3,27.6c1,1.6,0.1-26.6,0.1-26.6s0.6,24.7,1.3,25.9c0.7,1.2,1.3-24.7,1.3-24.7s1.5-2,1.4,22.4c0,0.1,0.1,0.1,0.1,0
		c0.2-2.2,0.6-8.3,1.3-20.8l0,0c0.1,0.6,0.6,4.4,1.3,19.4c0,0,0.1,0.1,0.1,0l0,0c0.2-2.7,1.1-11.4,1.2-15.4c0,0,0-0.1,0.1-0.1
		s0.1,0,0.1,0.1c0.3,2.1,0.9,7,1.2,11.6l0,0c0.2-1.3,1.6-9.9,2-10.3c0.4-0.5,0.6,8.1,1.3,8.8c0.7,0.7,1.3-5.8,1.7-6.3
		c0.4-0.5,1,4.8,2,4.8s1.3-1.3,2.2-2.9c0.9-1.6,0.4,2,1.9,2c1.5-0.1,0.9-1.9,1.4-1.6c0.7,0.3,0.2,1.6,1.2,1.4c1-0.2,1.1-1.3,5.6-0.4
		"/>
</g>
</svg>
