<?xml version="1.0" encoding="utf-8"?>
<!-- Generator: Adobe Illustrator 25.1.0, SVG Export Plug-In . SVG Version: 6.00 Build 0)  -->
<svg version="1.1" id="Layer_1" xmlns="http://www.w3.org/2000/svg" xmlns:xlink="http://www.w3.org/1999/xlink" x="0px" y="0px"
	 viewBox="0 0 300 192.7" style="enable-background:new 0 0 300 192.7;" xml:space="preserve">
<style type="text/css">
	.st0{fill:#1975B8;}
	.st1{fill:#D71B5E;}
	.st2{fill:#8E298A;}
	.st3{fill:#00A59B;}
	.st4{fill:#E82329;}
	.st5{fill:#F49021;}
	.st6{fill:#29A5DE;}
	.st7{fill:#C4C4C6;}
	.st8{fill:#414242;}
</style>
<g>
	<g id="Layer_1_2_">
		<g>
			<path class="st0" d="M87.9,127.6l4.5,6.2h-2.3l-3.6-5l-2.6,2.4v2.6H82v-10.4h1.9v5.3l1.6-1.4l1.4-1.3l2.9-2.7h2.7L87.9,127.6z"/>
			<path class="st1" d="M105.8,133.9v-10.4h1.9v10.4H105.8z"/>
			<path class="st2" d="M131.5,123.5v10.4l-1.9-1.4l-6.7-5.2v6.6h-1.9v-10.4l1.9,1.4l6.7,5.2v-6.7H131.5z"/>
			<path class="st3" d="M146.7,126.3v1h6.7v1.9h-6.7v1.9c0,0.5,0.4,1,1,1h7.6v1.9h-7.6c-1.6,0-2.8-1.3-2.8-2.8l0,0v-4.8
				c0-1.6,1.3-2.8,2.8-2.8h7.6v1.9h-7.6C147.2,125.3,146.7,125.7,146.7,126.3z"/>
			<path class="st4" d="M179.1,123.5v1.9h-4.3v8.6H173v-8.6h-4.3v-1.9L179.1,123.5z"/>
			<path class="st5" d="M192.5,133.9v-10.4h1.9v10.4H192.5z"/>
			<path class="st6" d="M209.5,128.7c0,1.9,1.5,3.3,3.3,3.3h5.2v1.9h-5.2c-2.9,0-5.2-2.3-5.2-5.2s2.3-5.2,5.2-5.2h5.2v1.9h-5.2
				C210.9,125.3,209.5,126.8,209.5,128.7z"/>
			<rect x="96.8" y="126.8" class="st7" width="3.7" height="3.7"/>
			<rect x="113.6" y="126.8" class="st7" width="3.7" height="3.7"/>
			<rect x="137" y="126.8" class="st7" width="3.7" height="3.7"/>
			<rect x="160.9" y="126.8" class="st7" width="3.7" height="3.7"/>
			<rect x="183.8" y="126.8" class="st7" width="3.7" height="3.7"/>
			<rect x="200.1" y="126.8" class="st7" width="3.7" height="3.7"/>
		</g>
		<g>
			<path class="st8" d="M67.5,96.4v-0.1c0-1.4-1.1-2.5-2.5-2.6H53.7c-1.4,0-2.5,1.1-2.6,2.6v0.1c0,1.4,1.1,2.5,2.6,2.6h10
				c2.4,0,4.8,1,6.5,2.9c0.1,0.1,0.2,0.2,0.3,0.4c3.1,3.7,2.5,9.3-1.2,12.4c-1.6,1.3-3.5,2-5.6,2H55c-4.9,0-8.8-3.9-8.8-8.8h5
				c0,2.1,1.7,3.8,3.8,3.8h8.7c2.1,0.1,3.9-1.6,4-3.7c0.1-2.1-1.6-3.9-3.7-4c-0.1,0-0.2,0-0.4,0h-10c-1.9,0-3.8-0.8-5.2-2.1
				c-0.4-0.4-0.7-0.7-0.9-1.1c-0.9-1.3-1.4-2.8-1.3-4.3v-0.1c0-4.2,3.4-7.5,7.5-7.5H65c4.2,0,7.5,3.4,7.5,7.5v0.1L67.5,96.4z"/>
			<path class="st8" d="M81.4,96.2v2.6h17.9v5H81.4v5.2c0,1.4,1.1,2.5,2.6,2.6h20.3v4.9H84c-4.2,0-7.5-3.4-7.5-7.5V96.2
				c0-4.2,3.4-7.5,7.5-7.5h20.3v4.9H84C82.6,93.7,81.4,94.9,81.4,96.2z"/>
			<path class="st8" d="M136.1,88.8v27.8l-4.9-3.8L113.3,99v17.6h-5V88.8l4.9,3.8l17.9,13.8V88.7L136.1,88.8z"/>
			<path class="st8" d="M161.5,96.4v-0.1c0-1.4-1.1-2.5-2.6-2.6h-11.3c-1.4,0-2.5,1.1-2.6,2.6v0.1c0,1.4,1.1,2.5,2.6,2.6h10
				c2.4,0,4.8,1,6.5,2.9c0.1,0.1,0.2,0.2,0.3,0.4c3.1,3.7,2.5,9.3-1.2,12.4c-1.6,1.3-3.5,2-5.6,2h-8.7c-4.9,0-8.8-3.9-8.8-8.8h4.9
				c0,2.1,1.7,3.8,3.8,3.8h8.7c2.1,0.1,3.9-1.6,4-3.7c0.1-2.1-1.6-3.9-3.7-4c-0.1,0-0.2,0-0.4,0h-10c-1.9,0-3.8-0.8-5.2-2.1
				c-0.4-0.4-0.6-0.8-0.9-1.2c-0.9-1.3-1.4-2.8-1.3-4.3v-0.1c0-4.2,3.4-7.5,7.4-7.5l0,0h11.3c4.2,0,7.5,3.4,7.5,7.5c0,0,0,0,0,0.1
				v0.1L161.5,96.4z"/>
			<path class="st8" d="M222.7,111.6l2.6,5h-5.6l-2.6-5l-2.6-5.2l-0.1-0.2c-0.9-1.5-2.5-2.4-4.2-2.4h-4.9v12.8h-4.9V88.8h17.6
				c2,0,3.9,0.8,5.3,2.2c1.4,1.4,2.2,3.4,2.2,5.3c0,2.9-1.7,5.6-4.4,6.9c-0.6,0.3-1.4,0.5-2.1,0.6L222.7,111.6z M217.8,98.8
				c0.4,0,0.7-0.1,1-0.2c0.9-0.4,1.5-1.3,1.5-2.3c0-0.7-0.3-1.4-0.8-1.9c-0.5-0.5-1.1-0.7-1.8-0.7h-12.6v5.2L217.8,98.8z"/>
			<path class="st8" d="M225.9,116.5L225.9,116.5L225.9,116.5L225.9,116.5z M253.8,88.7l-10.8,14l-0.6,0.7v13.1h-5v-13l-0.6-0.9
				l-10.8-14h6.3l7.7,9.9l7.7-9.9L253.8,88.7z M253.7,116.6L253.7,116.6L253.7,116.6L253.7,116.6z"/>
			<g>
				<path class="st8" d="M182.1,92.5c-3.8,0.9-1.6,6.3,1.6,4.9c1.1-0.5,1.6-1.7,1.5-2.9C184.7,93.2,183.4,92.3,182.1,92.5z"/>
				<path class="st0" d="M203.1,77.7c-3,3.4-3.5,6-6.5,9c-0.4,0.3-1,0.3-1.5,0c-0.1-0.1-0.2-0.3-0.3-0.4c-0.2-0.6-0.2-1.1-0.1-1.7
					c0.5-5.3,2.3-8.9,2.3-14.2c-0.1-1.6-0.3-4.4-2.2-5c-4.7-0.1-5.3,11.6-7.6,14.7c-0.7,0.9-1.6,0.4-1.7-0.7
					c-0.9-6,0.3-11.5-1.2-17.4c-1-4-3.9-4.2-5.3-0.3c-0.9,2.8-0.9,5.6-1.3,8.5c-0.7,6-0.3,5.9-0.9,10.4c0,0.3-0.3,0.4-0.6,0.4
					c-0.1,0-0.2-0.1-0.3-0.2c-1.1-1.2-1.3-3.1-1.8-4.7c-1.5-4.5-2-6.8-4.6-11.2c-0.3-0.6-1-0.9-1.7-0.9c-1.8,0-2.2,2-2.1,3.4
					c0.2,3.8,0.6,7.7,1.3,11.4c1.4,5.3,1,13.1-6.2,8c-1.8-1.4-3.6-2.7-5.6-3.8c-0.5-0.3-1.1-0.5-1.7-0.5c-4.4,0.2,1.2,6.7,2.1,7.8
					c4.4,5.2,6.4,7.5,10.7,12.3c2.9,3.2,5.9,6.6,9.8,8.4c7.5,3.3,15.8,0.1,20.3-6.4c1.5-2.2,2.7-4.4,3.7-6.7c1.6-3.3,3-6.5,4.2-10
					c1-2.9,2.9-8.6,1.9-10.2S204.1,76.3,203.1,77.7z M191.8,97.7c-1.9,2.2-4,4.4-6.2,6.4c-3.2-0.5-6.4-1.3-9.4-2.4
					c-1.2-2.9-2.2-5.9-2.8-9c1.9-2.6,4.1-5,6.6-7.1c2.9,0.7,5.8,1.6,8.6,2.6C190.1,91.3,191.1,94.5,191.8,97.7z"/>
				<path class="st2" d="M167.1,66.5c0,0-0.7,4,0.2,4.7c0.6,0.4,2.5-0.4,2.9-0.9c0.4-0.5-1.8-4.3-1.8-4.3S167.1,65.3,167.1,66.5z"/>
				<path class="st4" d="M194.4,66.5c0,0-2.3,3.1-1.9,4.2c0.3,0.7,2.3,0.8,2.9,0.5s0.4-4.4,0.4-4.4S194.8,65.5,194.4,66.5z"/>
				<path class="st6" d="M181.1,61c0,0-1.7,3.7-1,4.7c0.5,0.6,2.5,0.3,3.1-0.1c0.6-0.4-0.5-4.7-0.5-4.7S181.4,59.8,181.1,61z"/>
				<path class="st3" d="M153.6,85c0,0,1.3,3.8,2.5,4.1c0.8,0.1,2-1.6,2.2-2.2c0.1-0.7-3.6-3-3.6-3S152.9,84,153.6,85z"/>
				<path class="st5" d="M204.2,78.9c0,0-3,2.7-2.8,3.9c0.2,0.8,2.2,1.3,2.9,1.1c0.7-0.1,1.3-4.5,1.3-4.5S204.8,77.9,204.2,78.9z"/>
			</g>
		</g>
	</g>
</g>
</svg>
