<svg id="Layer_1" data-name="Layer 1" xmlns="http://www.w3.org/2000/svg" viewBox="0 0 300 192.71"><defs><style>.cls-1{fill:#1b252f;}.cls-2{fill:#e6e7e8;}.cls-3{fill:#e33e3f;}.cls-4{fill:#fad016;}.cls-5{fill:#263779;}</style></defs><path class="cls-1" d="M43.51,82.52l.24,3.89q3.91-4.57,10.73-4.58,7.47,0,10.22,5.71a13.21,13.21,0,0,1,11.42-5.71q6.15,0,9.17,3.41t3.08,10.05v24.46H80V95.53q0-3.56-1.55-5.2t-5.13-1.65a7,7,0,0,0-4.66,1.53,8.1,8.1,0,0,0-2.53,4l0,25.53H57.82V95.25q-.18-6.57-6.71-6.57c-3.35,0-5.73,1.36-7.12,4.09v27H35.63V82.52Z"/><path class="cls-1" d="M95.76,109.32a10.57,10.57,0,0,1,4.42-9.13Q104.6,97,112.83,97H118V94.56a6.53,6.53,0,0,0-1.61-4.62,6.41,6.41,0,0,0-4.92-1.74,7.3,7.3,0,0,0-4.68,1.43,4.41,4.41,0,0,0-1.83,3.63H96.55a9.29,9.29,0,0,1,2-5.73,13.6,13.6,0,0,1,5.52-4.18,19.42,19.42,0,0,1,7.8-1.52q6.52,0,10.42,3.29t4,9.24v16.78a19.06,19.06,0,0,0,1.41,8v.59h-8.53a12.72,12.72,0,0,1-1-3.48,14.06,14.06,0,0,1-18.92,1A10.21,10.21,0,0,1,95.76,109.32Zm8.36-.86a4.91,4.91,0,0,0,1.6,3.84,6.22,6.22,0,0,0,4.28,1.43,9.56,9.56,0,0,0,4.67-1.21,8,8,0,0,0,3.28-3.23v-7h-4.5q-4.65,0-7,1.62A5.22,5.22,0,0,0,104.12,108.46Z"/><path class="cls-1" d="M143,82.52l.21,4.16a9.42,9.42,0,0,1,8.39-4.85,7.66,7.66,0,0,1,3,.49l0,7.84a21.2,21.2,0,0,0-3.41-.28q-5.75,0-7.74,4.41v25.46h-8.36V82.52Z"/><path class="cls-1" d="M155.83,82.52H162v-9h8.36v9h6.57v6.19h-6.57v20.78a4.52,4.52,0,0,0,.85,3.08,3.9,3.9,0,0,0,3,1,12.86,12.86,0,0,0,2.92-.35v6.47a20.47,20.47,0,0,1-5.5.79q-9.65,0-9.64-10.63V88.71h-6.12Z"/><path class="cls-1" d="M186.76,82.52v7.74a13.74,13.74,0,0,1,4.54-6.16,12.34,12.34,0,0,1,7.6-2.27,7.6,7.6,0,0,1,2.62.38l-.21,1.65-2.41-.2a11,11,0,0,0-8,3.08,15.31,15.31,0,0,0-4.19,8.61v24.4H184.9V82.49Z"/><path class="cls-1" d="M205.64,100.41a21.86,21.86,0,0,1,2.05-9.58,15.76,15.76,0,0,1,5.78-6.62,15.34,15.34,0,0,1,8.45-2.38,15.35,15.35,0,0,1,14.19,8.84,21.73,21.73,0,0,1,2.11,9.53v1.66a21.81,21.81,0,0,1-2,9.59,15.72,15.72,0,0,1-28.45.09,21.78,21.78,0,0,1-2.1-9.48Zm3.72,9.94a14.32,14.32,0,0,0,5.11,6.06,13.36,13.36,0,0,0,7.51,2.17,12.91,12.91,0,0,0,10.38-4.79q4-4.77,4-12.31v-1.07A19.34,19.34,0,0,0,234.51,92a14.71,14.71,0,0,0-5.15-6.07,13.11,13.11,0,0,0-7.44-2.19,12.88,12.88,0,0,0-10.39,4.85,18.48,18.48,0,0,0-4,12.22v1.1A19.28,19.28,0,0,0,209.36,110.35Z"/><path class="cls-1" d="M246.86,119.75V82.52h1.89v8.81a15.7,15.7,0,0,1,5.4-7,14.24,14.24,0,0,1,15.43-.41c2,1.37,3.29,3.62,3.91,6.74a13.7,13.7,0,0,1,5.36-6.42,15.1,15.1,0,0,1,8.33-2.39q6,0,9,3.41t3,10.22v24.29h-1.86V95.59q0-6.12-2.43-9c-1.61-1.93-4.12-2.9-7.51-2.9h-.25a13,13,0,0,0-10.73,5.4A11.48,11.48,0,0,0,273.86,95v24.77H272v-25q0-5.6-2.46-8.34t-7.73-2.73a11.85,11.85,0,0,0-10,5.4,18.09,18.09,0,0,0-3.06,7.15v23.54Z"/><rect class="cls-1" x="184.9" y="73.93" width="114.22" height="0.68"/><rect class="cls-1" x="184.56" y="73.59" width="114.89" height="1.35"/><rect class="cls-2" x="14.32" y="108.87" width="3.16" height="1.58" rx="0.56"/><rect class="cls-3" x="12.74" y="106.78" width="6.32" height="1.58" rx="0.76"/><rect class="cls-4" x="12.74" y="104.69" width="6.32" height="1.58" rx="0.76"/><rect class="cls-5" x="12.74" y="102.61" width="6.32" height="1.58" rx="0.76"/><path class="cls-2" d="M17.63,92.62H14.18c-.57,0-1,.31-1,.68v8.12c0,.37.46.68,1,.68h.32c.56,0,1-.31,1-.68V94.2h.76v7.22c0,.37.46.68,1,.68h.32c.56,0,1-.31,1-.68V93.3C18.65,92.93,18.19,92.62,17.63,92.62Z"/><path class="cls-1" d="M8,101.83a25.73,25.73,0,0,0,3.12,1.22V95.38a3.38,3.38,0,0,1-1.22-2.7,4,4,0,0,1,1.74-3.42A7.44,7.44,0,0,1,16.13,88a6.88,6.88,0,0,1,4.76,1.61,5.16,5.16,0,0,1,1.8,4h8.38A10.52,10.52,0,0,0,27,85q-4.12-3.32-10.82-3.31A16.12,16.12,0,0,0,5.77,84.94,9.94,9.94,0,0,0,1.7,93Q1.7,98.8,8,101.83Z"/><path class="cls-1" d="M30,104a11,11,0,0,0-4.18-3.61,25.21,25.21,0,0,0-5.1-1.93v7.36c.19.11.38.21.54.32a3.8,3.8,0,0,1,1.85,3.41,3.91,3.91,0,0,1-1.73,3.3,8.48,8.48,0,0,1-5,1.26,8.74,8.74,0,0,1-5.49-1.61A5.92,5.92,0,0,1,8.6,108H.45a10.76,10.76,0,0,0,2,6.25,13.46,13.46,0,0,0,5.59,4.56,19.37,19.37,0,0,0,8.18,1.65q6.76,0,10.94-3.12a9.73,9.73,0,0,0,4.18-8.17A9.24,9.24,0,0,0,30,104Z"/></svg>