<svg id="Layer_1" data-name="Layer 1" xmlns="http://www.w3.org/2000/svg" viewBox="0 0 300 192.7"><defs><style>.cls-1{fill:#3ca6d4;}.cls-2{fill:#4ec1c0;}</style></defs><path class="cls-1" d="M157.87,63.32a1.35,1.35,0,0,0,1.34,1.34h6.67a6.67,6.67,0,0,1,0,13.33h-6.67a6.67,6.67,0,0,1-6.67-6.67h5.33a1.35,1.35,0,0,0,1.34,1.34h6.67a1.34,1.34,0,0,0,0-2.67h-6.67a6.67,6.67,0,1,1,0-13.33H165a6.66,6.66,0,0,1,6.67,6.66h-5.33A1.35,1.35,0,0,0,165,62h-5.78A1.35,1.35,0,0,0,157.87,63.32Z"/><path class="cls-1" d="M199.42,56.69V78h-5.33V63.11L190.19,67l2.1,2.47-4.07,3.41L180.79,64V78h-5.33V56.66h6.12l5.18,6.2,6.2-6.2Z"/><path class="cls-1" d="M226.29,78h-5.78L220,76.62H208.91L208.36,78h-5.78l9-21.3h5.78Zm-8.55-6.67-3.29-7.79-3.28,7.79Z"/><path class="cls-1" d="M246.78,65.27a8.55,8.55,0,0,1-4.24,7.36L246.35,78h-6.54l-3-4.14h-2.52V78H229V56.66h9.16a8.57,8.57,0,0,1,8.59,8.58Zm-5.33,0A3.26,3.26,0,0,0,238.19,62h-3.83v6.51h3.83A3.26,3.26,0,0,0,241.45,65.27Z"/><path class="cls-1" d="M267.35,56.66V62h-6.66V78h-5.33V62h-6.67V56.66Z"/><path class="cls-2" d="M174.58,78.67V96.3h-4.41V84L167,87.21l1.74,2-3.38,2.82-6.15-7.33V96.28h-4.4V78.64h5.06l4.28,5.14,5.14-5.14Z"/><path class="cls-2" d="M196.82,96.28H192l-.45-1.11h-9.14L182,96.28h-4.79l7.44-17.64h4.78Zm-7.08-5.52L187,84.31l-2.72,6.45Z"/><path class="cls-2" d="M214.55,96.28H209l-4.94-6.58-.63.76v5.82h-4.4V78.64h4.4v5.09l4.41-5.09h5.52L207,86.23Z"/><path class="cls-2" d="M229.08,78.67v4.41h-7.71v2.19h3.3v4.41h-3.3v2.19h7.71v4.41H217V78.64Z"/><path class="cls-2" d="M246.23,85.77a7.09,7.09,0,0,1-3.5,6.1l3.15,4.41h-5.42L238,92.85h-2.09v3.43h-4.41V78.64h7.58a7.11,7.11,0,0,1,7.11,7.11Zm-4.41,0a2.69,2.69,0,0,0-2.69-2.69H236v5.39h3.18A2.69,2.69,0,0,0,241.82,85.77Z"/><path class="cls-2" d="M253.05,84.16a1.13,1.13,0,0,0,1.11,1.11h5.52a5.52,5.52,0,1,1,0,11h-5.52a5.51,5.51,0,0,1-5.51-5.51h4.4a1.12,1.12,0,0,0,1.11,1.1h5.52a1.11,1.11,0,1,0,0-2.21h-5.52a5.52,5.52,0,0,1,0-11H259a5.52,5.52,0,0,1,5.52,5.52h-4.41A1.12,1.12,0,0,0,259,83.05h-4.79A1.12,1.12,0,0,0,253.05,84.16Z"/><path class="cls-1" d="M181.75,126.93v9.41H153.51V98.69h9.41v28.24Z"/><path class="cls-1" d="M226.24,136.34H216l-1-2.36H195.53l-1,2.36H184.34l15.87-37.65h10.22Zm-15.11-11.78-5.81-13.77-5.81,13.77Z"/><path class="cls-1" d="M262.51,116a11.75,11.75,0,0,1-8,20.38H231V98.69h21.19A11.77,11.77,0,0,1,264,110.47a12.05,12.05,0,0,1-1.34,5.54Zm-8.12,11a2.37,2.37,0,1,0,0-4.73h-14.1v4.68h14.15Zm-14-14.2h11.78a2.37,2.37,0,1,0,0-4.73H240.35Z"/><path class="cls-1" d="M85.84,112.28h-2.2a2.18,2.18,0,0,0-2,2.29h0a2.18,2.18,0,0,0,2,2.29h2.2a1.83,1.83,0,0,1,1,.29c1.54,1,6.81,3.87,8.56-1.79a2.66,2.66,0,0,0,0-1.58c-1.75-5.66-7-2.79-8.56-1.79A1.91,1.91,0,0,1,85.84,112.28Z"/><polygon class="cls-1" points="55.52 93.44 53.77 96.48 55.52 99.51 59.02 99.51 60.77 96.48 59.02 93.44 55.52 93.44"/><path class="cls-1" d="M84.54,96.17H70a.6.6,0,0,1-.61-.6V60.76a1.77,1.77,0,0,0-2.55-1.58A41.27,41.27,0,0,0,68.55,134a.61.61,0,0,0,.85-.56,1.75,1.75,0,0,1,2.32-1.67A41.05,41.05,0,0,0,84.52,134a.62.62,0,0,0,.62-.62V96.77A.6.6,0,0,0,84.54,96.17Zm-24,6H54l-3.29-5.71L54,90.77h6.6l3.29,5.71Z"/><polygon class="cls-2" points="118.37 93.68 114.87 93.68 113.12 96.71 114.87 99.75 118.37 99.75 120.13 96.71 118.37 93.68"/><path class="cls-2" d="M107.08,59.18a1.77,1.77,0,0,0-2.55,1.58V95.57a.6.6,0,0,1-.61.6H89.39a.6.6,0,0,0-.6.6v10.58a9.35,9.35,0,0,1,2.45-.35c3.39,0,6.08,2.14,7.19,5.71a6.34,6.34,0,0,1,0,3.71c-1.11,3.58-3.8,5.71-7.19,5.71a9,9,0,0,1-2.45-.35v11.56a.62.62,0,0,0,.62.62,41.05,41.05,0,0,0,12.8-2.24,1.75,1.75,0,0,1,2.32,1.67.61.61,0,0,0,.85.56,41.27,41.27,0,0,0,1.7-74.77Zm6.24,43.24L110,96.71,113.32,91h6.6l3.29,5.71-3.29,5.71Z"/><path class="cls-1" d="M128.43,76H104.81L93,96.48l11.81,20.45h23.62l11.81-20.45Zm-5.53,31.33H110.34l-6.28-10.87,6.28-10.88H122.9l6.28,10.88Z"/><path class="cls-2" d="M69.08,76H45.46L33.65,96.48l11.81,20.45H69.08L80.89,96.48Zm-5.53,31.33H51L44.71,96.48,51,85.6H63.55l6.28,10.88Z"/></svg>