<svg id="Layer_1" data-name="Layer 1" xmlns="http://www.w3.org/2000/svg" viewBox="0 0 300 192.7"><defs><style>.cls-1{fill:#87c040;}.cls-2{fill:#93c83f;}.cls-3{fill:#18a1db;}.cls-4{fill:#ee3f36;}.cls-5{fill:#fdd20f;}.cls-6{fill:#68bc45;}.cls-7{fill:#fff;}.cls-8{fill:#b4d234;}</style></defs><path class="cls-1" d="M135.89,99.19c1,0,1.93-.94,2.73-2.83q2-4.77,2.14-16.21a1,1,0,0,1,.29-.71.93.93,0,0,1,.7-.31h12.47a.94.94,0,0,1,.7.31,1,1,0,0,1,.29.71,90.85,90.85,0,0,1-1.19,14,60.93,60.93,0,0,1-2.86,11.19,46.58,46.58,0,0,1-4.24,8.64,38.61,38.61,0,0,1-5,6.49,36.55,36.55,0,0,1-5.52,4.56,35.4,35.4,0,0,1-5.41,3.06,34.49,34.49,0,0,1-5,1.75,40,40,0,0,1-4.1.89c-1,.13-1.92.23-2.78.3a1,1,0,0,1-.7-.28,1,1,0,0,1-.3-.73V118.7a.82.82,0,0,1,.7-.91c1-.27,2.08-.59,3.18-1s2.41-.87,3.95-1.52a13,13,0,0,0,3.77-2.28,3.71,3.71,0,0,0,1.47-2.73l-.47,0a6.89,6.89,0,0,1-1.32-.12,8.86,8.86,0,0,1-1.94-.53,10.9,10.9,0,0,1-2.23-1.35,13.21,13.21,0,0,1-2.41-2.33,18.86,18.86,0,0,1-2.26-3.7,29.77,29.77,0,0,1-2-5.31,54.27,54.27,0,0,1-1.36-7.33,80.37,80.37,0,0,1-.6-9.49,1,1,0,0,1,.3-.71.93.93,0,0,1,.7-.31H130a.87.87,0,0,1,.67.31,1,1,0,0,1,.27.71q.15,15.64,3.73,18.59A2,2,0,0,0,135.89,99.19Z"/><path class="cls-1" d="M157.6,79.18H169a.87.87,0,0,1,.68.31,1,1,0,0,1,.27.66v20.11a2.42,2.42,0,0,0,.3,1.16,2.14,2.14,0,0,0,3.55.56,2.4,2.4,0,0,0,.67-1.72V80.2a1,1,0,0,1,.27-.71.85.85,0,0,1,.67-.31l12.08-.05a.92.92,0,0,1,.69.31,1,1,0,0,1,.3.71v32.72a1,1,0,0,1-.3.71,1,1,0,0,1-.69.31l-8.8,0a22.39,22.39,0,0,1-5.71.71,20.07,20.07,0,0,1-7.06-1.17,13.38,13.38,0,0,1-8.17-7.93,15.73,15.73,0,0,1-1.07-5.8V80.15a.94.94,0,0,1,.28-.69A.91.91,0,0,1,157.6,79.18Z"/><path class="cls-1" d="M214.38,101.12l5.17,7.8a.9.9,0,0,1-.15,1.27,17.47,17.47,0,0,1-19,2.83,17.62,17.62,0,0,1-5.88-4.35,18.57,18.57,0,0,1-3.66-6.46,18.15,18.15,0,0,1-.79-7.78,17.72,17.72,0,0,1,5.14-10.74,17.31,17.31,0,0,1,17.91-4.46,18.27,18.27,0,0,1,6.31,3.6,1,1,0,0,1,.15,1.32l-5.17,7.75a.88.88,0,0,1-.67.4.94.94,0,0,1-.77-.25,6.35,6.35,0,0,0-4.27-1.57,5.61,5.61,0,0,0-4.2,1.77,6.15,6.15,0,0,0,0,8.51,5.58,5.58,0,0,0,4.2,1.78,6.4,6.4,0,0,0,4.27-1.57,1,1,0,0,1,.77-.26A.93.93,0,0,1,214.38,101.12Z"/><path class="cls-1" d="M241.86,101.12l5.16,7.8a.9.9,0,0,1-.15,1.27,17.46,17.46,0,0,1-19,2.83,17.76,17.76,0,0,1-5.89-4.35,18.55,18.55,0,0,1-3.65-6.46,18,18,0,0,1-.8-7.78,17.77,17.77,0,0,1,5.14-10.74,17.31,17.31,0,0,1,17.91-4.46,18.09,18.09,0,0,1,6.31,3.6,1,1,0,0,1,.15,1.32l-5.16,7.75a.9.9,0,0,1-.67.4.93.93,0,0,1-.77-.25,6.38,6.38,0,0,0-4.28-1.57,5.64,5.64,0,0,0-4.2,1.77,6.15,6.15,0,0,0,0,8.51,5.62,5.62,0,0,0,4.2,1.78,6.43,6.43,0,0,0,4.28-1.57.94.94,0,0,1,1.44.15Z"/><path class="cls-1" d="M268,79.13h13a.92.92,0,0,1,.69.31,1,1,0,0,1,.3.71v32.77a.92.92,0,0,1-.3.69,1,1,0,0,1-.69.28H268v0a18,18,0,0,1-5.32.81,17,17,0,0,1-7.32-1.63,17.87,17.87,0,0,1-5.87-4.33A18.72,18.72,0,0,1,245,94.53a17.73,17.73,0,0,1,5.29-11,17.19,17.19,0,0,1,10.9-5.15,17.87,17.87,0,0,1,6.81.81Zm-8.84,21a4.89,4.89,0,0,0,7.05,0,5.21,5.21,0,0,0,0-7.19,4.89,4.89,0,0,0-7.05,0,5.18,5.18,0,0,0,0,7.19Z"/><rect class="cls-2" x="43.86" y="53.01" width="35.07" height="86.69" rx="2.63"/><rect class="cls-1" x="18.05" y="78.81" width="86.69" height="35.07" rx="2.63"/><rect class="cls-3" x="35.02" y="84.17" width="52.76" height="20.54" rx="10.27" transform="translate(-48.8 71.08) rotate(-45)"/><rect class="cls-4" x="51.13" y="68.06" width="20.54" height="52.76" rx="10.27" transform="translate(-48.8 71.08) rotate(-45)"/><rect class="cls-5" x="35.02" y="84.17" width="52.76" height="20.54" rx="10.27"/><rect class="cls-6" x="50.99" y="67.93" width="20.54" height="52.76" rx="10.27"/><path class="cls-2" d="M42.29,82.13c.82-1,10.32.84,18,5.41h0a47,47,0,0,1,5-4.42h0S86,70.75,83.5,76.76c-1.43,3.48-8.42,13.72-12,22.69h0v11a10.3,10.3,0,0,1-10.27,10.27h0A10.3,10.3,0,0,1,51,110.42V96.55h0C49,92.81,42.29,82.13,42.29,82.13Z"/><polygon class="cls-7" points="64.83 75.66 62.56 75.66 62.56 73.39 59.95 73.39 59.95 75.66 57.69 75.66 57.69 78.27 59.95 78.27 59.95 80.54 62.56 80.54 62.56 78.27 64.83 78.27 64.83 75.66"/><path class="cls-2" d="M80.2,82.21c-.83-1-10.32.84-18,5.41h0a46.42,46.42,0,0,0-5-4.42h0S36.51,70.83,39,76.84c1.44,3.48,8.43,13.71,12,22.69h0v11a10.3,10.3,0,0,0,10.27,10.27h0a10.3,10.3,0,0,0,10.27-10.27V96.63h0c1.92-3.75,8.67-14.42,8.67-14.42Z"/><path class="cls-8" d="M71.53,79.62V110.5a10.31,10.31,0,0,1-10.29,10.27h0A10.31,10.31,0,0,1,51,110.5v-10a2.74,2.74,0,0,1,.6-1.71S62.43,85.49,71.53,79.62Z"/></svg>