<?xml version="1.0" encoding="utf-8"?>
<!-- Generator: Adobe Illustrator 27.0.1, SVG Export Plug-In . SVG Version: 6.00 Build 0)  -->
<svg version="1.1" id="Capa_1" xmlns="http://www.w3.org/2000/svg" xmlns:xlink="http://www.w3.org/1999/xlink" x="0px" y="0px"
	 viewBox="0 0 800 800" style="enable-background:new 0 0 800 800;" xml:space="preserve">
<style type="text/css">
	.st0{fill:#FFFFFF;}
</style>
<g>
	<path class="st0" d="M650,0H150C67.1,0,0,67.1,0,150v500c0,82.9,67.1,150,150,150h500c82.9,0,150-67.1,150-150V150
		C800,67.1,732.9,0,650,0z M577.8,535.2l-42.7,42.7c-7.8,7.8-20.6,7.8-28.4,0L400,471.2L293.3,577.8c-7.8,7.8-20.6,7.8-28.5-0.1
		l-42.7-42.6c-7.8-7.9-7.8-20.6,0-28.5L328.9,400L222.2,293.4c-7.8-7.9-7.8-20.7,0-28.5l42.7-42.7c7.8-7.9,20.6-7.9,28.5,0
		L400,328.9l106.7-106.7c7.8-7.9,20.6-7.9,28.4,0l42.7,42.6c7.8,7.8,7.8,20.6,0,28.5L471.2,400l106.7,106.7
		C585.6,514.6,585.6,527.3,577.8,535.2z"/>
</g>
</svg>
