<?xml version="1.0" encoding="utf-8"?>
<!-- Generator: Adobe Illustrator 27.0.1, SVG Export Plug-In . SVG Version: 6.00 Build 0)  -->
<svg version="1.1" id="Layer_1" xmlns="http://www.w3.org/2000/svg" xmlns:xlink="http://www.w3.org/1999/xlink" x="0px" y="0px"
	 viewBox="0 0 800 800" style="enable-background:new 0 0 800 800;" xml:space="preserve">
<style type="text/css">
	.st0{fill-rule:evenodd;clip-rule:evenodd;fill:#FFFFFF;}
</style>
<path class="st0" d="M66.7,200c0-73.6,59.7-133.3,133.3-133.3h400c73.6,0,133.3,59.7,133.3,133.3v400c0,73.6-59.7,133.3-133.3,133.3
	H200c-73.6,0-133.3-59.7-133.3-133.3V200z M200,133.3c-36.8,0-66.7,29.8-66.7,66.7v400c0,36.8,29.8,66.7,66.7,66.7h200V433.3h-33.3
	c-18.4,0-33.3-14.9-33.3-33.3c0-18.4,14.9-33.3,33.3-33.3H400v-50c0-64.4,52.2-116.7,116.7-116.7h20c18.4,0,33.3,14.9,33.3,33.3
	s-14.9,33.3-33.3,33.3h-20c-27.6,0-50,22.4-50,50v50h70c18.4,0,33.3,14.9,33.3,33.3c0,18.4-14.9,33.3-33.3,33.3h-70v233.3H600
	c36.8,0,66.7-29.8,66.7-66.7V200c0-36.8-29.8-66.7-66.7-66.7H200z"/>
</svg>
