<?xml version="1.0" encoding="utf-8"?>
<!-- Generator: Adobe Illustrator 27.0.1, SVG Export Plug-In . SVG Version: 6.00 Build 0)  -->
<svg version="1.1" id="Layer_1" xmlns="http://www.w3.org/2000/svg" xmlns:xlink="http://www.w3.org/1999/xlink" x="0px" y="0px"
	 viewBox="0 0 800 800" style="enable-background:new 0 0 800 800;" xml:space="preserve">
<style type="text/css">
	.st0{fill:#FFFFFF;}
</style>
<path class="st0" d="M400,228.8c-33.8,0-67,10-95,28.8c-28.2,18.8-50.1,45.6-63,76.7c-12.9,31.3-16.4,65.7-9.8,98.9
	c6.6,33.2,22.9,63.7,46.8,87.6c23.9,23.9,54.5,40.2,87.6,46.8c33.2,6.6,67.6,3.3,98.9-9.8s58-34.9,76.7-63
	c18.8-28.2,28.8-61.2,28.8-95c0-22.5-4.4-44.8-12.9-65.6c-8.6-20.8-21.2-39.7-37.1-55.6c-15.9-15.9-34.8-28.5-55.6-37.1
	C444.8,233.2,422.5,228.8,400,228.8z M400,511.3c-22,0-43.6-6.5-61.8-18.8s-32.5-29.7-41.1-49.9c-8.4-20.4-10.6-42.8-6.4-64.3
	c4.3-21.7,14.9-41.4,30.5-57.1c15.5-15.5,35.4-26.2,57.1-30.5c21.7-4.3,44.1-2.1,64.3,6.4c20.4,8.4,37.8,22.7,49.9,41.1
	c12.3,18.3,18.8,39.8,18.8,61.8c0,29.5-11.8,57.8-32.7,78.7C457.8,499.6,429.5,511.3,400,511.3z M618.2,221.8c0,8.3-2.5,16.3-7,23.2
	c-4.6,6.9-11.1,12.3-18.8,15.4s-16,4-24.2,2.4c-8.1-1.6-15.5-5.6-21.4-11.4c-5.9-5.9-9.8-13.3-11.4-21.4c-1.6-8.1-0.8-16.5,2.4-24.2
	c3.1-7.6,8.5-14.1,15.4-18.8c6.9-4.6,14.9-7,23.2-7c11,0,21.7,4.4,29.5,12.3C613.8,200,618.2,210.7,618.2,221.8z M731.4,263.5
	c1.3-51.8-18.2-102.1-53.8-139.8c-37.4-36.2-87.8-56-139.8-55.1c-54.2-2.5-221.2-2.5-275.4,0c-51.8-1.1-102,18.3-139.8,53.8
	c-35.7,37.7-55.1,87.9-53.8,139.8c-2.5,54.2-2.5,221.2,0,275.4c-1.3,51.8,18.2,102.1,53.8,139.8c37.7,35.7,87.9,55,139.8,53.8
	c55.1,3.4,220.3,3.4,275.4,0c51.8,1.3,102.1-18.2,139.8-53.8c35.7-37.7,55.1-87.9,53.8-139.8c2.5-54.2,2.5-221.2,0-275.4V263.5z
	 M660.4,597.3c-5.6,14.4-14.3,27.4-25.2,38.3c-10.9,10.9-23.9,19.4-38.3,25.2C532.2,674,466,678.3,400,674.2
	c-65.8,4.3-131.9-0.3-196.5-13.4c-14.4-5.6-27.4-14.3-38.3-25.2c-10.9-10.9-19.4-23.9-25.2-38.3c-17.5-44.2-13.8-148.6-13.8-196.9
	s-3.8-153.1,13.8-196.9c5.5-14.5,14-27.7,24.9-38.7c10.9-11,24-19.5,38.6-25.2c64.6-13.1,130.7-17.7,196.5-13.4
	c66-4.3,132.2,0.3,196.9,13.4c14.4,5.6,27.4,14.3,38.3,25.2c10.9,10.9,19.4,23.9,25.2,38.3c17.5,44.2,13.4,148.6,13.4,196.9
	s4.1,153-13.4,196.8V597.3z"/>
</svg>
