<?xml version="1.0" encoding="UTF-8"?>
<svg id="Layer_1" data-name="Layer 1" xmlns="http://www.w3.org/2000/svg" viewBox="0 0 800 800">
  <defs>
    <style>
      .cls-1 {
        fill: rgba(255, 255, 255, 0);
      }
    </style>
  </defs>
  <path class="cls-1" d="M400,733.33c-18.41,0-33.33-14.92-33.33-33.33V100c0-18.41,14.92-33.33,33.33-33.33s33.33,14.92,33.33,33.33V700c0,18.41-14.92,33.33-33.33,33.33Zm-133.33-233.33c-8.53,0-17.06-3.25-23.57-9.76l-66.67-66.67c-13.02-13.02-13.02-34.12,0-47.14l66.67-66.67c13.02-13.02,34.12-13.02,47.14,0s13.02,34.12,0,47.14l-43.1,43.1,43.1,43.1c13.02,13.02,13.02,34.12,0,47.14-6.51,6.51-15.04,9.76-23.57,9.76Z"/>
</svg>